<?xml version="1.0" encoding="utf-8" standalone="no"?>
<!DOCTYPE svg PUBLIC "-//W3C//DTD SVG 1.1//EN"
  "http://www.w3.org/Graphics/SVG/1.1/DTD/svg11.dtd">
<svg xmlns:xlink="http://www.w3.org/1999/xlink" width="288pt" height="288pt" viewBox="0 0 288 288" xmlns="http://www.w3.org/2000/svg" version="1.1">
 <metadata>
  <rdf:RDF xmlns:dc="http://purl.org/dc/elements/1.1/" xmlns:cc="http://creativecommons.org/ns#" xmlns:rdf="http://www.w3.org/1999/02/22-rdf-syntax-ns#">
   <cc:Work>
    <dc:type rdf:resource="http://purl.org/dc/dcmitype/StillImage"/>
    <dc:date>2024-02-09T13:42:35.005965</dc:date>
    <dc:format>image/svg+xml</dc:format>
    <dc:creator>
     <cc:Agent>
      <dc:title>Matplotlib v3.6.2, https://matplotlib.org/</dc:title>
     </cc:Agent>
    </dc:creator>
   </cc:Work>
  </rdf:RDF>
 </metadata>
 <defs>
  <style type="text/css">*{stroke-linejoin: round; stroke-linecap: butt}</style>
 </defs>
 <g id="figure_1">
  <g id="patch_1">
   <path d="M 0 288 
L 288 288 
L 288 0 
L 0 0 
z
" style="fill: #ffffff"/>
  </g>
  <g id="axes_1">
   <g id="patch_2">
    <path d="M 58.97 235.96 
L 259.38 235.96 
L 259.38 10.92 
L 58.97 10.92 
z
" style="fill: #ffffff"/>
   </g>
   <g id="matplotlib.axis_1">
    <g id="xtick_1">
     <g id="line2d_1">
      <defs>
       <path id="m1fc3c63046" d="M 0 0 
L 0 3.5 
" style="stroke: #000000; stroke-width: 0.8"/>
      </defs>
      <g>
       <use xlink:href="#m1fc3c63046" x="59.967065" y="235.96" style="stroke: #000000; stroke-width: 0.8"/>
      </g>
     </g>
     <g id="text_1">
      <!-- 0 -->
      <g transform="translate(55.513315 253.597812) scale(0.14 -0.14)">
       <defs>
        <path id="DejaVuSans-30" d="M 2034 4250 
Q 1547 4250 1301 3770 
Q 1056 3291 1056 2328 
Q 1056 1369 1301 889 
Q 1547 409 2034 409 
Q 2525 409 2770 889 
Q 3016 1369 3016 2328 
Q 3016 3291 2770 3770 
Q 2525 4250 2034 4250 
z
M 2034 4750 
Q 2819 4750 3233 4129 
Q 3647 3509 3647 2328 
Q 3647 1150 3233 529 
Q 2819 -91 2034 -91 
Q 1250 -91 836 529 
Q 422 1150 422 2328 
Q 422 3509 836 4129 
Q 1250 4750 2034 4750 
z
" transform="scale(0.015625)"/>
       </defs>
       <use xlink:href="#DejaVuSans-30"/>
      </g>
     </g>
    </g>
    <g id="xtick_2">
     <g id="line2d_2">
      <g>
       <use xlink:href="#m1fc3c63046" x="159.673532" y="235.96" style="stroke: #000000; stroke-width: 0.8"/>
      </g>
     </g>
     <g id="text_2">
      <!-- 500 -->
      <g transform="translate(146.312282 253.597812) scale(0.14 -0.14)">
       <defs>
        <path id="DejaVuSans-35" d="M 691 4666 
L 3169 4666 
L 3169 4134 
L 1269 4134 
L 1269 2991 
Q 1406 3038 1543 3061 
Q 1681 3084 1819 3084 
Q 2600 3084 3056 2656 
Q 3513 2228 3513 1497 
Q 3513 744 3044 326 
Q 2575 -91 1722 -91 
Q 1428 -91 1123 -41 
Q 819 9 494 109 
L 494 744 
Q 775 591 1075 516 
Q 1375 441 1709 441 
Q 2250 441 2565 725 
Q 2881 1009 2881 1497 
Q 2881 1984 2565 2268 
Q 2250 2553 1709 2553 
Q 1456 2553 1204 2497 
Q 953 2441 691 2322 
L 691 4666 
z
" transform="scale(0.015625)"/>
       </defs>
       <use xlink:href="#DejaVuSans-35"/>
       <use xlink:href="#DejaVuSans-30" x="63.623047"/>
       <use xlink:href="#DejaVuSans-30" x="127.246094"/>
      </g>
     </g>
    </g>
    <g id="xtick_3">
     <g id="line2d_3">
      <g>
       <use xlink:href="#m1fc3c63046" x="259.38" y="235.96" style="stroke: #000000; stroke-width: 0.8"/>
      </g>
     </g>
     <g id="text_3">
      <!-- 1000 -->
      <g transform="translate(241.565 253.597812) scale(0.14 -0.14)">
       <defs>
        <path id="DejaVuSans-31" d="M 794 531 
L 1825 531 
L 1825 4091 
L 703 3866 
L 703 4441 
L 1819 4666 
L 2450 4666 
L 2450 531 
L 3481 531 
L 3481 0 
L 794 0 
L 794 531 
z
" transform="scale(0.015625)"/>
       </defs>
       <use xlink:href="#DejaVuSans-31"/>
       <use xlink:href="#DejaVuSans-30" x="63.623047"/>
       <use xlink:href="#DejaVuSans-30" x="127.246094"/>
       <use xlink:href="#DejaVuSans-30" x="190.869141"/>
      </g>
     </g>
    </g>
    <g id="text_4">
     <!-- time (AU) -->
     <g transform="translate(120.98875 272.666875) scale(0.16 -0.16)">
      <defs>
       <path id="DejaVuSans-74" d="M 1172 4494 
L 1172 3500 
L 2356 3500 
L 2356 3053 
L 1172 3053 
L 1172 1153 
Q 1172 725 1289 603 
Q 1406 481 1766 481 
L 2356 481 
L 2356 0 
L 1766 0 
Q 1100 0 847 248 
Q 594 497 594 1153 
L 594 3053 
L 172 3053 
L 172 3500 
L 594 3500 
L 594 4494 
L 1172 4494 
z
" transform="scale(0.015625)"/>
       <path id="DejaVuSans-69" d="M 603 3500 
L 1178 3500 
L 1178 0 
L 603 0 
L 603 3500 
z
M 603 4863 
L 1178 4863 
L 1178 4134 
L 603 4134 
L 603 4863 
z
" transform="scale(0.015625)"/>
       <path id="DejaVuSans-6d" d="M 3328 2828 
Q 3544 3216 3844 3400 
Q 4144 3584 4550 3584 
Q 5097 3584 5394 3201 
Q 5691 2819 5691 2113 
L 5691 0 
L 5113 0 
L 5113 2094 
Q 5113 2597 4934 2840 
Q 4756 3084 4391 3084 
Q 3944 3084 3684 2787 
Q 3425 2491 3425 1978 
L 3425 0 
L 2847 0 
L 2847 2094 
Q 2847 2600 2669 2842 
Q 2491 3084 2119 3084 
Q 1678 3084 1418 2786 
Q 1159 2488 1159 1978 
L 1159 0 
L 581 0 
L 581 3500 
L 1159 3500 
L 1159 2956 
Q 1356 3278 1631 3431 
Q 1906 3584 2284 3584 
Q 2666 3584 2933 3390 
Q 3200 3197 3328 2828 
z
" transform="scale(0.015625)"/>
       <path id="DejaVuSans-65" d="M 3597 1894 
L 3597 1613 
L 953 1613 
Q 991 1019 1311 708 
Q 1631 397 2203 397 
Q 2534 397 2845 478 
Q 3156 559 3463 722 
L 3463 178 
Q 3153 47 2828 -22 
Q 2503 -91 2169 -91 
Q 1331 -91 842 396 
Q 353 884 353 1716 
Q 353 2575 817 3079 
Q 1281 3584 2069 3584 
Q 2775 3584 3186 3129 
Q 3597 2675 3597 1894 
z
M 3022 2063 
Q 3016 2534 2758 2815 
Q 2500 3097 2075 3097 
Q 1594 3097 1305 2825 
Q 1016 2553 972 2059 
L 3022 2063 
z
" transform="scale(0.015625)"/>
       <path id="DejaVuSans-20" transform="scale(0.015625)"/>
       <path id="DejaVuSans-28" d="M 1984 4856 
Q 1566 4138 1362 3434 
Q 1159 2731 1159 2009 
Q 1159 1288 1364 580 
Q 1569 -128 1984 -844 
L 1484 -844 
Q 1016 -109 783 600 
Q 550 1309 550 2009 
Q 550 2706 781 3412 
Q 1013 4119 1484 4856 
L 1984 4856 
z
" transform="scale(0.015625)"/>
       <path id="DejaVuSans-41" d="M 2188 4044 
L 1331 1722 
L 3047 1722 
L 2188 4044 
z
M 1831 4666 
L 2547 4666 
L 4325 0 
L 3669 0 
L 3244 1197 
L 1141 1197 
L 716 0 
L 50 0 
L 1831 4666 
z
" transform="scale(0.015625)"/>
       <path id="DejaVuSans-55" d="M 556 4666 
L 1191 4666 
L 1191 1831 
Q 1191 1081 1462 751 
Q 1734 422 2344 422 
Q 2950 422 3222 751 
Q 3494 1081 3494 1831 
L 3494 4666 
L 4128 4666 
L 4128 1753 
Q 4128 841 3676 375 
Q 3225 -91 2344 -91 
Q 1459 -91 1007 375 
Q 556 841 556 1753 
L 556 4666 
z
" transform="scale(0.015625)"/>
       <path id="DejaVuSans-29" d="M 513 4856 
L 1013 4856 
Q 1481 4119 1714 3412 
Q 1947 2706 1947 2009 
Q 1947 1309 1714 600 
Q 1481 -109 1013 -844 
L 513 -844 
Q 928 -128 1133 580 
Q 1338 1288 1338 2009 
Q 1338 2731 1133 3434 
Q 928 4138 513 4856 
z
" transform="scale(0.015625)"/>
      </defs>
      <use xlink:href="#DejaVuSans-74"/>
      <use xlink:href="#DejaVuSans-69" x="39.208984"/>
      <use xlink:href="#DejaVuSans-6d" x="66.992188"/>
      <use xlink:href="#DejaVuSans-65" x="164.404297"/>
      <use xlink:href="#DejaVuSans-20" x="225.927734"/>
      <use xlink:href="#DejaVuSans-28" x="257.714844"/>
      <use xlink:href="#DejaVuSans-41" x="296.728516"/>
      <use xlink:href="#DejaVuSans-55" x="365.136719"/>
      <use xlink:href="#DejaVuSans-29" x="438.330078"/>
     </g>
    </g>
   </g>
   <g id="matplotlib.axis_2">
    <g id="ytick_1">
     <g id="line2d_4">
      <defs>
       <path id="m3227efa7a2" d="M 0 0 
L -3.5 0 
" style="stroke: #000000; stroke-width: 0.8"/>
      </defs>
      <g>
       <use xlink:href="#m3227efa7a2" x="58.97" y="230.601905" style="stroke: #000000; stroke-width: 0.8"/>
      </g>
     </g>
     <g id="text_5">
      <!-- −1 -->
      <g transform="translate(31.330937 235.920811) scale(0.14 -0.14)">
       <defs>
        <path id="DejaVuSans-2212" d="M 678 2272 
L 4684 2272 
L 4684 1741 
L 678 1741 
L 678 2272 
z
" transform="scale(0.015625)"/>
       </defs>
       <use xlink:href="#DejaVuSans-2212"/>
       <use xlink:href="#DejaVuSans-31" x="83.789062"/>
      </g>
     </g>
    </g>
    <g id="ytick_2">
     <g id="line2d_5">
      <g>
       <use xlink:href="#m3227efa7a2" x="58.97" y="177.020952" style="stroke: #000000; stroke-width: 0.8"/>
      </g>
     </g>
     <g id="text_6">
      <!-- 0 -->
      <g transform="translate(43.0625 182.339859) scale(0.14 -0.14)">
       <use xlink:href="#DejaVuSans-30"/>
      </g>
     </g>
    </g>
    <g id="ytick_3">
     <g id="line2d_6">
      <g>
       <use xlink:href="#m3227efa7a2" x="58.97" y="123.44" style="stroke: #000000; stroke-width: 0.8"/>
      </g>
     </g>
     <g id="text_7">
      <!-- 1 -->
      <g transform="translate(43.0625 128.758906) scale(0.14 -0.14)">
       <use xlink:href="#DejaVuSans-31"/>
      </g>
     </g>
    </g>
    <g id="ytick_4">
     <g id="line2d_7">
      <g>
       <use xlink:href="#m3227efa7a2" x="58.97" y="69.859048" style="stroke: #000000; stroke-width: 0.8"/>
      </g>
     </g>
     <g id="text_8">
      <!-- 2 -->
      <g transform="translate(43.0625 75.177954) scale(0.14 -0.14)">
       <defs>
        <path id="DejaVuSans-32" d="M 1228 531 
L 3431 531 
L 3431 0 
L 469 0 
L 469 531 
Q 828 903 1448 1529 
Q 2069 2156 2228 2338 
Q 2531 2678 2651 2914 
Q 2772 3150 2772 3378 
Q 2772 3750 2511 3984 
Q 2250 4219 1831 4219 
Q 1534 4219 1204 4116 
Q 875 4013 500 3803 
L 500 4441 
Q 881 4594 1212 4672 
Q 1544 4750 1819 4750 
Q 2544 4750 2975 4387 
Q 3406 4025 3406 3419 
Q 3406 3131 3298 2873 
Q 3191 2616 2906 2266 
Q 2828 2175 2409 1742 
Q 1991 1309 1228 531 
z
" transform="scale(0.015625)"/>
       </defs>
       <use xlink:href="#DejaVuSans-32"/>
      </g>
     </g>
    </g>
    <g id="ytick_5">
     <g id="line2d_8">
      <g>
       <use xlink:href="#m3227efa7a2" x="58.97" y="16.278095" style="stroke: #000000; stroke-width: 0.8"/>
      </g>
     </g>
     <g id="text_9">
      <!-- 3 -->
      <g transform="translate(43.0625 21.597001) scale(0.14 -0.14)">
       <defs>
        <path id="DejaVuSans-33" d="M 2597 2516 
Q 3050 2419 3304 2112 
Q 3559 1806 3559 1356 
Q 3559 666 3084 287 
Q 2609 -91 1734 -91 
Q 1441 -91 1130 -33 
Q 819 25 488 141 
L 488 750 
Q 750 597 1062 519 
Q 1375 441 1716 441 
Q 2309 441 2620 675 
Q 2931 909 2931 1356 
Q 2931 1769 2642 2001 
Q 2353 2234 1838 2234 
L 1294 2234 
L 1294 2753 
L 1863 2753 
Q 2328 2753 2575 2939 
Q 2822 3125 2822 3475 
Q 2822 3834 2567 4026 
Q 2313 4219 1838 4219 
Q 1578 4219 1281 4162 
Q 984 4106 628 3988 
L 628 4550 
Q 988 4650 1302 4700 
Q 1616 4750 1894 4750 
Q 2613 4750 3031 4423 
Q 3450 4097 3450 3541 
Q 3450 3153 3228 2886 
Q 3006 2619 2597 2516 
z
" transform="scale(0.015625)"/>
       </defs>
       <use xlink:href="#DejaVuSans-33"/>
      </g>
     </g>
    </g>
    <g id="text_10">
     <!-- $x_1$ -->
     <g transform="translate(24.003437 132) rotate(-90) scale(0.16 -0.16)">
      <defs>
       <path id="DejaVuSans-Oblique-78" d="M 3841 3500 
L 2234 1784 
L 3219 0 
L 2559 0 
L 1819 1388 
L 531 0 
L -166 0 
L 1556 1844 
L 641 3500 
L 1300 3500 
L 1972 2234 
L 3144 3500 
L 3841 3500 
z
" transform="scale(0.015625)"/>
      </defs>
      <use xlink:href="#DejaVuSans-Oblique-78" transform="translate(0 0.3125)"/>
      <use xlink:href="#DejaVuSans-31" transform="translate(59.179688 -16.09375) scale(0.7)"/>
     </g>
    </g>
   </g>
   <g id="line2d_9">
    <path d="M 59.967065 16.278095 
L 60.565303 77.354561 
L 60.764716 83.937183 
L 60.964129 99.437805 
L 61.163542 101.762238 
L 61.362955 106.396878 
L 61.761781 95.078454 
L 61.961194 94.723125 
L 62.160607 99.86114 
L 62.36002 115.612357 
L 62.758846 98.405508 
L 62.958259 121.499811 
L 63.556498 127.868536 
L 63.75591 129.161128 
L 63.955323 117.0226 
L 64.154736 121.323271 
L 64.354149 117.98525 
L 64.553562 117.673445 
L 64.752975 116.727339 
L 64.952388 107.304615 
L 65.151801 126.537215 
L 65.550627 113.50512 
L 66.547692 143.717713 
L 66.747104 143.115514 
L 67.345343 158.609124 
L 67.544756 158.525194 
L 67.744169 178.040435 
L 68.142995 126.080306 
L 68.342408 132.271906 
L 68.541821 149.468593 
L 68.741234 150.573576 
L 69.14006 165.395479 
L 69.538886 160.40979 
L 69.738299 147.979901 
L 69.937711 154.855855 
L 70.137124 141.580232 
L 70.336537 149.089744 
L 70.53595 164.256197 
L 71.134189 181.769286 
L 71.333602 212.512666 
L 71.732428 220.385317 
L 72.53008 184.483717 
L 72.729493 176.880909 
L 72.928905 163.648397 
L 73.128318 177.141569 
L 73.327731 159.443182 
L 73.527144 166.890133 
L 73.726557 180.230167 
L 73.92597 179.287237 
L 74.125383 179.711629 
L 74.324796 186.199763 
L 74.524209 186.593113 
L 74.723622 181.44502 
L 74.923035 172.330948 
L 75.122448 173.429539 
L 75.321861 175.643649 
L 75.521274 185.779152 
L 75.720687 187.940194 
L 75.9201 172.84384 
L 76.119512 169.67393 
L 76.518338 189.497873 
L 76.717751 185.357178 
L 76.917164 173.369678 
L 77.116577 181.928584 
L 77.31599 183.028913 
L 77.515403 171.186777 
L 77.714816 152.172801 
L 77.914229 158.324144 
L 78.113642 158.316299 
L 78.313055 145.876962 
L 78.512468 146.790842 
L 78.911294 139.807319 
L 79.110706 142.144027 
L 79.310119 129.148011 
L 79.509532 136.589606 
L 79.708945 139.278533 
L 79.908358 137.164075 
L 80.107771 123.23662 
L 80.307184 129.92309 
L 81.104836 170.347187 
L 81.304249 145.476712 
L 81.503662 159.77275 
L 81.703075 157.291012 
L 81.902488 142.737371 
L 82.1019 146.568715 
L 82.301313 135.739936 
L 82.500726 131.304942 
L 82.700139 131.335997 
L 82.899552 131.07571 
L 83.298378 138.290426 
L 83.497791 144.126053 
L 83.697204 145.998127 
L 83.896617 117.684898 
L 84.09603 117.586807 
L 84.295443 116.54528 
L 84.694269 145.322918 
L 84.893682 150.721258 
L 85.49192 181.062534 
L 85.691333 180.798797 
L 85.890746 194.920631 
L 86.090159 185.888718 
L 86.289572 194.750343 
L 86.688398 163.559561 
L 86.887811 169.453964 
L 87.087224 165.845832 
L 87.286637 170.726607 
L 87.48605 178.806587 
L 87.685463 178.947823 
L 87.884876 186.799378 
L 88.084289 187.321211 
L 88.483114 171.170397 
L 88.682527 165.883238 
L 88.88194 166.21479 
L 89.081353 157.623684 
L 89.480179 166.934933 
L 89.679592 160.190842 
L 89.879005 181.189292 
L 90.078418 176.801337 
L 90.277831 157.396428 
L 90.477244 156.045319 
L 90.676657 169.324906 
L 90.87607 168.632317 
L 91.075483 156.448814 
L 91.274896 161.341173 
L 91.474308 181.801392 
L 91.673721 184.560965 
L 92.072547 177.19008 
L 92.27196 189.981891 
L 92.471373 171.151035 
L 92.670786 170.892219 
L 93.069612 150.998513 
L 93.269025 149.987434 
L 93.468438 155.847982 
L 93.667851 166.137939 
L 94.066677 148.494191 
L 94.26609 151.808981 
L 94.465502 140.91613 
L 94.664915 137.953976 
L 95.063741 151.343181 
L 95.462567 155.836494 
L 95.66198 159.500322 
L 95.861393 145.819662 
L 96.060806 152.43601 
L 96.260219 150.983707 
L 96.459632 125.725489 
L 96.659045 138.646418 
L 96.858458 123.45692 
L 97.057871 139.73183 
L 97.257284 145.087672 
L 97.456697 120.984755 
L 97.656109 121.512771 
L 97.855522 97.582581 
L 98.054935 118.765145 
L 98.254348 99.229539 
L 98.453761 104.179433 
L 98.653174 116.783081 
L 98.852587 118.044308 
L 99.052 144.776633 
L 99.251413 143.41715 
L 99.450826 156.226107 
L 99.650239 158.863933 
L 99.849652 135.269415 
L 100.647303 110.997575 
L 100.846716 117.261263 
L 101.046129 100.237182 
L 101.444955 95.122871 
L 101.644368 104.481778 
L 102.043194 130.998892 
L 102.242607 129.687694 
L 102.44202 140.85592 
L 102.641433 132.957093 
L 102.840846 129.959929 
L 103.040259 117.954834 
L 103.239672 116.542355 
L 103.439085 105.316656 
L 103.638498 105.795694 
L 103.83791 107.788872 
L 104.037323 121.973344 
L 104.236736 122.711925 
L 104.436149 125.576226 
L 104.635562 150.374733 
L 104.834975 132.470882 
L 105.034388 149.156524 
L 105.233801 153.142626 
L 105.433214 150.542343 
L 105.632627 138.321746 
L 105.83204 136.132467 
L 106.031453 131.151202 
L 106.230866 130.589693 
L 106.629692 115.574033 
L 106.829104 117.474154 
L 107.22793 142.756727 
L 107.427343 115.48095 
L 107.626756 125.417025 
L 107.826169 125.520605 
L 108.025582 135.629304 
L 108.224995 162.176321 
L 108.424408 159.541407 
L 108.823234 130.297389 
L 109.022647 137.139432 
L 109.421473 128.271527 
L 109.620886 128.723358 
L 110.019711 159.052893 
L 110.219124 128.382095 
L 110.61795 122.693549 
L 110.817363 124.388626 
L 111.016776 116.828578 
L 111.216189 116.355825 
L 111.415602 116.634167 
L 111.615015 118.608425 
L 112.013841 108.811544 
L 112.213254 126.399258 
L 112.412667 132.308333 
L 112.61208 129.958176 
L 112.811493 124.669865 
L 113.010905 130.080698 
L 113.210318 120.211004 
L 113.409731 123.233497 
L 113.808557 119.486788 
L 114.00797 112.697817 
L 114.207383 135.554377 
L 114.406796 127.61669 
L 114.606209 126.070009 
L 114.805622 103.862544 
L 115.005035 108.065559 
L 115.204448 108.539181 
L 115.603274 123.846417 
L 116.0021 116.778955 
L 116.201512 118.662481 
L 116.400925 126.577181 
L 116.600338 119.639803 
L 116.799751 128.790355 
L 117.198577 112.908561 
L 117.597403 120.204355 
L 117.796816 143.768397 
L 117.996229 145.91192 
L 118.195642 150.959859 
L 118.395055 152.773753 
L 118.793881 122.137875 
L 118.993294 121.593424 
L 119.392119 137.277562 
L 119.591532 132.983336 
L 119.790945 141.211702 
L 119.990358 135.267397 
L 120.189771 135.983319 
L 120.389184 146.038818 
L 120.588597 162.994039 
L 120.78801 167.659142 
L 121.186836 171.630822 
L 121.386249 161.873363 
L 121.585662 167.982767 
L 121.785075 165.118389 
L 121.984488 167.945362 
L 122.1839 153.551536 
L 122.383313 148.012805 
L 122.582726 154.893947 
L 122.782139 130.563419 
L 122.981552 144.946201 
L 123.180965 142.58318 
L 123.380378 136.643407 
L 123.579791 135.889163 
L 123.779204 125.283446 
L 123.978617 132.772231 
L 124.17803 150.890086 
L 124.377443 137.645869 
L 124.776269 155.664561 
L 125.175095 181.721784 
L 125.374507 186.783114 
L 125.57392 174.762839 
L 125.773333 172.938893 
L 125.972746 175.886778 
L 126.172159 174.361564 
L 126.371572 169.734578 
L 126.570985 170.012279 
L 126.770398 173.9053 
L 126.969811 172.218488 
L 127.169224 175.849752 
L 127.368637 165.56472 
L 127.56805 173.837126 
L 127.966876 147.652693 
L 128.166289 132.429498 
L 128.365701 134.053076 
L 128.565114 120.646123 
L 128.764527 133.654863 
L 128.96394 135.257416 
L 129.163353 147.350677 
L 129.562179 123.288479 
L 129.761592 122.313291 
L 130.160418 139.603773 
L 130.359831 121.863686 
L 130.758657 115.420475 
L 131.157483 127.904088 
L 131.356896 115.756979 
L 131.556308 128.148085 
L 131.955134 112.063636 
L 132.154547 114.710189 
L 132.35396 130.987136 
L 132.553373 122.961243 
L 132.752786 128.087747 
L 132.952199 124.927837 
L 133.151612 137.058495 
L 133.351025 138.216837 
L 133.550438 145.724787 
L 133.749851 148.924845 
L 133.949264 150.006105 
L 134.148677 159.182069 
L 134.34809 161.966804 
L 134.547502 145.554804 
L 134.746915 153.781615 
L 134.946328 152.082318 
L 135.145741 156.913495 
L 135.345154 164.713147 
L 135.544567 157.332772 
L 135.943393 174.254002 
L 136.142806 168.666258 
L 136.342219 167.874751 
L 136.741045 156.444535 
L 136.940458 169.131444 
L 137.339284 153.667224 
L 137.538697 150.931636 
L 137.738109 144.992251 
L 137.937522 150.10194 
L 138.136935 129.111252 
L 138.336348 128.309787 
L 138.735174 154.977018 
L 139.134 146.042561 
L 139.532826 153.616604 
L 140.131065 119.275405 
L 140.330478 121.334922 
L 140.729303 142.114001 
L 140.928716 161.318124 
L 141.327542 149.81786 
L 141.526955 144.688613 
L 141.726368 147.443051 
L 141.925781 145.485894 
L 142.125194 161.997009 
L 142.324607 154.077342 
L 142.52402 138.650184 
L 142.723433 146.749672 
L 142.922846 149.091976 
L 143.122259 142.306557 
L 143.321672 120.2884 
L 143.91991 147.027509 
L 144.119323 146.76055 
L 144.318736 153.462608 
L 144.518149 138.707207 
L 144.717562 135.477748 
L 144.916975 143.178714 
L 145.116388 114.537513 
L 145.315801 111.743822 
L 145.515214 96.971331 
L 145.714627 97.613081 
L 145.91404 107.114413 
L 146.113453 104.389545 
L 146.512279 140.995049 
L 146.711692 131.267838 
L 146.911104 135.832878 
L 147.110517 152.757373 
L 147.509343 145.124495 
L 147.708756 142.883012 
L 148.107582 124.381259 
L 148.306995 138.691194 
L 148.506408 142.676569 
L 148.705821 150.329772 
L 148.905234 152.528942 
L 149.104647 158.504935 
L 149.503473 133.143246 
L 149.702886 146.618648 
L 149.902299 142.537287 
L 150.301124 127.218116 
L 150.500537 130.730687 
L 150.69995 141.689303 
L 150.899363 133.298516 
L 151.098776 135.973167 
L 151.298189 134.20665 
L 151.497602 135.934063 
L 151.697015 130.301474 
L 151.896428 118.058852 
L 152.095841 115.587874 
L 152.295254 142.164783 
L 152.494667 143.915977 
L 152.69408 157.31818 
L 152.893493 149.25242 
L 153.092905 160.930627 
L 153.292318 132.829206 
L 153.691144 139.677157 
L 153.890557 128.012858 
L 154.08997 108.580993 
L 154.488796 133.553687 
L 154.688209 122.161438 
L 154.887622 136.849038 
L 155.087035 139.878349 
L 155.685274 175.672614 
L 155.884687 162.789512 
L 156.0841 168.906045 
L 156.283512 171.298251 
L 156.482925 162.543525 
L 156.682338 160.721948 
L 156.881751 152.497149 
L 157.081164 134.42503 
L 157.280577 131.278495 
L 157.47999 121.185241 
L 157.679403 119.545085 
L 157.878816 106.203475 
L 158.277642 125.24669 
L 158.477055 122.761913 
L 158.676468 124.766879 
L 158.875881 122.006392 
L 159.075294 110.254139 
L 159.274706 117.076356 
L 159.474119 138.479961 
L 159.673532 140.044174 
L 159.872945 143.613069 
L 160.072358 159.07865 
L 160.271771 157.268541 
L 160.471184 160.840476 
L 160.670597 143.096004 
L 160.87001 151.008283 
L 161.069423 144.96453 
L 161.268836 149.308073 
L 161.468249 149.180984 
L 161.667662 150.645644 
L 161.867075 153.508187 
L 162.2659 147.683652 
L 162.465313 118.985534 
L 162.864139 155.544781 
L 163.063552 150.179885 
L 163.262965 148.733493 
L 163.462378 171.754321 
L 164.26003 149.486711 
L 164.459443 153.025765 
L 164.658856 161.435445 
L 164.858269 154.524382 
L 165.057682 151.614737 
L 165.257095 174.934105 
L 165.456507 165.970866 
L 165.855333 132.849565 
L 166.054746 147.64827 
L 166.254159 154.123512 
L 166.652985 190.495282 
L 166.852398 193.341583 
L 167.051811 205.894742 
L 167.450637 190.400285 
L 167.849463 217.196179 
L 168.248289 201.026202 
L 168.647114 161.365951 
L 168.846527 169.682496 
L 169.245353 149.867228 
L 169.444766 146.726116 
L 169.644179 127.5509 
L 169.843592 122.641978 
L 170.043005 120.49551 
L 170.242418 122.049276 
L 170.441831 127.438467 
L 170.641244 124.360877 
L 171.239483 143.419951 
L 171.438896 126.88294 
L 171.638308 131.108975 
L 171.837721 141.105419 
L 172.037134 133.783411 
L 172.236547 151.765796 
L 172.43596 145.572238 
L 172.834786 165.055731 
L 173.034199 163.995136 
L 173.233612 175.453631 
L 173.433025 171.822247 
L 173.632438 155.938892 
L 173.831851 156.631124 
L 174.031264 148.625936 
L 174.230677 175.493845 
L 174.43009 186.02082 
L 174.828915 162.385825 
L 175.028328 159.095761 
L 175.227741 161.46479 
L 175.626567 181.298228 
L 175.82598 165.476882 
L 176.224806 153.300155 
L 176.424219 137.145989 
L 176.623632 137.259016 
L 176.823045 151.652961 
L 177.022458 150.556817 
L 177.221871 161.944801 
L 177.421284 155.55021 
L 177.620697 161.580968 
L 177.820109 140.608212 
L 178.218935 166.236975 
L 178.418348 149.532301 
L 178.617761 146.802674 
L 178.817174 147.702811 
L 179.016587 136.723495 
L 179.216 140.91485 
L 179.415413 155.655662 
L 179.814239 131.19652 
L 180.013652 151.897055 
L 180.213065 149.218551 
L 180.412478 161.635198 
L 180.611891 159.483623 
L 180.811303 162.113818 
L 181.010716 179.186207 
L 181.210129 171.798689 
L 181.409542 183.90211 
L 181.608955 182.843827 
L 181.808368 186.466526 
L 182.007781 196.934563 
L 182.207194 195.219757 
L 182.406607 190.314865 
L 182.60602 191.217743 
L 182.805433 191.430062 
L 183.004846 188.120624 
L 183.204259 181.819393 
L 183.403672 182.436323 
L 183.802498 164.030378 
L 184.00191 171.638789 
L 184.201323 173.496006 
L 184.600149 163.545001 
L 184.799562 164.298532 
L 184.998975 156.677108 
L 185.198388 167.085076 
L 185.597214 144.324732 
L 185.796627 164.789074 
L 185.99604 155.859211 
L 186.394866 167.84934 
L 186.594279 168.803316 
L 186.793692 167.469155 
L 186.993104 176.371623 
L 187.192517 193.255219 
L 187.39193 192.418239 
L 187.591343 180.702219 
L 187.790756 176.233706 
L 187.990169 180.920761 
L 188.189582 181.708928 
L 188.388995 194.460418 
L 188.787821 189.513792 
L 189.186647 160.860625 
L 189.38606 163.254653 
L 189.585473 135.318978 
L 189.784886 148.243928 
L 189.984299 124.902952 
L 190.183711 125.353081 
L 190.383124 136.530102 
L 190.78195 124.419097 
L 190.981363 132.104932 
L 191.180776 133.885427 
L 191.380189 139.293875 
L 191.779015 143.969352 
L 191.978428 141.490417 
L 192.377254 144.962524 
L 192.576667 137.302626 
L 192.77608 160.211262 
L 192.975493 134.674724 
L 193.174905 142.682653 
L 193.573731 134.711052 
L 193.773144 157.724909 
L 193.972557 141.946994 
L 194.17197 146.146282 
L 194.371383 138.866095 
L 194.570796 117.321145 
L 194.969622 97.541887 
L 195.169035 103.05678 
L 195.368448 125.358088 
L 195.567861 125.222951 
L 195.767274 117.539918 
L 195.966687 120.129253 
L 196.1661 139.308684 
L 196.365512 129.657201 
L 197.362577 174.268388 
L 197.56199 174.462459 
L 197.761403 176.933914 
L 197.960816 183.440712 
L 198.359642 152.581357 
L 198.559055 151.26824 
L 198.957881 158.272146 
L 199.157294 159.211998 
L 199.356706 168.068636 
L 199.556119 168.942453 
L 199.755532 169.098184 
L 199.954945 165.165118 
L 200.154358 175.198253 
L 200.353771 171.043222 
L 200.553184 177.625102 
L 200.752597 178.090539 
L 200.95201 167.37993 
L 201.151423 163.01121 
L 201.350836 161.322973 
L 201.550249 162.584551 
L 201.749662 160.583729 
L 201.949075 160.223808 
L 202.148488 159.283808 
L 202.547313 138.904349 
L 202.746726 143.717126 
L 202.946139 139.826969 
L 203.145552 138.729879 
L 203.344965 122.323913 
L 203.544378 146.943701 
L 203.743791 142.473308 
L 204.142617 116.525531 
L 204.34203 115.036289 
L 204.541443 105.869819 
L 204.740856 103.040844 
L 204.940269 115.388244 
L 205.139682 112.40062 
L 205.339095 99.783872 
L 205.538507 115.679878 
L 205.937333 132.306114 
L 206.336159 107.454827 
L 206.535572 124.142755 
L 206.734985 126.782844 
L 206.934398 123.798381 
L 207.532637 131.732019 
L 207.73205 131.956173 
L 208.130876 152.398313 
L 208.330289 140.161899 
L 208.529701 146.09289 
L 208.729114 140.657554 
L 208.928527 168.492862 
L 209.327353 160.84036 
L 209.726179 170.89711 
L 210.125005 200.474327 
L 210.324418 200.407717 
L 210.523831 202.566377 
L 210.723244 206.025136 
L 210.922657 187.882907 
L 211.12207 188.402694 
L 211.321483 198.983715 
L 211.520896 182.003981 
L 211.720308 203.629311 
L 211.919721 210.976598 
L 212.119134 233.334041 
L 212.318547 229.978465 
L 212.717373 189.780122 
L 212.916786 197.014001 
L 213.116199 176.170027 
L 213.315612 169.624665 
L 213.515025 169.32413 
L 213.714438 161.745391 
L 213.913851 167.595253 
L 214.113264 157.787629 
L 214.312677 159.736599 
L 214.51209 147.925698 
L 214.711502 163.541103 
L 214.910915 160.939102 
L 215.309741 163.415694 
L 215.509154 169.637791 
L 215.708567 163.720319 
L 215.90798 173.966539 
L 216.306806 179.736858 
L 216.506219 175.218523 
L 216.705632 177.417228 
L 216.905045 183.0323 
L 217.104458 179.142233 
L 217.303871 180.524817 
L 217.503284 196.754124 
L 217.902109 174.596184 
L 218.101522 162.962589 
L 218.300935 180.453886 
L 218.500348 186.874763 
L 218.699761 199.64241 
L 218.899174 195.372181 
L 219.098587 182.316581 
L 219.696826 178.276846 
L 219.896239 167.445108 
L 220.095652 170.359784 
L 220.295065 162.134404 
L 220.494478 162.973692 
L 221.092716 134.569975 
L 221.292129 139.883536 
L 221.491542 159.823005 
L 221.690955 149.594009 
L 221.890368 148.845533 
L 222.089781 170.36903 
L 222.289194 163.045398 
L 222.488607 164.844927 
L 222.887433 181.561903 
L 223.086846 183.932126 
L 223.286259 183.888451 
L 223.485672 186.960607 
L 223.685085 169.459089 
L 223.884498 163.344773 
L 224.08391 161.229547 
L 224.283323 163.292247 
L 224.482736 169.148729 
L 224.682149 182.448245 
L 224.881562 171.918971 
L 225.080975 175.567224 
L 225.479801 159.462349 
L 225.878627 170.158371 
L 226.07804 163.873641 
L 226.277453 174.267218 
L 226.476866 173.944224 
L 226.676279 165.807959 
L 226.875692 175.701661 
L 227.075104 174.14439 
L 227.274517 167.84347 
L 227.47393 144.437226 
L 227.673343 163.109505 
L 227.872756 153.952508 
L 228.072169 174.356605 
L 228.271582 175.608466 
L 228.470995 160.034091 
L 228.670408 171.711165 
L 228.869821 172.884329 
L 229.069234 170.952169 
L 229.268647 165.430771 
L 229.46806 188.126639 
L 229.667473 194.306756 
L 229.866886 194.869618 
L 230.066299 206.322042 
L 230.265711 203.933143 
L 230.465124 216.566833 
L 230.664537 213.119812 
L 231.262776 163.253793 
L 231.462189 156.661093 
L 231.661602 161.619158 
L 231.861015 150.350052 
L 232.060428 149.406275 
L 232.259841 147.665806 
L 232.85808 134.091547 
L 233.057493 134.670291 
L 233.256905 130.033716 
L 234.25397 169.493871 
L 234.453383 160.986282 
L 234.652796 180.3652 
L 234.852209 186.958522 
L 235.051622 186.581531 
L 235.251035 191.486442 
L 235.649861 192.495783 
L 235.849274 198.087358 
L 236.048687 213.801534 
L 237.045751 173.292205 
L 237.245164 145.881389 
L 237.444577 134.83733 
L 237.64399 140.732829 
L 237.843403 138.937831 
L 238.042816 121.583243 
L 238.242229 121.288984 
L 238.441642 120.778699 
L 238.641055 138.924894 
L 238.840468 124.574648 
L 239.039881 126.094208 
L 239.239294 128.863944 
L 239.438706 120.974452 
L 239.638119 127.19195 
L 239.837532 125.50448 
L 240.036945 126.929159 
L 240.236358 132.663048 
L 240.435771 129.511333 
L 240.635184 136.950811 
L 240.834597 130.320304 
L 241.03401 151.243029 
L 241.632249 167.413507 
L 241.831662 150.185158 
L 242.031075 153.341403 
L 242.629313 124.957825 
L 243.028139 144.023409 
L 243.825791 129.41133 
L 244.025204 137.272736 
L 244.224617 132.432813 
L 244.42403 119.900254 
L 244.623443 132.342321 
L 244.822856 126.472553 
L 245.221682 173.317005 
L 245.620507 158.003081 
L 245.81992 168.990718 
L 246.019333 168.032728 
L 246.218746 165.972109 
L 246.418159 178.070285 
L 246.617572 157.159212 
L 246.816985 166.583783 
L 247.016398 138.141543 
L 247.215811 134.67375 
L 247.415224 120.46798 
L 247.614637 134.957476 
L 247.81405 117.571772 
L 248.013463 135.662004 
L 248.412289 125.568842 
L 248.611701 126.2999 
L 248.811114 99.950914 
L 249.010527 103.372577 
L 249.20994 98.230367 
L 249.409353 105.367499 
L 249.608766 117.382815 
L 249.808179 115.416074 
L 250.007592 108.442726 
L 250.207005 111.575771 
L 250.406418 120.89615 
L 250.605831 135.514367 
L 251.004657 120.513509 
L 251.20407 134.296414 
L 252.201134 87.916244 
L 252.799373 121.603638 
L 252.998786 121.620206 
L 253.397612 94.902629 
L 253.597025 95.915777 
L 253.995851 111.766261 
L 254.394677 142.92475 
L 254.59409 128.154156 
L 255.192328 166.847719 
L 255.391741 167.205002 
L 255.591154 163.314358 
L 255.790567 172.310738 
L 255.98998 173.332714 
L 256.189393 193.135073 
L 256.388806 186.665759 
L 256.588219 172.39062 
L 256.787632 171.113702 
L 256.987045 167.637966 
L 257.186458 158.870801 
L 257.385871 134.377266 
L 257.585284 152.868824 
L 257.784697 146.066066 
L 257.984109 150.692942 
L 258.183522 148.568019 
L 258.582348 165.340502 
L 258.781761 158.623492 
L 258.981174 161.888212 
L 259.38 154.436452 
L 259.579413 153.254551 
L 259.579413 153.254551 
" clip-path="url(#p7e79768582)" style="fill: none; stroke: #1f77b4; stroke-width: 2.5; stroke-linecap: square"/>
   </g>
   <g id="line2d_10">
    <path d="M 59.967065 16.278095 
L 65.550627 45.707057 
L 68.741234 61.357706 
L 71.533015 74.032706 
L 74.125383 84.86299 
L 76.717751 94.752482 
L 79.110706 103.035396 
L 81.503662 110.509588 
L 83.697204 116.662782 
L 85.890746 122.167647 
L 88.084289 127.050148 
L 90.078418 130.975693 
L 92.072547 134.441394 
L 94.066677 137.47807 
L 96.060806 140.118587 
L 98.054935 142.397043 
L 100.049065 144.347959 
L 102.043194 146.005556 
L 104.236736 147.529733 
L 106.430279 148.781241 
L 108.823234 149.881491 
L 111.415602 150.813331 
L 114.207383 151.572204 
L 117.39799 152.197851 
L 121.186836 152.69467 
L 125.773333 153.054543 
L 131.955134 153.294065 
L 141.726368 153.417113 
L 168.846527 153.445287 
L 259.579413 153.445327 
L 259.579413 153.445327 
" clip-path="url(#p7e79768582)" style="fill: none; stroke: #ff0000; stroke-width: 3; stroke-linecap: square"/>
   </g>
   <g id="patch_3">
    <path d="M 58.97 235.96 
L 58.97 10.92 
" style="fill: none; stroke: #000000; stroke-width: 0.8; stroke-linejoin: miter; stroke-linecap: square"/>
   </g>
   <g id="patch_4">
    <path d="M 259.38 235.96 
L 259.38 10.92 
" style="fill: none; stroke: #000000; stroke-width: 0.8; stroke-linejoin: miter; stroke-linecap: square"/>
   </g>
   <g id="patch_5">
    <path d="M 58.97 235.96 
L 259.38 235.96 
" style="fill: none; stroke: #000000; stroke-width: 0.8; stroke-linejoin: miter; stroke-linecap: square"/>
   </g>
   <g id="patch_6">
    <path d="M 58.97 10.92 
L 259.38 10.92 
" style="fill: none; stroke: #000000; stroke-width: 0.8; stroke-linejoin: miter; stroke-linecap: square"/>
   </g>
   <g id="legend_1">
    <g id="patch_7">
     <path d="M 164.707188 63.21875 
L 249.58 63.21875 
Q 252.38 63.21875 252.38 60.41875 
L 252.38 20.72 
Q 252.38 17.92 249.58 17.92 
L 164.707188 17.92 
Q 161.907188 17.92 161.907188 20.72 
L 161.907188 60.41875 
Q 161.907188 63.21875 164.707188 63.21875 
z
" style="fill: #ffffff; opacity: 0.8; stroke: #cccccc; stroke-linejoin: miter"/>
    </g>
    <g id="line2d_11">
     <path d="M 167.507188 29.257812 
L 181.507188 29.257812 
L 195.507188 29.257812 
" style="fill: none; stroke: #1f77b4; stroke-width: 2.5; stroke-linecap: square"/>
    </g>
    <g id="text_11">
     <!-- MCPC -->
     <g transform="translate(206.707188 34.157812) scale(0.14 -0.14)">
      <defs>
       <path id="DejaVuSans-4d" d="M 628 4666 
L 1569 4666 
L 2759 1491 
L 3956 4666 
L 4897 4666 
L 4897 0 
L 4281 0 
L 4281 4097 
L 3078 897 
L 2444 897 
L 1241 4097 
L 1241 0 
L 628 0 
L 628 4666 
z
" transform="scale(0.015625)"/>
       <path id="DejaVuSans-43" d="M 4122 4306 
L 4122 3641 
Q 3803 3938 3442 4084 
Q 3081 4231 2675 4231 
Q 1875 4231 1450 3742 
Q 1025 3253 1025 2328 
Q 1025 1406 1450 917 
Q 1875 428 2675 428 
Q 3081 428 3442 575 
Q 3803 722 4122 1019 
L 4122 359 
Q 3791 134 3420 21 
Q 3050 -91 2638 -91 
Q 1578 -91 968 557 
Q 359 1206 359 2328 
Q 359 3453 968 4101 
Q 1578 4750 2638 4750 
Q 3056 4750 3426 4639 
Q 3797 4528 4122 4306 
z
" transform="scale(0.015625)"/>
       <path id="DejaVuSans-50" d="M 1259 4147 
L 1259 2394 
L 2053 2394 
Q 2494 2394 2734 2622 
Q 2975 2850 2975 3272 
Q 2975 3691 2734 3919 
Q 2494 4147 2053 4147 
L 1259 4147 
z
M 628 4666 
L 2053 4666 
Q 2838 4666 3239 4311 
Q 3641 3956 3641 3272 
Q 3641 2581 3239 2228 
Q 2838 1875 2053 1875 
L 1259 1875 
L 1259 0 
L 628 0 
L 628 4666 
z
" transform="scale(0.015625)"/>
      </defs>
      <use xlink:href="#DejaVuSans-4d"/>
      <use xlink:href="#DejaVuSans-43" x="86.279297"/>
      <use xlink:href="#DejaVuSans-50" x="156.103516"/>
      <use xlink:href="#DejaVuSans-43" x="216.40625"/>
     </g>
    </g>
    <g id="line2d_12">
     <path d="M 167.507188 49.807187 
L 181.507188 49.807187 
L 195.507188 49.807187 
" style="fill: none; stroke: #ff0000; stroke-width: 3; stroke-linecap: square"/>
    </g>
    <g id="text_12">
     <!-- PC -->
     <g transform="translate(206.707188 54.707187) scale(0.14 -0.14)">
      <use xlink:href="#DejaVuSans-50"/>
      <use xlink:href="#DejaVuSans-43" x="60.302734"/>
     </g>
    </g>
   </g>
  </g>
 </g>
 <defs>
  <clipPath id="p7e79768582">
   <rect x="58.97" y="10.92" width="200.41" height="225.04"/>
  </clipPath>
 </defs>
</svg>
