<?xml version="1.0" encoding="utf-8" standalone="no"?>
<!DOCTYPE svg PUBLIC "-//W3C//DTD SVG 1.1//EN"
  "http://www.w3.org/Graphics/SVG/1.1/DTD/svg11.dtd">
<svg xmlns:xlink="http://www.w3.org/1999/xlink" width="324pt" height="288pt" viewBox="0 0 324 288" xmlns="http://www.w3.org/2000/svg" version="1.1">
 <metadata>
  <rdf:RDF xmlns:dc="http://purl.org/dc/elements/1.1/" xmlns:cc="http://creativecommons.org/ns#" xmlns:rdf="http://www.w3.org/1999/02/22-rdf-syntax-ns#">
   <cc:Work>
    <dc:type rdf:resource="http://purl.org/dc/dcmitype/StillImage"/>
    <dc:date>2024-02-09T11:45:17.963692</dc:date>
    <dc:format>image/svg+xml</dc:format>
    <dc:creator>
     <cc:Agent>
      <dc:title>Matplotlib v3.6.2, https://matplotlib.org/</dc:title>
     </cc:Agent>
    </dc:creator>
   </cc:Work>
  </rdf:RDF>
 </metadata>
 <defs>
  <style type="text/css">*{stroke-linejoin: round; stroke-linecap: butt}</style>
 </defs>
 <g id="figure_1">
  <g id="patch_1">
   <path d="M 0 288 
L 324 288 
L 324 0 
L 0 0 
z
" style="fill: #ffffff"/>
  </g>
  <g id="axes_1">
   <g id="patch_2">
    <path d="M 70.76 233.08 
L 304.29 233.08 
L 304.29 16.2 
L 70.76 16.2 
z
" style="fill: #ffffff"/>
   </g>
   <g id="Quiver_1">
    <path d="M 70.092302 233.060368 
L 70.578398 216.528139 
L 69.22337 217.156573 
L 71.422787 210.538492 
L 73.229557 217.274366 
L 71.913794 216.567404 
L 71.427698 233.099632 
L 70.092302 233.060368 
" clip-path="url(#pab5eddab7c)" style="fill: #808080"/>
    <path d="M 93.445728 233.049105 
L 94.202945 216.694494 
L 92.837508 217.299976 
L 95.148268 210.719945 
L 96.841137 217.485344 
L 95.537488 216.756283 
L 94.780272 233.110895 
L 93.445728 233.049105 
" clip-path="url(#pab5eddab7c)" style="fill: #808080"/>
    <path d="M 116.800512 233.022282 
L 118.189336 217.009242 
L 116.800641 217.559294 
L 119.374289 211.077568 
L 120.79357 217.905603 
L 119.520312 217.124679 
L 118.131488 233.137718 
L 116.800512 233.022282 
" clip-path="url(#pab5eddab7c)" style="fill: #808080"/>
    <path d="M 140.167164 232.934001 
L 143.579866 217.697492 
L 142.130195 218.057329 
L 145.545697 211.976969 
L 146.04121 218.933326 
L 144.883538 217.989491 
L 141.470836 233.225999 
L 140.167164 232.934001 
" clip-path="url(#pab5eddab7c)" style="fill: #808080"/>
    <path d="M 163.744366 232.566839 
L 180.099079 218.93791 
L 178.730649 218.339222 
L 185.145166 215.602362 
L 181.296456 221.41819 
L 180.954348 219.964233 
L 164.599634 233.593161 
L 163.744366 232.566839 
" clip-path="url(#pab5eddab7c)" style="fill: #808080"/>
    <path d="M 210.35639 233.497288 
L 198.658069 218.874386 
L 198.032137 220.230571 
L 195.424088 213.76261 
L 201.161795 217.726844 
L 199.701288 218.03981 
L 211.39961 232.662712 
L 210.35639 233.497288 
" clip-path="url(#pab5eddab7c)" style="fill: #808080"/>
    <path d="M 233.566697 233.150052 
L 231.857689 216.943542 
L 230.599135 217.747949 
L 231.891524 210.894763 
L 234.584953 217.327637 
L 233.186295 216.803438 
L 234.895303 233.009948 
L 233.566697 233.150052 
" clip-path="url(#pab5eddab7c)" style="fill: #808080"/>
    <path d="M 256.91636 233.101495 
L 256.377412 216.361982 
L 255.063627 217.072613 
L 256.851593 210.331723 
L 259.069469 216.94364 
L 257.712693 216.318991 
L 258.25164 233.058505 
L 256.91636 233.101495 
" clip-path="url(#pab5eddab7c)" style="fill: #808080"/>
    <path d="M 280.269091 233.09018 
L 280.011271 216.175227 
L 278.685634 216.863496 
L 280.587556 210.153867 
L 282.693086 216.802414 
L 281.347088 216.154866 
L 281.604909 233.06982 
L 280.269091 233.09018 
" clip-path="url(#pab5eddab7c)" style="fill: #808080"/>
    <path d="M 303.622043 233.086286 
L 303.462197 216.101005 
L 302.13257 216.781533 
L 304.07358 210.083108 
L 306.140311 216.743817 
L 304.798111 216.088433 
L 304.957957 233.073714 
L 303.622043 233.086286 
" clip-path="url(#pab5eddab7c)" style="fill: #808080"/>
    <path d="M 70.092311 211.372067 
L 70.449909 199.393599 
L 69.094598 200.021422 
L 71.296992 193.404332 
L 73.100732 200.141019 
L 71.785286 199.433464 
L 71.427689 211.411933 
L 70.092311 211.372067 
" clip-path="url(#pab5eddab7c)" style="fill: #808080"/>
    <path d="M 93.445702 211.36169 
L 93.982842 199.535939 
L 92.617936 200.142618 
L 94.922926 193.560563 
L 96.621726 200.324476 
L 95.317439 199.596558 
L 94.780298 211.42231 
L 93.445702 211.36169 
" clip-path="url(#pab5eddab7c)" style="fill: #808080"/>
    <path d="M 116.800219 211.337763 
L 117.739939 199.802428 
L 116.35414 200.359734 
L 118.893857 193.864639 
L 120.348824 200.685159 
L 119.0715 199.910903 
L 118.131781 211.446237 
L 116.800219 211.337763 
" clip-path="url(#pab5eddab7c)" style="fill: #808080"/>
    <path d="M 140.16389 211.261475 
L 142.331276 200.383261 
L 140.890532 200.777321 
L 144.161109 194.617796 
L 144.821191 201.56047 
L 143.641496 200.644311 
L 141.47411 211.522525 
L 140.16389 211.261475 
" clip-path="url(#pab5eddab7c)" style="fill: #808080"/>
    <path d="M 163.699662 210.919662 
L 173.246759 201.372566 
L 171.829746 200.900228 
L 177.970135 197.593865 
L 174.663772 203.734254 
L 174.191434 202.317241 
L 164.644338 211.864338 
L 163.699662 210.919662 
" clip-path="url(#pab5eddab7c)" style="fill: #808080"/>
    <path d="M 210.305206 211.735676 
L 204.01556 201.252931 
L 203.213649 202.513077 
L 201.495268 195.754113 
L 206.65041 200.45102 
L 205.161147 200.565579 
L 211.450794 211.048324 
L 210.305206 211.735676 
" clip-path="url(#pab5eddab7c)" style="fill: #808080"/>
    <path d="M 233.565152 211.44541 
L 232.613512 199.581629 
L 231.335227 200.354297 
L 232.798668 193.535589 
L 235.330313 200.033835 
L 233.945207 199.474808 
L 234.896848 211.33859 
L 233.565152 211.44541 
" clip-path="url(#pab5eddab7c)" style="fill: #808080"/>
    <path d="M 256.916251 211.409802 
L 256.589315 199.146337 
L 255.271619 199.84969 
L 257.096849 193.118794 
L 259.278114 199.742879 
L 257.924814 199.110734 
L 258.251749 211.374198 
L 256.916251 211.409802 
" clip-path="url(#pab5eddab7c)" style="fill: #808080"/>
    <path d="M 280.269081 211.401485 
L 280.093182 199.015242 
L 278.766829 199.702132 
L 280.675734 192.994486 
L 282.774343 199.64522 
L 281.42902 198.996272 
L 281.604919 211.382515 
L 280.269081 211.401485 
" clip-path="url(#pab5eddab7c)" style="fill: #808080"/>
    <path d="M 303.622045 211.398515 
L 303.500785 198.967054 
L 302.171391 199.64804 
L 304.110101 192.948948 
L 306.179119 199.608947 
L 304.836694 198.954023 
L 304.957955 211.385485 
L 303.622045 211.398515 
" clip-path="url(#pab5eddab7c)" style="fill: #808080"/>
    <path d="M 70.092354 189.682668 
L 70.329596 182.25765 
L 68.972972 182.882631 
L 71.189233 176.270172 
L 72.978846 183.010625 
L 71.664887 182.300315 
L 71.427646 189.725332 
L 70.092354 189.682668 
" clip-path="url(#pab5eddab7c)" style="fill: #808080"/>
    <path d="M 93.445737 189.67293 
L 93.785528 182.375483 
L 92.419931 182.980607 
L 94.732419 176.401182 
L 96.423512 183.167026 
L 95.120055 182.437623 
L 94.780263 189.73507 
L 93.445737 189.67293 
" clip-path="url(#pab5eddab7c)" style="fill: #808080"/>
    <path d="M 116.800076 189.651549 
L 117.356073 182.592574 
L 115.971774 183.153595 
L 118.494057 176.65171 
L 119.967317 183.468302 
L 118.68792 182.697476 
L 118.131924 189.756451 
L 116.800076 189.651549 
" clip-path="url(#pab5eddab7c)" style="fill: #808080"/>
    <path d="M 140.161322 189.587098 
L 141.321364 183.060819 
L 139.889108 183.484693 
L 143.031158 177.258623 
L 143.835173 184.186104 
L 142.636719 183.294623 
L 141.476678 189.820902 
L 140.161322 189.587098 
" clip-path="url(#pab5eddab7c)" style="fill: #808080"/>
    <path d="M 163.65039 189.286712 
L 167.989707 183.862567 
L 166.529199 183.549601 
L 172.266906 179.585367 
L 169.658858 186.053328 
L 169.032926 184.697142 
L 164.69361 190.121288 
L 163.65039 189.286712 
" clip-path="url(#pab5eddab7c)" style="fill: #808080"/>
    <path d="M 210.25779 189.952084 
L 207.707192 183.575588 
L 206.714856 184.691965 
L 206.094646 177.745616 
L 210.436115 183.203462 
L 208.947611 183.07942 
L 211.49821 189.455916 
L 210.25779 189.952084 
" clip-path="url(#pab5eddab7c)" style="fill: #808080"/>
    <path d="M 233.564121 189.742444 
L 233.130288 182.216773 
L 231.834973 182.960539 
L 233.451175 176.176416 
L 235.836248 182.729877 
L 234.464046 182.139885 
L 234.897879 189.665556 
L 233.564121 189.742444 
" clip-path="url(#pab5eddab7c)" style="fill: #808080"/>
    <path d="M 256.916196 189.71961 
L 256.734156 181.93171 
L 255.414158 182.630733 
L 257.261472 175.905865 
L 259.420982 182.537075 
L 258.069764 181.90049 
L 258.251804 189.68839 
L 256.916196 189.71961 
" clip-path="url(#pab5eddab7c)" style="fill: #808080"/>
    <path d="M 280.269089 189.714013 
L 280.151285 181.85632 
L 278.825476 182.544258 
L 280.729075 175.835105 
L 282.832944 182.484178 
L 281.487108 181.836293 
L 281.604911 189.693987 
L 280.269089 189.714013 
" clip-path="url(#pab5eddab7c)" style="fill: #808080"/>
    <path d="M 303.622059 189.711762 
L 303.530508 181.834021 
L 302.202388 182.517488 
L 304.128587 175.814788 
L 306.210035 182.470913 
L 304.86639 181.818497 
L 304.957941 189.696238 
L 303.622059 189.711762 
" clip-path="url(#pab5eddab7c)" style="fill: #808080"/>
    <path d="M 70.092501 167.990479 
L 70.202326 165.117979 
L 68.841808 165.734437 
L 71.099509 159.136012 
L 72.8468 165.88756 
L 71.537323 165.16902 
L 71.427499 168.041521 
L 70.092501 167.990479 
" clip-path="url(#pab5eddab7c)" style="fill: #808080"/>
    <path d="M 93.445945 167.980744 
L 93.592386 165.210042 
L 92.223019 165.806585 
L 94.576748 159.241801 
L 96.225351 166.018123 
L 94.926497 165.280555 
L 94.780055 168.051256 
L 93.445945 167.980744 
" clip-path="url(#pab5eddab7c)" style="fill: #808080"/>
    <path d="M 116.800283 167.96098 
L 117.013992 165.37521 
L 115.627539 165.930886 
L 118.174889 159.438781 
L 119.621838 166.261007 
L 118.345425 165.48525 
L 118.131717 168.07102 
L 116.800283 167.96098 
" clip-path="url(#pab5eddab7c)" style="fill: #808080"/>
    <path d="M 140.159894 167.907441 
L 140.51971 165.722846 
L 139.092939 166.164834 
L 142.155844 159.89945 
L 143.047575 166.816186 
L 141.837922 165.939963 
L 141.478106 168.124559 
L 140.159894 167.907441 
" clip-path="url(#pab5eddab7c)" style="fill: #808080"/>
    <path d="M 163.599206 167.672324 
L 164.369599 166.388336 
L 162.880336 166.273777 
L 168.035478 161.57687 
L 166.317097 168.335834 
L 165.515186 167.075688 
L 164.744794 168.359676 
L 163.599206 167.672324 
" clip-path="url(#pab5eddab7c)" style="fill: #808080"/>
    <path d="M 210.222985 168.147003 
L 209.746235 165.763252 
L 208.567209 166.680273 
L 209.222224 159.737119 
L 212.497296 165.894255 
L 211.056264 165.501246 
L 211.533015 167.884997 
L 210.222985 168.147003 
" clip-path="url(#pab5eddab7c)" style="fill: #808080"/>
    <path d="M 233.563589 168.043713 
L 233.431047 164.851657 
L 232.123937 165.574493 
L 233.849045 158.817243 
L 236.128404 165.408218 
L 234.765869 164.796232 
L 234.898411 167.988287 
L 233.563589 168.043713 
" clip-path="url(#pab5eddab7c)" style="fill: #808080"/>
    <path d="M 256.916232 168.033085 
L 256.831463 164.719931 
L 255.513013 165.421869 
L 257.345464 158.692936 
L 259.51962 165.319358 
L 258.166999 164.685761 
L 258.251768 167.998915 
L 256.916232 168.033085 
" clip-path="url(#pab5eddab7c)" style="fill: #808080"/>
    <path d="M 280.269151 168.029544 
L 280.201627 164.699909 
L 278.879473 165.394845 
L 280.747582 158.675724 
L 282.886567 165.313583 
L 281.537325 164.672821 
L 281.604849 168.002456 
L 280.269151 168.029544 
" clip-path="url(#pab5eddab7c)" style="fill: #808080"/>
    <path d="M 303.622113 168.027516 
L 303.564793 164.703127 
L 302.240535 165.394046 
L 304.129038 158.680628 
L 306.247857 165.324951 
L 304.900567 164.680096 
L 304.957887 168.004484 
L 303.622113 168.027516 
" clip-path="url(#pab5eddab7c)" style="fill: #808080"/>
    <path d="M 70.327385 146.301218 
L 70.354167 145.868603 
L 69.462156 146.247654 
L 71.02782 142.001852 
L 72.057844 146.408346 
L 71.219397 145.922167 
L 71.192615 146.354782 
L 70.327385 146.301218 
" clip-path="url(#pab5eddab7c)" style="fill: #808080"/>
    <path d="M 93.688442 146.293709 
L 93.722733 145.869151 
L 92.839326 146.225126 
L 94.455912 142.08242 
L 95.386674 146.430874 
L 94.571849 145.937733 
L 94.537558 146.362291 
L 93.688442 146.293709 
" clip-path="url(#pab5eddab7c)" style="fill: #808080"/>
    <path d="M 117.055785 146.280965 
L 117.10282 145.87075 
L 116.235355 146.186894 
L 117.936353 142.225852 
L 118.696645 146.469106 
L 117.92325 145.96482 
L 117.876215 146.375035 
L 117.055785 146.280965 
" clip-path="url(#pab5eddab7c)" style="fill: #808080"/>
    <path d="M 140.440228 146.256383 
L 140.511844 145.877611 
L 139.682683 146.11315 
L 141.535166 142.540277 
L 141.955317 146.54285 
L 141.269389 146.020844 
L 141.197772 146.399617 
L 140.440228 146.256383 
" clip-path="url(#pab5eddab7c)" style="fill: #808080"/>
    <path d="M 163.896037 146.217615 
L 164.006422 145.941652 
L 163.344112 145.996845 
L 165.275851 143.568373 
L 164.999888 146.659155 
L 164.558348 146.162422 
L 164.447963 146.438385 
L 163.896037 146.217615 
" clip-path="url(#pab5eddab7c)" style="fill: #808080"/>
    <path d="M 210.418062 146.328 
L 210.418062 145.868062 
L 209.498186 146.328 
L 210.878 141.728622 
L 212.257814 146.328 
L 211.337938 145.868062 
L 211.337938 146.328 
L 210.418062 146.328 
" clip-path="url(#pab5eddab7c)" style="fill: #808080"/>
    <path d="M 233.744007 146.351872 
L 233.720135 145.864879 
L 232.770021 146.399617 
L 233.992278 141.45807 
L 235.691979 146.256383 
L 234.694121 145.817135 
L 234.717993 146.304128 
L 233.744007 146.351872 
" clip-path="url(#pab5eddab7c)" style="fill: #808080"/>
    <path d="M 257.099201 146.351518 
L 257.075683 145.866718 
L 256.129602 146.398553 
L 257.348824 141.480006 
L 259.038398 146.257447 
L 258.045282 145.819683 
L 258.068799 146.304482 
L 257.099201 146.351518 
" clip-path="url(#pab5eddab7c)" style="fill: #808080"/>
    <path d="M 280.455834 146.348575 
L 280.43526 145.867409 
L 279.493503 146.389724 
L 280.731253 141.516343 
L 282.380497 146.266276 
L 281.397591 145.82626 
L 281.418166 146.307425 
L 280.455834 146.348575 
" clip-path="url(#pab5eddab7c)" style="fill: #808080"/>
    <path d="M 303.811847 146.345855 
L 303.793992 145.867701 
L 302.85554 146.381564 
L 304.111453 141.546468 
L 305.72446 146.274436 
L 304.750299 145.831992 
L 304.768153 146.310145 
L 303.811847 146.345855 
" clip-path="url(#pab5eddab7c)" style="fill: #808080"/>
    <path d="M 71.217664 125.126569 
L 71.410213 124.486936 
L 70.952549 124.000367 
L 70.302336 124.153431 
L 70.109787 124.793064 
L 70.567451 125.279633 
L 71.217664 125.126569 
L 71.410213 124.486936 
" clip-path="url(#pab5eddab7c)" style="fill: #808080"/>
    <path d="M 94.561957 125.134614 
L 94.765827 124.498499 
L 94.31687 124.003884 
L 93.664043 124.145386 
L 93.460173 124.781501 
L 93.90913 125.276116 
L 94.561957 125.134614 
L 94.765827 124.498499 
" clip-path="url(#pab5eddab7c)" style="fill: #808080"/>
    <path d="M 117.894994 125.152025 
L 118.123924 124.524493 
L 117.69493 124.012468 
L 117.037006 124.127975 
L 116.808076 124.755507 
L 117.23707 125.267532 
L 117.894994 125.152025 
L 118.123924 124.524493 
" clip-path="url(#pab5eddab7c)" style="fill: #808080"/>
    <path d="M 141.181884 125.200821 
L 141.486128 124.606144 
L 141.123243 124.045322 
L 140.456116 124.079179 
L 140.151872 124.673856 
L 140.514757 125.234678 
L 141.181884 125.200821 
L 141.486128 124.606144 
" clip-path="url(#pab5eddab7c)" style="fill: #808080"/>
    <path d="M 164.040997 125.295015 
L 164.673758 125.080959 
L 164.804761 124.425945 
L 164.303003 123.984985 
L 163.670242 124.199041 
L 163.539239 124.854055 
L 164.040997 125.295015 
L 164.673758 125.080959 
" clip-path="url(#pab5eddab7c)" style="fill: #808080"/>
    <path d="M 211.009003 123.984985 
L 210.376242 124.199041 
L 210.245239 124.854055 
L 210.746997 125.295015 
L 211.379758 125.080959 
L 211.510761 124.425945 
L 211.009003 123.984985 
L 210.376242 124.199041 
" clip-path="url(#pab5eddab7c)" style="fill: #808080"/>
    <path d="M 233.868116 124.079179 
L 233.563872 124.673856 
L 233.926757 125.234678 
L 234.593884 125.200821 
L 234.898128 124.606144 
L 234.535243 124.045322 
L 233.868116 124.079179 
L 233.563872 124.673856 
" clip-path="url(#pab5eddab7c)" style="fill: #808080"/>
    <path d="M 257.155006 124.127975 
L 256.926076 124.755507 
L 257.35507 125.267532 
L 258.012994 125.152025 
L 258.241924 124.524493 
L 257.81293 124.012468 
L 257.155006 124.127975 
L 256.926076 124.755507 
" clip-path="url(#pab5eddab7c)" style="fill: #808080"/>
    <path d="M 280.488043 124.145386 
L 280.284173 124.781501 
L 280.73313 125.276116 
L 281.385957 125.134614 
L 281.589827 124.498499 
L 281.14087 124.003884 
L 280.488043 124.145386 
L 280.284173 124.781501 
" clip-path="url(#pab5eddab7c)" style="fill: #808080"/>
    <path d="M 303.832336 124.153431 
L 303.639787 124.793064 
L 304.097451 125.279633 
L 304.747664 125.126569 
L 304.940213 124.486936 
L 304.482549 124.000367 
L 303.832336 124.153431 
L 303.639787 124.793064 
" clip-path="url(#pab5eddab7c)" style="fill: #808080"/>
    <path d="M 71.238153 102.934145 
L 71.256008 103.412299 
L 72.19446 102.898436 
L 70.938547 107.733532 
L 69.32554 103.005564 
L 70.299701 103.448008 
L 70.281847 102.969855 
L 71.238153 102.934145 
" clip-path="url(#pab5eddab7c)" style="fill: #808080"/>
    <path d="M 94.594166 102.931425 
L 94.61474 103.412591 
L 95.556497 102.890276 
L 94.318747 107.763657 
L 92.669503 103.013724 
L 93.652409 103.45374 
L 93.631834 102.972575 
L 94.594166 102.931425 
" clip-path="url(#pab5eddab7c)" style="fill: #808080"/>
    <path d="M 117.950799 102.928482 
L 117.974317 103.413282 
L 118.920398 102.881447 
L 117.701176 107.799994 
L 116.011602 103.022553 
L 117.004718 103.460317 
L 116.981201 102.975518 
L 117.950799 102.928482 
" clip-path="url(#pab5eddab7c)" style="fill: #808080"/>
    <path d="M 141.305993 102.928128 
L 141.329865 103.415121 
L 142.279979 102.880383 
L 141.057722 107.82193 
L 139.358021 103.023617 
L 140.355879 103.462865 
L 140.332007 102.975872 
L 141.305993 102.928128 
" clip-path="url(#pab5eddab7c)" style="fill: #808080"/>
    <path d="M 164.631938 102.952 
L 164.631938 103.411938 
L 165.551814 102.952 
L 164.172 107.551378 
L 162.792186 102.952 
L 163.712062 103.411938 
L 163.712062 102.952 
L 164.631938 102.952 
" clip-path="url(#pab5eddab7c)" style="fill: #808080"/>
    <path d="M 211.153963 103.062385 
L 211.043578 103.338348 
L 211.705888 103.283155 
L 209.774149 105.711627 
L 210.050112 102.620845 
L 210.491652 103.117578 
L 210.602037 102.841615 
L 211.153963 103.062385 
" clip-path="url(#pab5eddab7c)" style="fill: #808080"/>
    <path d="M 234.609772 103.023617 
L 234.538156 103.402389 
L 235.367317 103.16685 
L 233.514834 106.739723 
L 233.094683 102.73715 
L 233.780611 103.259156 
L 233.852228 102.880383 
L 234.609772 103.023617 
" clip-path="url(#pab5eddab7c)" style="fill: #808080"/>
    <path d="M 257.994215 102.999035 
L 257.94718 103.40925 
L 258.814645 103.093106 
L 257.113647 107.054148 
L 256.353355 102.810894 
L 257.12675 103.31518 
L 257.173785 102.904965 
L 257.994215 102.999035 
" clip-path="url(#pab5eddab7c)" style="fill: #808080"/>
    <path d="M 281.361558 102.986291 
L 281.327267 103.410849 
L 282.210674 103.054874 
L 280.594088 107.19758 
L 279.663326 102.849126 
L 280.478151 103.342267 
L 280.512442 102.917709 
L 281.361558 102.986291 
" clip-path="url(#pab5eddab7c)" style="fill: #808080"/>
    <path d="M 304.722615 102.978782 
L 304.695833 103.411397 
L 305.587844 103.032346 
L 304.02218 107.278148 
L 302.992156 102.871654 
L 303.830603 103.357833 
L 303.857385 102.925218 
L 304.722615 102.978782 
" clip-path="url(#pab5eddab7c)" style="fill: #808080"/>
    <path d="M 71.427887 81.252484 
L 71.485207 84.576873 
L 72.809465 83.885954 
L 70.920962 90.599372 
L 68.802143 83.955049 
L 70.149433 84.599904 
L 70.092113 81.275516 
L 71.427887 81.252484 
" clip-path="url(#pab5eddab7c)" style="fill: #808080"/>
    <path d="M 94.780849 81.250456 
L 94.848373 84.580091 
L 96.170527 83.885155 
L 94.302418 90.604276 
L 92.163433 83.966417 
L 93.512675 84.607179 
L 93.445151 81.277544 
L 94.780849 81.250456 
" clip-path="url(#pab5eddab7c)" style="fill: #808080"/>
    <path d="M 118.133768 81.246915 
L 118.218537 84.560069 
L 119.536987 83.858131 
L 117.704536 90.587064 
L 115.53038 83.960642 
L 116.883001 84.594239 
L 116.798232 81.281085 
L 118.133768 81.246915 
" clip-path="url(#pab5eddab7c)" style="fill: #808080"/>
    <path d="M 141.486411 81.236287 
L 141.618953 84.428343 
L 142.926063 83.705507 
L 141.200955 90.462757 
L 138.921596 83.871782 
L 140.284131 84.483768 
L 140.151589 81.291713 
L 141.486411 81.236287 
" clip-path="url(#pab5eddab7c)" style="fill: #808080"/>
    <path d="M 164.827015 81.132997 
L 165.303765 83.516748 
L 166.482791 82.599727 
L 165.827776 89.542881 
L 162.552704 83.385745 
L 163.993736 83.778754 
L 163.516985 81.395003 
L 164.827015 81.132997 
" clip-path="url(#pab5eddab7c)" style="fill: #808080"/>
    <path d="M 211.450794 81.607676 
L 210.680401 82.891664 
L 212.169664 83.006223 
L 207.014522 87.70313 
L 208.732903 80.944166 
L 209.534814 82.204312 
L 210.305206 80.920324 
L 211.450794 81.607676 
" clip-path="url(#pab5eddab7c)" style="fill: #808080"/>
    <path d="M 234.890106 81.372559 
L 234.53029 83.557154 
L 235.957061 83.115166 
L 232.894156 89.38055 
L 232.002425 82.463814 
L 233.212078 83.340037 
L 233.571894 81.155441 
L 234.890106 81.372559 
" clip-path="url(#pab5eddab7c)" style="fill: #808080"/>
    <path d="M 258.249717 81.31902 
L 258.036008 83.90479 
L 259.422461 83.349114 
L 256.875111 89.841219 
L 255.428162 83.018993 
L 256.704575 83.79475 
L 256.918283 81.20898 
L 258.249717 81.31902 
" clip-path="url(#pab5eddab7c)" style="fill: #808080"/>
    <path d="M 281.604055 81.299256 
L 281.457614 84.069958 
L 282.826981 83.473415 
L 280.473252 90.038199 
L 278.824649 83.261877 
L 280.123503 83.999445 
L 280.269945 81.228744 
L 281.604055 81.299256 
" clip-path="url(#pab5eddab7c)" style="fill: #808080"/>
    <path d="M 304.957499 81.289521 
L 304.847674 84.162021 
L 306.208192 83.545563 
L 303.950491 90.143988 
L 302.2032 83.39244 
L 303.512677 84.11098 
L 303.622501 81.238479 
L 304.957499 81.289521 
" clip-path="url(#pab5eddab7c)" style="fill: #808080"/>
    <path d="M 71.427941 59.568238 
L 71.519492 67.445979 
L 72.847612 66.762512 
L 70.921413 73.465212 
L 68.839965 66.809087 
L 70.18361 67.461503 
L 70.092059 59.583762 
L 71.427941 59.568238 
" clip-path="url(#pab5eddab7c)" style="fill: #808080"/>
    <path d="M 94.780911 59.565987 
L 94.898715 67.42368 
L 96.224524 66.735742 
L 94.320925 73.444895 
L 92.217056 66.795822 
L 93.562892 67.443707 
L 93.445089 59.586013 
L 94.780911 59.565987 
" clip-path="url(#pab5eddab7c)" style="fill: #808080"/>
    <path d="M 118.133804 59.56039 
L 118.315844 67.34829 
L 119.635842 66.649267 
L 117.788528 73.374135 
L 115.629018 66.742925 
L 116.980236 67.37951 
L 116.798196 59.59161 
L 118.133804 59.56039 
" clip-path="url(#pab5eddab7c)" style="fill: #808080"/>
    <path d="M 141.485879 59.537556 
L 141.919712 67.063227 
L 143.215027 66.319461 
L 141.598825 73.103584 
L 139.213752 66.550123 
L 140.585954 67.140115 
L 140.152121 59.614444 
L 141.485879 59.537556 
" clip-path="url(#pab5eddab7c)" style="fill: #808080"/>
    <path d="M 164.79221 59.327916 
L 167.342808 65.704412 
L 168.335144 64.588035 
L 168.955354 71.534384 
L 164.613885 66.076538 
L 166.102389 66.20058 
L 163.55179 59.824084 
L 164.79221 59.327916 
" clip-path="url(#pab5eddab7c)" style="fill: #808080"/>
    <path d="M 211.39961 59.993288 
L 207.060293 65.417433 
L 208.520801 65.730399 
L 202.783094 69.694633 
L 205.391142 63.226672 
L 206.017074 64.582858 
L 210.35639 59.158712 
L 211.39961 59.993288 
" clip-path="url(#pab5eddab7c)" style="fill: #808080"/>
    <path d="M 234.888678 59.692902 
L 233.728636 66.219181 
L 235.160892 65.795307 
L 232.018842 72.021377 
L 231.214827 65.093896 
L 232.413281 65.985377 
L 233.573322 59.459098 
L 234.888678 59.692902 
" clip-path="url(#pab5eddab7c)" style="fill: #808080"/>
    <path d="M 258.249924 59.628451 
L 257.693927 66.687426 
L 259.078226 66.126405 
L 256.555943 72.62829 
L 255.082683 65.811698 
L 256.36208 66.582524 
L 256.918076 59.523549 
L 258.249924 59.628451 
" clip-path="url(#pab5eddab7c)" style="fill: #808080"/>
    <path d="M 281.604263 59.60707 
L 281.264472 66.904517 
L 282.630069 66.299393 
L 280.317581 72.878818 
L 278.626488 66.112974 
L 279.929945 66.842377 
L 280.269737 59.54493 
L 281.604263 59.60707 
" clip-path="url(#pab5eddab7c)" style="fill: #808080"/>
    <path d="M 304.957646 59.597332 
L 304.720404 67.02235 
L 306.077028 66.397369 
L 303.860767 73.009828 
L 302.071154 66.269375 
L 303.385113 66.979685 
L 303.622354 59.554668 
L 304.957646 59.597332 
" clip-path="url(#pab5eddab7c)" style="fill: #808080"/>
    <path d="M 71.427955 37.881485 
L 71.549215 50.312946 
L 72.878609 49.63196 
L 70.939899 56.331052 
L 68.870881 49.671053 
L 70.213306 50.325977 
L 70.092045 37.894515 
L 71.427955 37.881485 
" clip-path="url(#pab5eddab7c)" style="fill: #808080"/>
    <path d="M 94.780919 37.878515 
L 94.956818 50.264758 
L 96.283171 49.577868 
L 94.374266 56.285514 
L 92.275657 49.63478 
L 93.62098 50.283728 
L 93.445081 37.897485 
L 94.780919 37.878515 
" clip-path="url(#pab5eddab7c)" style="fill: #808080"/>
    <path d="M 118.133749 37.870198 
L 118.460685 50.133663 
L 119.778381 49.43031 
L 117.953151 56.161206 
L 115.771886 49.537121 
L 117.125186 50.169266 
L 116.798251 37.905802 
L 118.133749 37.870198 
" clip-path="url(#pab5eddab7c)" style="fill: #808080"/>
    <path d="M 141.484848 37.83459 
L 142.436488 49.698371 
L 143.714773 48.925703 
L 142.251332 55.744411 
L 139.719687 49.246165 
L 141.104793 49.805192 
L 140.153152 37.94141 
L 141.484848 37.83459 
" clip-path="url(#pab5eddab7c)" style="fill: #808080"/>
    <path d="M 164.744794 37.544324 
L 171.03444 48.027069 
L 171.836351 46.766923 
L 173.554732 53.525887 
L 168.39959 48.82898 
L 169.888853 48.714421 
L 163.599206 38.231676 
L 164.744794 37.544324 
" clip-path="url(#pab5eddab7c)" style="fill: #808080"/>
    <path d="M 211.350338 38.360338 
L 201.803241 47.907434 
L 203.220254 48.379772 
L 197.079865 51.686135 
L 200.386228 45.545746 
L 200.858566 46.962759 
L 210.405662 37.415662 
L 211.350338 38.360338 
" clip-path="url(#pab5eddab7c)" style="fill: #808080"/>
    <path d="M 234.88611 38.018525 
L 232.718724 48.896739 
L 234.159468 48.502679 
L 230.888891 54.662204 
L 230.228809 47.71953 
L 231.408504 48.635689 
L 233.57589 37.757475 
L 234.88611 38.018525 
" clip-path="url(#pab5eddab7c)" style="fill: #808080"/>
    <path d="M 258.249781 37.942237 
L 257.310061 49.477572 
L 258.69586 48.920266 
L 256.156143 55.415361 
L 254.701176 48.594841 
L 255.9785 49.369097 
L 256.918219 37.833763 
L 258.249781 37.942237 
" clip-path="url(#pab5eddab7c)" style="fill: #808080"/>
    <path d="M 281.604298 37.91831 
L 281.067158 49.744061 
L 282.432064 49.137382 
L 280.127074 55.719437 
L 278.428274 48.955524 
L 279.732561 49.683442 
L 280.269702 37.85769 
L 281.604298 37.91831 
" clip-path="url(#pab5eddab7c)" style="fill: #808080"/>
    <path d="M 304.957689 37.907933 
L 304.600091 49.886401 
L 305.955402 49.258578 
L 303.753008 55.875668 
L 301.949268 49.138981 
L 303.264714 49.846536 
L 303.622311 37.868067 
L 304.957689 37.907933 
" clip-path="url(#pab5eddab7c)" style="fill: #808080"/>
    <path d="M 71.427957 16.193714 
L 71.587803 33.178995 
L 72.91743 32.498467 
L 70.97642 39.196892 
L 68.909689 32.536183 
L 70.251889 33.191567 
L 70.092043 16.206286 
L 71.427957 16.193714 
" clip-path="url(#pab5eddab7c)" style="fill: #808080"/>
    <path d="M 94.780909 16.18982 
L 95.038729 33.104773 
L 96.364366 32.416504 
L 94.462444 39.126133 
L 92.356914 32.477586 
L 93.702912 33.125134 
L 93.445091 16.21018 
L 94.780909 16.18982 
" clip-path="url(#pab5eddab7c)" style="fill: #808080"/>
    <path d="M 118.13364 16.178505 
L 118.672588 32.918018 
L 119.986373 32.207387 
L 118.198407 38.948277 
L 115.980531 32.33636 
L 117.337307 32.961009 
L 116.79836 16.221495 
L 118.13364 16.178505 
" clip-path="url(#pab5eddab7c)" style="fill: #808080"/>
    <path d="M 141.483303 16.129948 
L 143.192311 32.336458 
L 144.450865 31.532051 
L 143.158476 38.385237 
L 140.465047 31.952363 
L 141.863705 32.476562 
L 140.154697 16.270052 
L 141.483303 16.129948 
" clip-path="url(#pab5eddab7c)" style="fill: #808080"/>
    <path d="M 164.69361 15.782712 
L 176.391931 30.405614 
L 177.017863 29.049429 
L 179.625912 35.51739 
L 173.888205 31.553156 
L 175.348712 31.24019 
L 163.65039 16.617288 
L 164.69361 15.782712 
" clip-path="url(#pab5eddab7c)" style="fill: #808080"/>
    <path d="M 211.305634 16.713161 
L 194.950921 30.34209 
L 196.319351 30.940778 
L 189.904834 33.677638 
L 193.753544 27.86181 
L 194.095652 29.315767 
L 210.450366 15.686839 
L 211.305634 16.713161 
" clip-path="url(#pab5eddab7c)" style="fill: #808080"/>
    <path d="M 234.882836 16.345999 
L 231.470134 31.582508 
L 232.919805 31.222671 
L 229.504303 37.303031 
L 229.00879 30.346674 
L 230.166462 31.290509 
L 233.579164 16.054001 
L 234.882836 16.345999 
" clip-path="url(#pab5eddab7c)" style="fill: #808080"/>
    <path d="M 258.249488 16.257718 
L 256.860664 32.270758 
L 258.249359 31.720706 
L 255.675711 38.202432 
L 254.25643 31.374397 
L 255.529688 32.155321 
L 256.918512 16.142282 
L 258.249488 16.257718 
" clip-path="url(#pab5eddab7c)" style="fill: #808080"/>
    <path d="M 281.604272 16.230895 
L 280.847055 32.585506 
L 282.212492 31.980024 
L 279.901732 38.560055 
L 278.208863 31.794656 
L 279.512512 32.523717 
L 280.269728 16.169105 
L 281.604272 16.230895 
" clip-path="url(#pab5eddab7c)" style="fill: #808080"/>
    <path d="M 304.957698 16.219632 
L 304.471602 32.751861 
L 305.82663 32.123427 
L 303.627213 38.741508 
L 301.820443 32.005634 
L 303.136206 32.712596 
L 303.622302 16.180368 
L 304.957698 16.219632 
" clip-path="url(#pab5eddab7c)" style="fill: #808080"/>
   </g>
   <g id="PathCollection_1">
    <defs>
     <path id="C0_0_ada5a404e7" d="M 0 3 
C 0.795609 3 1.55874 2.683901 2.12132 2.12132 
C 2.683901 1.55874 3 0.795609 3 -0 
C 3 -0.795609 2.683901 -1.55874 2.12132 -2.12132 
C 1.55874 -2.683901 0.795609 -3 0 -3 
C -0.795609 -3 -1.55874 -2.683901 -2.12132 -2.12132 
C -2.683901 -1.55874 -3 -0.795609 -3 0 
C -3 0.795609 -2.683901 1.55874 -2.12132 2.12132 
C -1.55874 2.683901 -0.795609 3 0 3 
z
"/>
    </defs>
    <g clip-path="url(#pab5eddab7c)">
     <use xlink:href="#C0_0_ada5a404e7" x="210.878" y="119.218" style="fill: none; stroke: #000000; stroke-width: 2"/>
    </g>
    <g clip-path="url(#pab5eddab7c)">
     <use xlink:href="#C0_0_ada5a404e7" x="164.172" y="130.062" style="fill: none; stroke: #000000; stroke-width: 2"/>
    </g>
   </g>
   <g id="matplotlib.axis_1">
    <g id="xtick_1">
     <g id="line2d_1">
      <defs>
       <path id="m6a13d2e4d3" d="M 0 0 
L 0 3.5 
" style="stroke: #000000; stroke-width: 0.8"/>
      </defs>
      <g>
       <use xlink:href="#m6a13d2e4d3" x="70.76" y="233.08" style="stroke: #000000; stroke-width: 0.8"/>
      </g>
     </g>
     <g id="text_1">
      <!-- −10 -->
      <g transform="translate(55.986719 250.717812) scale(0.14 -0.14)">
       <defs>
        <path id="DejaVuSans-2212" d="M 678 2272 
L 4684 2272 
L 4684 1741 
L 678 1741 
L 678 2272 
z
" transform="scale(0.015625)"/>
        <path id="DejaVuSans-31" d="M 794 531 
L 1825 531 
L 1825 4091 
L 703 3866 
L 703 4441 
L 1819 4666 
L 2450 4666 
L 2450 531 
L 3481 531 
L 3481 0 
L 794 0 
L 794 531 
z
" transform="scale(0.015625)"/>
        <path id="DejaVuSans-30" d="M 2034 4250 
Q 1547 4250 1301 3770 
Q 1056 3291 1056 2328 
Q 1056 1369 1301 889 
Q 1547 409 2034 409 
Q 2525 409 2770 889 
Q 3016 1369 3016 2328 
Q 3016 3291 2770 3770 
Q 2525 4250 2034 4250 
z
M 2034 4750 
Q 2819 4750 3233 4129 
Q 3647 3509 3647 2328 
Q 3647 1150 3233 529 
Q 2819 -91 2034 -91 
Q 1250 -91 836 529 
Q 422 1150 422 2328 
Q 422 3509 836 4129 
Q 1250 4750 2034 4750 
z
" transform="scale(0.015625)"/>
       </defs>
       <use xlink:href="#DejaVuSans-2212"/>
       <use xlink:href="#DejaVuSans-31" x="83.789062"/>
       <use xlink:href="#DejaVuSans-30" x="147.412109"/>
      </g>
     </g>
    </g>
    <g id="xtick_2">
     <g id="line2d_2">
      <g>
       <use xlink:href="#m6a13d2e4d3" x="129.1425" y="233.08" style="stroke: #000000; stroke-width: 0.8"/>
      </g>
     </g>
     <g id="text_2">
      <!-- −5 -->
      <g transform="translate(118.822969 250.717812) scale(0.14 -0.14)">
       <defs>
        <path id="DejaVuSans-35" d="M 691 4666 
L 3169 4666 
L 3169 4134 
L 1269 4134 
L 1269 2991 
Q 1406 3038 1543 3061 
Q 1681 3084 1819 3084 
Q 2600 3084 3056 2656 
Q 3513 2228 3513 1497 
Q 3513 744 3044 326 
Q 2575 -91 1722 -91 
Q 1428 -91 1123 -41 
Q 819 9 494 109 
L 494 744 
Q 775 591 1075 516 
Q 1375 441 1709 441 
Q 2250 441 2565 725 
Q 2881 1009 2881 1497 
Q 2881 1984 2565 2268 
Q 2250 2553 1709 2553 
Q 1456 2553 1204 2497 
Q 953 2441 691 2322 
L 691 4666 
z
" transform="scale(0.015625)"/>
       </defs>
       <use xlink:href="#DejaVuSans-2212"/>
       <use xlink:href="#DejaVuSans-35" x="83.789062"/>
      </g>
     </g>
    </g>
    <g id="xtick_3">
     <g id="line2d_3">
      <g>
       <use xlink:href="#m6a13d2e4d3" x="187.525" y="233.08" style="stroke: #000000; stroke-width: 0.8"/>
      </g>
     </g>
     <g id="text_3">
      <!-- 0 -->
      <g transform="translate(183.07125 250.717812) scale(0.14 -0.14)">
       <use xlink:href="#DejaVuSans-30"/>
      </g>
     </g>
    </g>
    <g id="xtick_4">
     <g id="line2d_4">
      <g>
       <use xlink:href="#m6a13d2e4d3" x="245.9075" y="233.08" style="stroke: #000000; stroke-width: 0.8"/>
      </g>
     </g>
     <g id="text_4">
      <!-- 5 -->
      <g transform="translate(241.45375 250.717812) scale(0.14 -0.14)">
       <use xlink:href="#DejaVuSans-35"/>
      </g>
     </g>
    </g>
    <g id="xtick_5">
     <g id="line2d_5">
      <g>
       <use xlink:href="#m6a13d2e4d3" x="304.29" y="233.08" style="stroke: #000000; stroke-width: 0.8"/>
      </g>
     </g>
     <g id="text_5">
      <!-- 10 -->
      <g transform="translate(295.3825 250.717812) scale(0.14 -0.14)">
       <use xlink:href="#DejaVuSans-31"/>
       <use xlink:href="#DejaVuSans-30" x="63.623047"/>
      </g>
     </g>
    </g>
    <g id="text_6">
     <!-- weight $W_0$ -->
     <g transform="translate(146.245 269.789375) scale(0.16 -0.16)">
      <defs>
       <path id="DejaVuSans-77" d="M 269 3500 
L 844 3500 
L 1563 769 
L 2278 3500 
L 2956 3500 
L 3675 769 
L 4391 3500 
L 4966 3500 
L 4050 0 
L 3372 0 
L 2619 2869 
L 1863 0 
L 1184 0 
L 269 3500 
z
" transform="scale(0.015625)"/>
       <path id="DejaVuSans-65" d="M 3597 1894 
L 3597 1613 
L 953 1613 
Q 991 1019 1311 708 
Q 1631 397 2203 397 
Q 2534 397 2845 478 
Q 3156 559 3463 722 
L 3463 178 
Q 3153 47 2828 -22 
Q 2503 -91 2169 -91 
Q 1331 -91 842 396 
Q 353 884 353 1716 
Q 353 2575 817 3079 
Q 1281 3584 2069 3584 
Q 2775 3584 3186 3129 
Q 3597 2675 3597 1894 
z
M 3022 2063 
Q 3016 2534 2758 2815 
Q 2500 3097 2075 3097 
Q 1594 3097 1305 2825 
Q 1016 2553 972 2059 
L 3022 2063 
z
" transform="scale(0.015625)"/>
       <path id="DejaVuSans-69" d="M 603 3500 
L 1178 3500 
L 1178 0 
L 603 0 
L 603 3500 
z
M 603 4863 
L 1178 4863 
L 1178 4134 
L 603 4134 
L 603 4863 
z
" transform="scale(0.015625)"/>
       <path id="DejaVuSans-67" d="M 2906 1791 
Q 2906 2416 2648 2759 
Q 2391 3103 1925 3103 
Q 1463 3103 1205 2759 
Q 947 2416 947 1791 
Q 947 1169 1205 825 
Q 1463 481 1925 481 
Q 2391 481 2648 825 
Q 2906 1169 2906 1791 
z
M 3481 434 
Q 3481 -459 3084 -895 
Q 2688 -1331 1869 -1331 
Q 1566 -1331 1297 -1286 
Q 1028 -1241 775 -1147 
L 775 -588 
Q 1028 -725 1275 -790 
Q 1522 -856 1778 -856 
Q 2344 -856 2625 -561 
Q 2906 -266 2906 331 
L 2906 616 
Q 2728 306 2450 153 
Q 2172 0 1784 0 
Q 1141 0 747 490 
Q 353 981 353 1791 
Q 353 2603 747 3093 
Q 1141 3584 1784 3584 
Q 2172 3584 2450 3431 
Q 2728 3278 2906 2969 
L 2906 3500 
L 3481 3500 
L 3481 434 
z
" transform="scale(0.015625)"/>
       <path id="DejaVuSans-68" d="M 3513 2113 
L 3513 0 
L 2938 0 
L 2938 2094 
Q 2938 2591 2744 2837 
Q 2550 3084 2163 3084 
Q 1697 3084 1428 2787 
Q 1159 2491 1159 1978 
L 1159 0 
L 581 0 
L 581 4863 
L 1159 4863 
L 1159 2956 
Q 1366 3272 1645 3428 
Q 1925 3584 2291 3584 
Q 2894 3584 3203 3211 
Q 3513 2838 3513 2113 
z
" transform="scale(0.015625)"/>
       <path id="DejaVuSans-74" d="M 1172 4494 
L 1172 3500 
L 2356 3500 
L 2356 3053 
L 1172 3053 
L 1172 1153 
Q 1172 725 1289 603 
Q 1406 481 1766 481 
L 2356 481 
L 2356 0 
L 1766 0 
Q 1100 0 847 248 
Q 594 497 594 1153 
L 594 3053 
L 172 3053 
L 172 3500 
L 594 3500 
L 594 4494 
L 1172 4494 
z
" transform="scale(0.015625)"/>
       <path id="DejaVuSans-20" transform="scale(0.015625)"/>
       <path id="DejaVuSans-Oblique-57" d="M 616 4666 
L 1228 4666 
L 1453 697 
L 3213 4666 
L 3916 4666 
L 4147 697 
L 5888 4666 
L 6528 4666 
L 4453 0 
L 3659 0 
L 3444 3891 
L 1697 0 
L 903 0 
L 616 4666 
z
" transform="scale(0.015625)"/>
      </defs>
      <use xlink:href="#DejaVuSans-77" transform="translate(0 0.015625)"/>
      <use xlink:href="#DejaVuSans-65" transform="translate(81.787109 0.015625)"/>
      <use xlink:href="#DejaVuSans-69" transform="translate(143.310547 0.015625)"/>
      <use xlink:href="#DejaVuSans-67" transform="translate(171.09375 0.015625)"/>
      <use xlink:href="#DejaVuSans-68" transform="translate(234.570312 0.015625)"/>
      <use xlink:href="#DejaVuSans-74" transform="translate(297.949219 0.015625)"/>
      <use xlink:href="#DejaVuSans-20" transform="translate(337.158203 0.015625)"/>
      <use xlink:href="#DejaVuSans-Oblique-57" transform="translate(368.945312 0.015625)"/>
      <use xlink:href="#DejaVuSans-30" transform="translate(467.822266 -16.390625) scale(0.7)"/>
     </g>
    </g>
   </g>
   <g id="matplotlib.axis_2">
    <g id="ytick_1">
     <g id="line2d_6">
      <defs>
       <path id="m11f4a544d0" d="M 0 0 
L -3.5 0 
" style="stroke: #000000; stroke-width: 0.8"/>
      </defs>
      <g>
       <use xlink:href="#m11f4a544d0" x="70.76" y="233.08" style="stroke: #000000; stroke-width: 0.8"/>
      </g>
     </g>
     <g id="text_7">
      <!-- −10 -->
      <g transform="translate(34.213437 238.398906) scale(0.14 -0.14)">
       <use xlink:href="#DejaVuSans-2212"/>
       <use xlink:href="#DejaVuSans-31" x="83.789062"/>
       <use xlink:href="#DejaVuSans-30" x="147.412109"/>
      </g>
     </g>
    </g>
    <g id="ytick_2">
     <g id="line2d_7">
      <g>
       <use xlink:href="#m11f4a544d0" x="70.76" y="178.86" style="stroke: #000000; stroke-width: 0.8"/>
      </g>
     </g>
     <g id="text_8">
      <!-- −5 -->
      <g transform="translate(43.120938 184.178906) scale(0.14 -0.14)">
       <use xlink:href="#DejaVuSans-2212"/>
       <use xlink:href="#DejaVuSans-35" x="83.789062"/>
      </g>
     </g>
    </g>
    <g id="ytick_3">
     <g id="line2d_8">
      <g>
       <use xlink:href="#m11f4a544d0" x="70.76" y="124.64" style="stroke: #000000; stroke-width: 0.8"/>
      </g>
     </g>
     <g id="text_9">
      <!-- 0 -->
      <g transform="translate(54.8525 129.958906) scale(0.14 -0.14)">
       <use xlink:href="#DejaVuSans-30"/>
      </g>
     </g>
    </g>
    <g id="ytick_4">
     <g id="line2d_9">
      <g>
       <use xlink:href="#m11f4a544d0" x="70.76" y="70.42" style="stroke: #000000; stroke-width: 0.8"/>
      </g>
     </g>
     <g id="text_10">
      <!-- 5 -->
      <g transform="translate(54.8525 75.738906) scale(0.14 -0.14)">
       <use xlink:href="#DejaVuSans-35"/>
      </g>
     </g>
    </g>
    <g id="ytick_5">
     <g id="line2d_10">
      <g>
       <use xlink:href="#m11f4a544d0" x="70.76" y="16.2" style="stroke: #000000; stroke-width: 0.8"/>
      </g>
     </g>
     <g id="text_11">
      <!-- 10 -->
      <g transform="translate(45.945 21.518906) scale(0.14 -0.14)">
       <use xlink:href="#DejaVuSans-31"/>
       <use xlink:href="#DejaVuSans-30" x="63.623047"/>
      </g>
     </g>
    </g>
    <g id="text_12">
     <!-- prior mean $\mu$ -->
     <g transform="translate(26.853437 176.32) rotate(-90) scale(0.16 -0.16)">
      <defs>
       <path id="DejaVuSans-70" d="M 1159 525 
L 1159 -1331 
L 581 -1331 
L 581 3500 
L 1159 3500 
L 1159 2969 
Q 1341 3281 1617 3432 
Q 1894 3584 2278 3584 
Q 2916 3584 3314 3078 
Q 3713 2572 3713 1747 
Q 3713 922 3314 415 
Q 2916 -91 2278 -91 
Q 1894 -91 1617 61 
Q 1341 213 1159 525 
z
M 3116 1747 
Q 3116 2381 2855 2742 
Q 2594 3103 2138 3103 
Q 1681 3103 1420 2742 
Q 1159 2381 1159 1747 
Q 1159 1113 1420 752 
Q 1681 391 2138 391 
Q 2594 391 2855 752 
Q 3116 1113 3116 1747 
z
" transform="scale(0.015625)"/>
       <path id="DejaVuSans-72" d="M 2631 2963 
Q 2534 3019 2420 3045 
Q 2306 3072 2169 3072 
Q 1681 3072 1420 2755 
Q 1159 2438 1159 1844 
L 1159 0 
L 581 0 
L 581 3500 
L 1159 3500 
L 1159 2956 
Q 1341 3275 1631 3429 
Q 1922 3584 2338 3584 
Q 2397 3584 2469 3576 
Q 2541 3569 2628 3553 
L 2631 2963 
z
" transform="scale(0.015625)"/>
       <path id="DejaVuSans-6f" d="M 1959 3097 
Q 1497 3097 1228 2736 
Q 959 2375 959 1747 
Q 959 1119 1226 758 
Q 1494 397 1959 397 
Q 2419 397 2687 759 
Q 2956 1122 2956 1747 
Q 2956 2369 2687 2733 
Q 2419 3097 1959 3097 
z
M 1959 3584 
Q 2709 3584 3137 3096 
Q 3566 2609 3566 1747 
Q 3566 888 3137 398 
Q 2709 -91 1959 -91 
Q 1206 -91 779 398 
Q 353 888 353 1747 
Q 353 2609 779 3096 
Q 1206 3584 1959 3584 
z
" transform="scale(0.015625)"/>
       <path id="DejaVuSans-6d" d="M 3328 2828 
Q 3544 3216 3844 3400 
Q 4144 3584 4550 3584 
Q 5097 3584 5394 3201 
Q 5691 2819 5691 2113 
L 5691 0 
L 5113 0 
L 5113 2094 
Q 5113 2597 4934 2840 
Q 4756 3084 4391 3084 
Q 3944 3084 3684 2787 
Q 3425 2491 3425 1978 
L 3425 0 
L 2847 0 
L 2847 2094 
Q 2847 2600 2669 2842 
Q 2491 3084 2119 3084 
Q 1678 3084 1418 2786 
Q 1159 2488 1159 1978 
L 1159 0 
L 581 0 
L 581 3500 
L 1159 3500 
L 1159 2956 
Q 1356 3278 1631 3431 
Q 1906 3584 2284 3584 
Q 2666 3584 2933 3390 
Q 3200 3197 3328 2828 
z
" transform="scale(0.015625)"/>
       <path id="DejaVuSans-61" d="M 2194 1759 
Q 1497 1759 1228 1600 
Q 959 1441 959 1056 
Q 959 750 1161 570 
Q 1363 391 1709 391 
Q 2188 391 2477 730 
Q 2766 1069 2766 1631 
L 2766 1759 
L 2194 1759 
z
M 3341 1997 
L 3341 0 
L 2766 0 
L 2766 531 
Q 2569 213 2275 61 
Q 1981 -91 1556 -91 
Q 1019 -91 701 211 
Q 384 513 384 1019 
Q 384 1609 779 1909 
Q 1175 2209 1959 2209 
L 2766 2209 
L 2766 2266 
Q 2766 2663 2505 2880 
Q 2244 3097 1772 3097 
Q 1472 3097 1187 3025 
Q 903 2953 641 2809 
L 641 3341 
Q 956 3463 1253 3523 
Q 1550 3584 1831 3584 
Q 2591 3584 2966 3190 
Q 3341 2797 3341 1997 
z
" transform="scale(0.015625)"/>
       <path id="DejaVuSans-6e" d="M 3513 2113 
L 3513 0 
L 2938 0 
L 2938 2094 
Q 2938 2591 2744 2837 
Q 2550 3084 2163 3084 
Q 1697 3084 1428 2787 
Q 1159 2491 1159 1978 
L 1159 0 
L 581 0 
L 581 3500 
L 1159 3500 
L 1159 2956 
Q 1366 3272 1645 3428 
Q 1925 3584 2291 3584 
Q 2894 3584 3203 3211 
Q 3513 2838 3513 2113 
z
" transform="scale(0.015625)"/>
       <path id="DejaVuSans-Oblique-3bc" d="M -84 -1331 
L 856 3500 
L 1434 3500 
L 1009 1322 
Q 997 1256 987 1175 
Q 978 1094 978 1013 
Q 978 722 1161 565 
Q 1344 409 1684 409 
Q 2147 409 2431 671 
Q 2716 934 2816 1459 
L 3213 3500 
L 3788 3500 
L 3266 809 
Q 3253 750 3248 706 
Q 3244 663 3244 628 
Q 3244 531 3283 486 
Q 3322 441 3406 441 
Q 3438 441 3492 456 
Q 3547 472 3647 513 
L 3559 50 
Q 3422 -19 3297 -55 
Q 3172 -91 3053 -91 
Q 2847 -91 2730 40 
Q 2613 172 2613 403 
Q 2438 153 2195 31 
Q 1953 -91 1625 -91 
Q 1334 -91 1117 43 
Q 900 178 831 397 
L 494 -1331 
L -84 -1331 
z
" transform="scale(0.015625)"/>
      </defs>
      <use xlink:href="#DejaVuSans-70" transform="translate(0 0.015625)"/>
      <use xlink:href="#DejaVuSans-72" transform="translate(63.476562 0.015625)"/>
      <use xlink:href="#DejaVuSans-69" transform="translate(104.589844 0.015625)"/>
      <use xlink:href="#DejaVuSans-6f" transform="translate(132.373047 0.015625)"/>
      <use xlink:href="#DejaVuSans-72" transform="translate(193.554688 0.015625)"/>
      <use xlink:href="#DejaVuSans-20" transform="translate(234.667969 0.015625)"/>
      <use xlink:href="#DejaVuSans-6d" transform="translate(266.455078 0.015625)"/>
      <use xlink:href="#DejaVuSans-65" transform="translate(363.867188 0.015625)"/>
      <use xlink:href="#DejaVuSans-61" transform="translate(425.390625 0.015625)"/>
      <use xlink:href="#DejaVuSans-6e" transform="translate(486.669922 0.015625)"/>
      <use xlink:href="#DejaVuSans-20" transform="translate(550.048828 0.015625)"/>
      <use xlink:href="#DejaVuSans-Oblique-3bc" transform="translate(581.835938 0.015625)"/>
     </g>
    </g>
   </g>
   <g id="line2d_11">
    <path d="M 188.53595 -1 
L 188.809415 26.058182 
L 189.276475 52.346667 
L 189.743535 67.566316 
L 190.32736 79.456667 
L 190.911185 87.246897 
L 191.611775 93.657143 
L 192.312365 98.19122 
L 193.12972 102.048333 
L 193.947075 104.923636 
L 194.881195 107.427302 
L 195.93208 109.578889 
L 196.982965 111.252346 
L 198.150615 112.723516 
L 199.43503 114.008627 
L 200.952975 115.210435 
L 202.70445 116.298462 
L 204.689455 117.263129 
L 207.024755 118.146587 
L 209.827115 118.962513 
L 213.2133 119.710909 
L 217.41684 120.404062 
L 222.671265 121.037342 
L 229.443635 121.619387 
L 238.317775 122.147126 
L 250.227805 122.620633 
L 266.808435 123.042946 
L 290.74526 123.413303 
L 304.29 123.5556 
L 304.29 123.5556 
" clip-path="url(#pab5eddab7c)" style="fill: none; stroke: #008000; stroke-opacity: 0.5; stroke-width: 1.6; stroke-linecap: square"/>
   </g>
   <g id="line2d_12">
    <path d="M 70.76 125.7244 
L 102.636845 126.131609 
L 122.83719 126.597401 
L 136.498695 127.121465 
L 146.19019 127.703277 
L 153.312855 128.341024 
L 158.80081 129.04813 
L 163.00435 129.80381 
L 166.390535 130.63116 
L 169.07613 131.503291 
L 171.294665 132.441439 
L 173.162905 133.45626 
L 174.797615 134.588624 
L 176.198795 135.819381 
L 177.48321 137.249302 
L 178.65086 138.908421 
L 179.701745 140.825075 
L 180.635865 143.019661 
L 181.45322 145.493846 
L 182.270575 148.737778 
L 182.971165 152.445128 
L 183.671755 157.500606 
L 184.25558 163.368571 
L 184.839405 171.787826 
L 185.306465 181.713684 
L 185.773525 196.933333 
L 186.12382 215.006667 
L 186.474115 245.128889 
L 186.750363 289 
L 186.750363 289 
" clip-path="url(#pab5eddab7c)" style="fill: none; stroke: #008000; stroke-opacity: 0.5; stroke-width: 1.6; stroke-linecap: square"/>
   </g>
   <g id="line2d_13">
    <path d="M 158.80081 114.060092 
L 159.03434 116.63746 
L 159.5014 119.011838 
L 160.20199 121.45418 
L 161.252875 124.257144 
L 162.53729 127.046212 
L 164.172 130.062 
L 166.157005 133.255889 
L 168.60907 136.779119 
L 172.228785 141.549362 
L 176.31556 146.986784 
L 178.1838 149.853914 
L 179.58498 152.420434 
L 180.635865 154.774547 
L 181.569985 157.390932 
L 182.38734 160.344094 
L 183.08793 163.681214 
L 183.78852 168.260417 
L 184.372345 173.687823 
L 184.839405 179.833697 
L 185.306465 188.757221 
L 185.773525 202.795822 
L 186.12382 219.86223 
L 186.474115 248.877812 
L 186.737439 289 
L 186.737439 289 
" clip-path="url(#pab5eddab7c)" style="fill: none; stroke: #cc99ff; stroke-opacity: 0.5; stroke-width: 1.6; stroke-linecap: square"/>
   </g>
   <g id="line2d_14">
    <path d="M 188.564726 -1 
L 188.809415 21.560843 
L 189.276475 46.484178 
L 189.743535 60.522779 
L 190.32736 71.186452 
L 190.911185 77.997877 
L 191.611775 83.508187 
L 192.312365 87.385543 
L 193.12972 90.718936 
L 194.06384 93.596397 
L 195.114725 96.127093 
L 196.39914 98.623869 
L 198.03385 101.268748 
L 200.252385 104.383082 
L 209.126525 116.380516 
L 211.11153 119.622861 
L 212.74624 122.70637 
L 214.030655 125.59198 
L 214.964775 128.18708 
L 215.665365 130.7683 
L 216.01566 132.64254 
L 216.24919 135.219908 
L 216.24919 135.219908 
" clip-path="url(#pab5eddab7c)" style="fill: none; stroke: #cc99ff; stroke-opacity: 0.5; stroke-width: 1.6; stroke-linecap: square"/>
   </g>
   <g id="line2d_15">
    <path d="M 187.641765 125.181972 
L 189.15971 131.696492 
L 190.210595 135.179991 
L 191.26148 137.842997 
L 192.312365 139.891716 
L 193.480015 141.658627 
L 194.76443 143.167595 
L 196.16561 144.445713 
L 197.683555 145.513601 
L 199.318265 146.381613 
L 201.06974 147.048143 
L 202.821215 147.47714 
L 204.57269 147.682862 
L 206.324165 147.66237 
L 207.958875 147.42137 
L 209.47682 146.974944 
L 210.878 146.328 
L 212.162415 145.47399 
L 213.2133 144.514393 
L 214.14742 143.362038 
L 214.964775 141.961852 
L 215.5486 140.519104 
L 215.898895 139.24012 
L 216.132425 137.873512 
L 216.24919 136.328202 
L 216.24919 136.328202 
" clip-path="url(#pab5eddab7c)" style="fill: none; stroke: #cc99ff; stroke-opacity: 0.5; stroke-width: 1.6; stroke-linecap: square"/>
   </g>
   <g id="line2d_16">
    <path d="M 158.80081 112.951798 
L 159.03434 110.627442 
L 159.5014 108.760896 
L 160.085225 107.318148 
L 160.90258 105.917962 
L 161.8367 104.765607 
L 162.887585 103.80601 
L 164.172 102.952 
L 165.57318 102.305056 
L 167.091125 101.85863 
L 168.725835 101.61763 
L 170.47731 101.597138 
L 172.228785 101.80286 
L 173.98026 102.231857 
L 175.731735 102.898387 
L 177.366445 103.766399 
L 178.88439 104.834287 
L 180.28557 106.112405 
L 181.45322 107.467683 
L 182.504105 108.997717 
L 183.55499 110.935685 
L 184.48911 113.131154 
L 185.42323 115.922608 
L 186.35735 119.427292 
L 187.525 124.64 
L 187.525 124.64 
" clip-path="url(#pab5eddab7c)" style="fill: none; stroke: #cc99ff; stroke-opacity: 0.5; stroke-width: 1.6; stroke-linecap: square"/>
   </g>
   <g id="line2d_17">
    <path d="M 269.2605 113.796 
L 268.034801 118.092194 
L 266.548569 120.665125 
L 265.426715 121.689403 
L 264.584398 122.187071 
L 262.356664 122.843518 
L 260.969305 122.896187 
L 260.136737 122.896062 
L 258.521003 122.90282 
L 257.796729 122.979644 
L 255.930506 122.829616 
L 255.104597 122.845148 
L 253.541473 122.712959 
L 248.961778 122.580134 
L 248.416836 122.551587 
L 246.269751 122.579386 
L 244.814131 122.464726 
L 240.059796 122.430059 
L 239.191772 122.314546 
L 237.991913 122.119254 
L 236.95763 122.121578 
L 234.786448 122.174294 
L 234.182106 122.053833 
L 232.949952 121.939776 
L 232.567846 121.853688 
L 230.836319 121.774284 
L 230.320491 121.691901 
L 229.765391 121.62811 
L 228.478714 121.586471 
L 227.920802 121.523523 
L 227.369335 121.451176 
L 226.982526 121.532482 
L 225.89531 121.425857 
L 224.623226 121.394734 
L 224.131376 121.243653 
L 223.535277 121.222767 
L 222.734217 121.269481 
L 222.52229 121.288609 
L 219.54504 120.842641 
L 216.543799 120.641698 
L 214.934226 120.259917 
L 214.500362 120.318713 
L 213.787156 120.330124 
L 213.057305 119.917455 
L 212.771934 119.783211 
L 212.697709 119.648176 
L 212.338584 119.591756 
L 212.479694 119.59108 
L 212.483697 119.482756 
L 211.89825 119.495635 
L 211.916621 119.471002 
L 211.809001 119.331704 
L 211.82733 119.333294 
L 211.870319 119.249865 
L 211.643766 119.279806 
L 211.369118 119.306646 
L 211.40586 119.376967 
" clip-path="url(#pab5eddab7c)" style="fill: none; stroke: #1f77b4; stroke-width: 2; stroke-linecap: square"/>
   </g>
   <g id="line2d_18">
    <path d="M 105.7895 48.732 
L 106.332927 65.77699 
L 107.210004 91.385902 
L 107.469024 97.186572 
L 108.301063 107.908449 
L 108.551001 110.98595 
L 109.479619 116.627267 
L 110.592698 121.153873 
L 111.191419 122.686907 
L 111.792117 123.767875 
L 112.671443 124.697561 
L 113.988331 125.532262 
L 114.976152 125.81736 
L 115.905644 125.982889 
L 117.800513 126.210036 
L 119.296138 126.346387 
L 120.014333 126.391401 
L 121.467036 126.539153 
L 124.533523 126.616779 
L 126.841862 126.74062 
L 127.997529 126.690305 
L 130.457768 126.83493 
L 132.829757 126.824281 
L 134.721603 126.81125 
L 135.30661 126.892619 
L 137.389359 127.053318 
L 141.079954 127.147562 
L 141.873935 127.270545 
L 142.261948 127.360577 
L 144.397451 127.463744 
L 145.559366 127.526769 
L 146.267914 127.578414 
L 146.898973 127.691415 
L 147.927627 127.704913 
L 148.425357 127.808121 
L 149.298693 127.894646 
L 150.253716 128.002002 
L 152.088534 127.955909 
L 153.148975 128.186363 
L 153.61803 128.165466 
L 154.454101 128.280462 
L 155.013388 128.346315 
L 155.797669 128.350112 
L 157.339014 128.591025 
L 157.389901 128.680296 
L 157.726705 128.76425 
L 157.828818 128.730538 
L 158.170341 128.94529 
L 158.182142 128.902686 
L 158.303475 128.872109 
L 159.140534 128.840435 
L 159.330445 128.748598 
L 159.749266 128.775245 
L 160.195755 128.887106 
L 160.60369 129.046459 
L 160.713245 129.263396 
L 160.941048 129.254966 
L 161.147669 129.209583 
L 161.989148 129.478881 
L 161.964742 129.50899 
L 161.927201 129.438528 
L 162.09855 129.624136 
L 162.310744 129.698716 
L 162.281173 129.539895 
L 162.346845 129.503803 
L 162.356171 129.567627 
L 162.687561 129.78597 
L 162.775529 129.710691 
L 162.734027 129.695779 
" clip-path="url(#pab5eddab7c)" style="fill: none; stroke: #1f77b4; stroke-width: 2; stroke-linecap: square"/>
   </g>
   <g id="line2d_19">
    <path d="M 245.9075 211.392 
L 244.653528 186.201171 
L 243.030273 146.049415 
L 242.228444 137.491362 
L 241.734091 133.882177 
L 240.330251 127.105712 
L 239.938312 126.355795 
L 238.965324 124.843964 
L 237.663386 123.495159 
L 236.749194 122.91695 
L 235.736107 122.578592 
L 233.338834 122.186316 
L 231.507302 121.941083 
L 230.354413 121.766359 
L 229.820454 121.693294 
L 228.21864 121.605022 
L 227.812467 121.585353 
L 227.155543 121.468391 
L 225.920125 121.475943 
L 223.622302 121.174669 
L 221.967822 121.146162 
L 221.237378 120.966561 
L 220.974952 120.985183 
L 220.557242 120.890671 
L 219.332988 120.894313 
L 218.886457 120.920905 
L 216.304403 120.572127 
L 216.119216 120.478073 
L 215.463403 120.360572 
L 215.171773 120.29005 
L 214.539347 120.200887 
L 214.361395 120.175145 
L 214.363848 120.228727 
L 213.925028 120.382558 
L 213.715704 120.314691 
L 213.47142 120.171548 
L 212.432811 119.625538 
L 212.203607 119.564273 
L 212.249458 119.581305 
L 212.167277 119.655324 
L 212.229269 119.522255 
L 211.912626 119.63295 
L 211.913812 119.530197 
L 211.752644 119.53158 
L 211.787223 119.445565 
L 211.843666 119.372392 
L 211.720671 119.306421 
L 211.746965 119.402957 
L 211.819828 119.514956 
L 211.691955 119.234191 
L 211.647068 119.285432 
L 211.049908 119.378325 
L 210.822862 119.462485 
L 210.826794 119.400654 
L 210.670788 119.315377 
L 210.821692 119.140146 
L 210.834653 119.190128 
L 210.884047 119.292161 
L 210.834673 119.323418 
L 210.609621 119.368647 
L 210.455928 119.461266 
L 210.492838 119.394678 
L 210.481747 119.152508 
L 210.545538 119.045382 
L 210.488878 119.021997 
L 210.378654 119.13241 
L 210.420446 119.137879 
L 210.37847 119.174065 
L 210.503982 118.948852 
L 210.557528 118.978597 
L 210.935212 119.089068 
L 210.80574 119.227545 
L 210.961639 118.894775 
L 210.884993 119.015467 
L 210.971494 119.118575 
L 210.971494 119.118575 
" clip-path="url(#pab5eddab7c)" style="fill: none; stroke: #1f77b4; stroke-width: 2; stroke-linecap: square"/>
   </g>
   <g id="line2d_20">
    <path d="M 140.819 211.392 
L 143.250058 199.546526 
L 148.137391 178.439752 
L 150.309951 170.531708 
L 152.15302 163.890555 
L 152.85308 160.968836 
L 153.62482 158.384196 
L 154.461731 156.064456 
L 155.749219 151.823333 
L 160.423283 139.221739 
L 161.32681 137.142323 
L 162.590756 133.395119 
L 162.90552 132.9237 
L 163.251408 132.275308 
L 163.503882 132.089664 
L 163.86188 131.578325 
L 163.95352 131.500298 
L 163.806973 131.062018 
L 164.082222 130.894374 
L 164.483008 130.697656 
L 164.432396 130.53487 
L 164.666292 130.294266 
L 164.66995 130.391799 
L 165.04618 130.374287 
L 164.828394 130.522693 
L 164.727251 130.539819 
L 164.750921 130.469893 
L 164.736656 130.14913 
L 164.649059 130.363723 
L 164.721452 130.329258 
L 164.946086 130.25917 
L 164.592099 130.305528 
L 164.656 130.44234 
L 164.712083 130.468356 
L 164.597655 130.313523 
L 164.235373 130.124853 
L 164.082192 130.060638 
L 164.07774 130.015296 
L 163.89329 130.156838 
L 163.98125 130.158663 
L 164.363308 130.186418 
L 164.259352 130.169748 
L 164.210386 130.123103 
L 164.318457 130.110963 
L 164.388426 129.995881 
L 164.256171 130.04681 
L 164.07421 129.99089 
L 164.184077 129.924068 
L 164.374853 130.023415 
L 164.40612 130.175015 
L 164.488383 130.035426 
L 164.513365 130.072785 
L 164.430254 129.77388 
L 164.585503 129.777607 
L 164.467654 129.816711 
L 164.61805 129.96861 
L 164.74569 130.121543 
L 164.59153 130.33293 
L 164.826083 130.084125 
L 164.532448 130.232204 
L 164.336788 130.14626 
L 164.266618 130.339538 
L 164.426941 130.309207 
L 164.374727 130.21739 
L 164.370539 130.169114 
L 164.424277 130.188512 
L 164.594164 130.124893 
L 164.530283 130.272718 
L 164.39834 130.388153 
L 164.465868 130.266205 
L 164.267053 130.17492 
L 164.078879 129.982587 
L 164.301941 130.197621 
L 164.188652 130.116929 
L 163.958125 130.131663 
L 163.971153 130.124485 
L 163.896188 130.000075 
L 163.966496 129.97276 
L 163.994443 129.953638 
L 163.913646 129.924956 
L 163.896308 129.894502 
L 163.897995 129.632658 
L 163.863678 130.048053 
L 163.974644 130.013439 
L 164.643508 130.092593 
L 164.547726 129.97722 
L 164.683694 129.918748 
L 164.572324 130.085419 
L 164.850854 130.253711 
L 164.782011 130.254804 
L 164.787447 130.204498 
L 164.638904 130.414471 
L 164.820912 130.49041 
L 164.62863 130.458172 
L 164.641934 130.428575 
L 164.527787 130.200192 
L 164.34943 130.35996 
L 164.341141 130.289875 
L 164.170697 130.285606 
L 164.188833 130.283639 
L 164.093578 130.33441 
L 164.32437 130.203112 
L 164.269386 130.13674 
" clip-path="url(#pab5eddab7c)" style="fill: none; stroke: #1f77b4; stroke-width: 2; stroke-linecap: square"/>
   </g>
   <g id="patch_3">
    <path d="M 70.76 233.08 
L 70.76 16.2 
" style="fill: none; stroke: #000000; stroke-width: 0.8; stroke-linejoin: miter; stroke-linecap: square"/>
   </g>
   <g id="patch_4">
    <path d="M 304.29 233.08 
L 304.29 16.2 
" style="fill: none; stroke: #000000; stroke-width: 0.8; stroke-linejoin: miter; stroke-linecap: square"/>
   </g>
   <g id="patch_5">
    <path d="M 70.76 233.08 
L 304.29 233.08 
" style="fill: none; stroke: #000000; stroke-width: 0.8; stroke-linejoin: miter; stroke-linecap: square"/>
   </g>
   <g id="patch_6">
    <path d="M 70.76 16.2 
L 304.29 16.2 
" style="fill: none; stroke: #000000; stroke-width: 0.8; stroke-linejoin: miter; stroke-linecap: square"/>
   </g>
   <g id="legend_1">
    <g id="patch_7">
     <path d="M 193.55 150.724688 
L 294.49 150.724688 
Q 297.29 150.724688 297.29 147.924688 
L 297.29 26 
Q 297.29 23.2 294.49 23.2 
L 193.55 23.2 
Q 190.75 23.2 190.75 26 
L 190.75 147.924688 
Q 190.75 150.724688 193.55 150.724688 
z
" style="fill: #ffffff; opacity: 0.8; stroke: #cccccc; stroke-linejoin: miter"/>
    </g>
    <g id="patch_8">
     <path d="M 196.35 39.437813 
L 224.35 39.437813 
L 224.35 29.637813 
L 196.35 29.637813 
z
" style="fill: #808080"/>
    </g>
    <g id="text_13">
     <!-- $\Delta \theta$ -->
     <g transform="translate(235.55 39.437813) scale(0.14 -0.14)">
      <defs>
       <path id="DejaVuSans-394" d="M 2188 4044 
L 906 525 
L 3472 525 
L 2188 4044 
z
M 50 0 
L 1831 4666 
L 2547 4666 
L 4325 0 
L 50 0 
z
" transform="scale(0.015625)"/>
       <path id="DejaVuSans-Oblique-3b8" d="M 2913 2219 
L 925 2219 
Q 791 1284 928 888 
Q 1100 400 1566 400 
Q 2034 400 2391 891 
Q 2703 1322 2913 2219 
z
M 3009 2750 
Q 3094 3638 2984 3950 
Q 2813 4444 2353 4444 
Q 1875 4444 1525 3956 
Q 1250 3563 1034 2750 
L 3009 2750 
z
M 2444 4913 
Q 3194 4913 3494 4250 
Q 3794 3591 3566 2422 
Q 3341 1256 2781 594 
Q 2225 -72 1475 -72 
Q 722 -72 425 594 
Q 128 1256 353 2422 
Q 581 3591 1134 4250 
Q 1691 4913 2444 4913 
z
" transform="scale(0.015625)"/>
      </defs>
      <use xlink:href="#DejaVuSans-394" transform="translate(0 0.234375)"/>
      <use xlink:href="#DejaVuSans-Oblique-3b8" transform="translate(68.408203 0.234375)"/>
     </g>
    </g>
    <g id="line2d_21">
     <path d="M 196.35 55.087188 
L 210.35 55.087188 
L 224.35 55.087188 
" style="fill: none; stroke: #008000; stroke-opacity: 0.5; stroke-width: 1.6; stroke-linecap: square"/>
    </g>
    <g id="text_14">
     <!-- $\Delta \mu = 0$ -->
     <g transform="translate(235.55 59.987188) scale(0.14 -0.14)">
      <defs>
       <path id="DejaVuSans-3d" d="M 678 2906 
L 4684 2906 
L 4684 2381 
L 678 2381 
L 678 2906 
z
M 678 1631 
L 4684 1631 
L 4684 1100 
L 678 1100 
L 678 1631 
z
" transform="scale(0.015625)"/>
      </defs>
      <use xlink:href="#DejaVuSans-394" transform="translate(0 0.78125)"/>
      <use xlink:href="#DejaVuSans-Oblique-3bc" transform="translate(68.408203 0.78125)"/>
      <use xlink:href="#DejaVuSans-3d" transform="translate(151.513672 0.78125)"/>
      <use xlink:href="#DejaVuSans-30" transform="translate(254.785156 0.78125)"/>
     </g>
    </g>
    <g id="line2d_22">
     <path d="M 196.35 75.665 
L 210.35 75.665 
L 224.35 75.665 
" style="fill: none; stroke: #cc99ff; stroke-opacity: 0.5; stroke-width: 1.6; stroke-linecap: square"/>
    </g>
    <g id="text_15">
     <!-- $\Delta W_0 = 0$ -->
     <g transform="translate(235.55 80.565) scale(0.14 -0.14)">
      <use xlink:href="#DejaVuSans-394" transform="translate(0 0.78125)"/>
      <use xlink:href="#DejaVuSans-Oblique-57" transform="translate(68.408203 0.78125)"/>
      <use xlink:href="#DejaVuSans-30" transform="translate(167.285156 -15.625) scale(0.7)"/>
      <use xlink:href="#DejaVuSans-3d" transform="translate(234.038086 0.78125)"/>
      <use xlink:href="#DejaVuSans-30" transform="translate(337.30957 0.78125)"/>
     </g>
    </g>
    <g id="line2d_23">
     <path d="M 196.35 96.214375 
L 210.35 96.214375 
L 224.35 96.214375 
" style="fill: none; stroke: #cc99ff; stroke-opacity: 0.5; stroke-width: 1.6; stroke-linecap: square"/>
    </g>
    <g id="text_16">
     <!-- $\Delta W_0 = 0$ -->
     <g transform="translate(235.55 101.114375) scale(0.14 -0.14)">
      <use xlink:href="#DejaVuSans-394" transform="translate(0 0.78125)"/>
      <use xlink:href="#DejaVuSans-Oblique-57" transform="translate(68.408203 0.78125)"/>
      <use xlink:href="#DejaVuSans-30" transform="translate(167.285156 -15.625) scale(0.7)"/>
      <use xlink:href="#DejaVuSans-3d" transform="translate(234.038086 0.78125)"/>
      <use xlink:href="#DejaVuSans-30" transform="translate(337.30957 0.78125)"/>
     </g>
    </g>
    <g id="PathCollection_2">
     <path d="M 210.35 120.98875 
C 211.145609 120.98875 211.90874 120.672651 212.47132 120.11007 
C 213.033901 119.54749 213.35 118.784359 213.35 117.98875 
C 213.35 117.193141 213.033901 116.43001 212.47132 115.86743 
C 211.90874 115.304849 211.145609 114.98875 210.35 114.98875 
C 209.554391 114.98875 208.79126 115.304849 208.22868 115.86743 
C 207.666099 116.43001 207.35 117.193141 207.35 117.98875 
C 207.35 118.784359 207.666099 119.54749 208.22868 120.11007 
C 208.79126 120.672651 209.554391 120.98875 210.35 120.98875 
L 210.35 120.98875 
z
" style="fill: none; stroke: #000000; stroke-width: 2"/>
    </g>
    <g id="text_17">
     <!-- data -->
     <g transform="translate(235.55 121.66375) scale(0.14 -0.14)">
      <defs>
       <path id="DejaVuSans-64" d="M 2906 2969 
L 2906 4863 
L 3481 4863 
L 3481 0 
L 2906 0 
L 2906 525 
Q 2725 213 2448 61 
Q 2172 -91 1784 -91 
Q 1150 -91 751 415 
Q 353 922 353 1747 
Q 353 2572 751 3078 
Q 1150 3584 1784 3584 
Q 2172 3584 2448 3432 
Q 2725 3281 2906 2969 
z
M 947 1747 
Q 947 1113 1208 752 
Q 1469 391 1925 391 
Q 2381 391 2643 752 
Q 2906 1113 2906 1747 
Q 2906 2381 2643 2742 
Q 2381 3103 1925 3103 
Q 1469 3103 1208 2742 
Q 947 2381 947 1747 
z
" transform="scale(0.015625)"/>
      </defs>
      <use xlink:href="#DejaVuSans-64"/>
      <use xlink:href="#DejaVuSans-61" x="63.476562"/>
      <use xlink:href="#DejaVuSans-74" x="124.755859"/>
      <use xlink:href="#DejaVuSans-61" x="163.964844"/>
     </g>
    </g>
    <g id="line2d_24">
     <path d="M 196.35 137.313125 
L 210.35 137.313125 
L 224.35 137.313125 
" style="fill: none; stroke: #1f77b4; stroke-width: 2; stroke-linecap: square"/>
    </g>
    <g id="text_18">
     <!-- MCPC -->
     <g transform="translate(235.55 142.213125) scale(0.14 -0.14)">
      <defs>
       <path id="DejaVuSans-4d" d="M 628 4666 
L 1569 4666 
L 2759 1491 
L 3956 4666 
L 4897 4666 
L 4897 0 
L 4281 0 
L 4281 4097 
L 3078 897 
L 2444 897 
L 1241 4097 
L 1241 0 
L 628 0 
L 628 4666 
z
" transform="scale(0.015625)"/>
       <path id="DejaVuSans-43" d="M 4122 4306 
L 4122 3641 
Q 3803 3938 3442 4084 
Q 3081 4231 2675 4231 
Q 1875 4231 1450 3742 
Q 1025 3253 1025 2328 
Q 1025 1406 1450 917 
Q 1875 428 2675 428 
Q 3081 428 3442 575 
Q 3803 722 4122 1019 
L 4122 359 
Q 3791 134 3420 21 
Q 3050 -91 2638 -91 
Q 1578 -91 968 557 
Q 359 1206 359 2328 
Q 359 3453 968 4101 
Q 1578 4750 2638 4750 
Q 3056 4750 3426 4639 
Q 3797 4528 4122 4306 
z
" transform="scale(0.015625)"/>
       <path id="DejaVuSans-50" d="M 1259 4147 
L 1259 2394 
L 2053 2394 
Q 2494 2394 2734 2622 
Q 2975 2850 2975 3272 
Q 2975 3691 2734 3919 
Q 2494 4147 2053 4147 
L 1259 4147 
z
M 628 4666 
L 2053 4666 
Q 2838 4666 3239 4311 
Q 3641 3956 3641 3272 
Q 3641 2581 3239 2228 
Q 2838 1875 2053 1875 
L 1259 1875 
L 1259 0 
L 628 0 
L 628 4666 
z
" transform="scale(0.015625)"/>
      </defs>
      <use xlink:href="#DejaVuSans-4d"/>
      <use xlink:href="#DejaVuSans-43" x="86.279297"/>
      <use xlink:href="#DejaVuSans-50" x="156.103516"/>
      <use xlink:href="#DejaVuSans-43" x="216.40625"/>
     </g>
    </g>
   </g>
  </g>
 </g>
 <defs>
  <clipPath id="pab5eddab7c">
   <rect x="70.76" y="16.2" width="233.53" height="216.88"/>
  </clipPath>
 </defs>
</svg>
