<?xml version="1.0" encoding="utf-8" standalone="no"?>
<!DOCTYPE svg PUBLIC "-//W3C//DTD SVG 1.1//EN"
  "http://www.w3.org/Graphics/SVG/1.1/DTD/svg11.dtd">
<svg xmlns:xlink="http://www.w3.org/1999/xlink" width="324pt" height="288pt" viewBox="0 0 324 288" xmlns="http://www.w3.org/2000/svg" version="1.1">
 <metadata>
  <rdf:RDF xmlns:dc="http://purl.org/dc/elements/1.1/" xmlns:cc="http://creativecommons.org/ns#" xmlns:rdf="http://www.w3.org/1999/02/22-rdf-syntax-ns#">
   <cc:Work>
    <dc:type rdf:resource="http://purl.org/dc/dcmitype/StillImage"/>
    <dc:date>2024-02-09T11:53:27.302157</dc:date>
    <dc:format>image/svg+xml</dc:format>
    <dc:creator>
     <cc:Agent>
      <dc:title>Matplotlib v3.6.2, https://matplotlib.org/</dc:title>
     </cc:Agent>
    </dc:creator>
   </cc:Work>
  </rdf:RDF>
 </metadata>
 <defs>
  <style type="text/css">*{stroke-linejoin: round; stroke-linecap: butt}</style>
 </defs>
 <g id="figure_1">
  <g id="patch_1">
   <path d="M 0 288 
L 324 288 
L 324 0 
L 0 0 
z
" style="fill: #ffffff"/>
  </g>
  <g id="axes_1">
   <g id="patch_2">
    <path d="M 70.76 233.08 
L 304.29 233.08 
L 304.29 16.2 
L 70.76 16.2 
z
" style="fill: #ffffff"/>
   </g>
   <g id="Quiver_1">
    <path d="M 70.092138 233.067109 
L 70.414146 216.384405 
L 69.065531 217.026485 
L 71.198028 210.386538 
L 73.072703 217.103831 
L 71.74987 216.410187 
L 71.427862 233.092891 
L 70.092138 233.067109 
" clip-path="url(#p8a0155be61)" style="fill: #808080"/>
    <path d="M 93.445391 233.057541 
L 94.000557 216.555233 
L 92.64288 217.177923 
L 94.870301 210.569215 
L 96.648532 217.31268 
L 95.335774 216.600152 
L 94.780609 233.102459 
L 93.445391 233.057541 
" clip-path="url(#p8a0155be61)" style="fill: #808080"/>
    <path d="M 116.799634 233.0335 
L 117.926849 216.880042 
L 116.547617 217.453407 
L 119.011716 210.929249 
L 120.545813 217.732408 
L 119.259581 216.973042 
L 118.132366 233.1265 
L 116.799634 233.0335 
" clip-path="url(#p8a0155be61)" style="fill: #808080"/>
    <path d="M 140.163777 232.950043 
L 143.207969 217.60176 
L 141.767566 217.997068 
L 145.032809 211.834713 
L 145.698903 218.776813 
L 144.518415 217.861675 
L 141.474223 233.209957 
L 140.163777 232.950043 
" clip-path="url(#p8a0155be61)" style="fill: #808080"/>
    <path d="M 163.73311 232.576431 
L 179.389463 218.930986 
L 178.008114 218.362739 
L 184.36047 215.484544 
L 180.641455 221.38415 
L 180.267243 219.938123 
L 164.61089 233.583569 
L 163.73311 232.576431 
" clip-path="url(#p8a0155be61)" style="fill: #808080"/>
    <path d="M 210.344222 233.481605 
L 199.326654 218.838002 
L 198.660701 220.17499 
L 196.245989 213.632391 
L 201.863372 217.765361 
L 200.39421 218.034792 
L 211.411778 232.678395 
L 210.344222 233.481605 
" clip-path="url(#p8a0155be61)" style="fill: #808080"/>
    <path d="M 233.565198 233.133971 
L 232.240441 216.791404 
L 230.962808 217.565149 
L 232.420504 210.745211 
L 234.957622 217.241322 
L 233.572046 216.683462 
L 234.896802 233.026029 
L 233.565198 233.133971 
" clip-path="url(#p8a0155be61)" style="fill: #808080"/>
    <path d="M 256.916097 233.090555 
L 256.649182 216.200057 
L 255.323931 216.889069 
L 257.222093 210.178376 
L 259.331348 216.825741 
L 257.984988 216.178948 
L 258.251903 233.069445 
L 256.916097 233.090555 
" clip-path="url(#p8a0155be61)" style="fill: #808080"/>
    <path d="M 280.269016 233.081935 
L 280.219577 216.013108 
L 278.885545 216.684961 
L 280.870147 209.999321 
L 282.893446 216.673352 
L 281.555544 216.009238 
L 281.604984 233.078065 
L 280.269016 233.081935 
" clip-path="url(#p8a0155be61)" style="fill: #808080"/>
    <path d="M 303.622014 233.079673 
L 303.630415 215.939634 
L 302.294115 216.606965 
L 304.301348 209.928085 
L 306.302033 216.60893 
L 304.966387 215.940289 
L 304.957986 233.080327 
L 303.622014 233.079673 
" clip-path="url(#p8a0155be61)" style="fill: #808080"/>
    <path d="M 70.092112 211.380516 
L 70.300138 199.28258 
L 68.952878 199.927499 
L 71.071385 193.283076 
L 72.960204 199.996406 
L 71.635913 199.305549 
L 71.427888 211.403484 
L 70.092112 211.380516 
" clip-path="url(#p8a0155be61)" style="fill: #808080"/>
    <path d="M 93.445305 211.372271 
L 93.798181 199.429886 
L 92.443062 200.058123 
L 94.643439 193.440361 
L 96.449232 200.176498 
L 95.133571 199.469345 
L 94.780695 211.411729 
L 93.445305 211.372271 
" clip-path="url(#p8a0155be61)" style="fill: #808080"/>
    <path d="M 116.79922 211.351868 
L 117.500077 199.707372 
L 116.126386 200.293887 
L 118.528045 193.746486 
L 120.127064 200.534679 
L 118.833637 199.787636 
L 118.13278 211.432132 
L 116.79922 211.351868 
" clip-path="url(#p8a0155be61)" style="fill: #808080"/>
    <path d="M 140.160136 211.281981 
L 141.989852 200.324476 
L 140.562106 200.763302 
L 143.638887 194.504721 
L 144.515289 201.423416 
L 143.30758 200.544514 
L 141.477864 211.502019 
L 140.160136 211.281981 
" clip-path="url(#p8a0155be61)" style="fill: #808080"/>
    <path d="M 163.683665 210.936221 
L 172.546724 201.440086 
L 171.114275 201.016862 
L 177.137073 197.500851 
L 174.044285 203.751538 
L 173.523394 202.351645 
L 164.660335 211.847779 
L 163.683665 210.936221 
" clip-path="url(#p8a0155be61)" style="fill: #808080"/>
    <path d="M 210.290524 211.709928 
L 204.631971 201.253906 
L 203.774948 202.477237 
L 202.358095 195.648698 
L 207.299802 200.56967 
L 205.806922 200.61805 
L 211.465476 211.074072 
L 210.290524 211.709928 
" clip-path="url(#p8a0155be61)" style="fill: #808080"/>
    <path d="M 233.563844 211.425298 
L 232.966292 199.45292 
L 231.665279 200.186673 
L 233.333763 193.415219 
L 235.668214 199.986883 
L 234.300604 199.386323 
L 234.898156 211.358702 
L 233.563844 211.425298 
" clip-path="url(#p8a0155be61)" style="fill: #808080"/>
    <path d="M 256.916027 211.396176 
L 256.838609 199.011549 
L 255.506838 199.687873 
L 257.469001 192.995613 
L 259.514677 199.662819 
L 258.174555 199.003197 
L 258.251973 211.387824 
L 256.916027 211.396176 
" clip-path="url(#p8a0155be61)" style="fill: #808080"/>
    <path d="M 280.269014 211.391209 
L 280.283818 198.88155 
L 278.947056 199.547955 
L 280.958919 192.870468 
L 282.954971 199.552698 
L 281.61979 198.883131 
L 281.604986 211.392791 
L 280.269014 211.391209 
" clip-path="url(#p8a0155be61)" style="fill: #808080"/>
    <path d="M 303.622016 211.390269 
L 303.654552 198.834748 
L 302.316853 199.49927 
L 304.338115 192.824622 
L 306.324757 199.509656 
L 304.99052 198.83821 
L 304.957984 211.393731 
L 303.622016 211.390269 
" clip-path="url(#p8a0155be61)" style="fill: #808080"/>
    <path d="M 70.092089 189.69398 
L 70.204805 182.180794 
L 68.858963 182.828665 
L 70.9629 176.179614 
L 72.86643 182.888787 
L 71.540628 182.200835 
L 71.427911 189.71402 
L 70.092089 189.69398 
" clip-path="url(#p8a0155be61)" style="fill: #808080"/>
    <path d="M 93.445227 189.687114 
L 93.631905 182.304578 
L 92.279474 182.93858 
L 94.451648 176.311507 
L 96.286111 183.039893 
L 94.967451 182.338349 
L 94.780773 189.720886 
L 93.445227 189.687114 
" clip-path="url(#p8a0155be61)" style="fill: #808080"/>
    <path d="M 116.798854 189.670514 
L 117.157029 182.534556 
L 115.78925 183.13473 
L 118.125551 176.563724 
L 119.792129 183.335647 
L 118.491322 182.601528 
L 118.133146 189.737486 
L 116.798854 189.670514 
" clip-path="url(#p8a0155be61)" style="fill: #808080"/>
    <path d="M 140.156955 189.615106 
L 141.039232 183.044241 
L 139.626249 183.528499 
L 142.501319 177.174728 
L 143.598519 184.06186 
L 142.363322 183.222028 
L 141.481045 189.792894 
L 140.156955 189.615106 
" clip-path="url(#p8a0155be61)" style="fill: #808080"/>
    <path d="M 163.627102 189.317617 
L 167.373056 184.034861 
L 165.896877 183.806994 
L 171.395398 179.517157 
L 169.166268 186.125289 
L 168.462853 184.807626 
L 164.716898 190.090383 
L 163.627102 189.317617 
" clip-path="url(#p8a0155be61)" style="fill: #808080"/>
    <path d="M 210.242364 189.909359 
L 208.201076 183.591089 
L 207.135163 184.637443 
L 206.988478 177.665004 
L 210.94898 183.405287 
L 209.472349 183.18037 
L 211.513636 189.498641 
L 210.242364 189.909359 
" clip-path="url(#p8a0155be61)" style="fill: #808080"/>
    <path d="M 233.563118 189.715786 
L 233.428862 182.107954 
L 232.104883 182.799408 
L 233.990669 176.085226 
L 236.112177 182.728691 
L 234.764627 182.084381 
L 234.898882 189.692214 
L 233.563118 189.715786 
" clip-path="url(#p8a0155be61)" style="fill: #808080"/>
    <path d="M 256.916018 189.70156 
L 256.944796 181.822248 
L 255.606392 182.485351 
L 257.634735 175.812851 
L 259.614284 182.499989 
L 258.28076 181.827128 
L 258.251982 189.70644 
L 256.916018 189.70156 
" clip-path="url(#p8a0155be61)" style="fill: #808080"/>
    <path d="M 280.269023 189.700382 
L 280.312084 181.749785 
L 278.972513 182.410526 
L 281.01262 175.741614 
L 282.980372 182.432233 
L 281.648037 181.757021 
L 281.604977 189.707618 
L 280.269023 189.700382 
" clip-path="url(#p8a0155be61)" style="fill: #808080"/>
    <path d="M 303.622021 189.700812 
L 303.660059 181.729781 
L 302.320914 182.391385 
L 304.356725 175.72116 
L 306.328786 182.41051 
L 304.996016 181.736156 
L 304.957979 189.707188 
L 303.622021 189.700812 
" clip-path="url(#p8a0155be61)" style="fill: #808080"/>
    <path d="M 70.092067 168.007589 
L 70.128942 165.079141 
L 68.784664 165.730254 
L 70.872571 159.076151 
L 72.792265 165.780717 
L 71.464809 165.095963 
L 71.427933 168.024411 
L 70.092067 168.007589 
" clip-path="url(#p8a0155be61)" style="fill: #808080"/>
    <path d="M 93.445155 168.002245 
L 93.503291 165.179502 
L 92.153847 165.819837 
L 94.294927 159.182654 
L 96.160915 165.902365 
L 94.838981 165.207011 
L 94.780845 168.029755 
L 93.445155 168.002245 
" clip-path="url(#p8a0155be61)" style="fill: #808080"/>
    <path d="M 116.798525 167.989855 
L 116.901454 165.362087 
L 115.54036 165.977272 
L 117.804231 159.380961 
L 119.545207 166.134141 
L 118.236403 165.414377 
L 118.133475 168.042145 
L 116.798525 167.989855 
" clip-path="url(#p8a0155be61)" style="fill: #808080"/>
    <path d="M 140.154201 167.950824 
L 140.368718 165.762751 
L 138.973943 166.297197 
L 141.620104 159.844736 
L 142.962738 166.688256 
L 141.698316 165.893104 
L 141.483799 168.081176 
L 140.154201 167.950824 
" clip-path="url(#p8a0155be61)" style="fill: #808080"/>
    <path d="M 163.564483 167.738278 
L 164.028432 166.723391 
L 162.535677 166.775464 
L 167.135445 161.533464 
L 166.180776 168.441795 
L 165.243465 167.278834 
L 164.779517 168.293722 
L 163.564483 167.738278 
" clip-path="url(#p8a0155be61)" style="fill: #808080"/>
    <path d="M 210.212637 168.075143 
L 210.004066 165.72872 
L 208.732484 166.51237 
L 210.137139 159.68131 
L 212.724661 166.15751 
L 211.334792 165.610433 
L 211.543363 167.956857 
L 210.212637 168.075143 
" clip-path="url(#p8a0155be61)" style="fill: #808080"/>
    <path d="M 233.563114 168.004445 
L 233.619338 164.754656 
L 232.27201 165.399433 
L 234.391221 158.755234 
L 236.279329 165.468763 
L 234.955111 164.777767 
L 234.898886 168.027555 
L 233.563114 168.004445 
" clip-path="url(#p8a0155be61)" style="fill: #808080"/>
    <path d="M 256.916083 168.006372 
L 256.964727 164.631713 
L 255.619265 165.280375 
L 257.719292 158.630088 
L 259.626767 165.338141 
L 258.300561 164.650969 
L 258.251917 168.025628 
L 256.916083 168.006372 
" clip-path="url(#p8a0155be61)" style="fill: #808080"/>
    <path d="M 280.269047 168.009305 
L 280.303043 164.617641 
L 278.960442 165.272203 
L 281.031252 158.612761 
L 282.968159 165.312374 
L 281.638949 164.631031 
L 281.604953 168.022695 
L 280.269047 168.009305 
" clip-path="url(#p8a0155be61)" style="fill: #808080"/>
    <path d="M 303.622031 168.011225 
L 303.646238 164.624647 
L 302.305525 165.283067 
L 304.357179 158.617698 
L 306.313341 165.311715 
L 304.982177 164.634196 
L 304.957969 168.020775 
L 303.622031 168.011225 
" clip-path="url(#p8a0155be61)" style="fill: #808080"/>
    <path d="M 70.324469 146.32396 
L 70.328509 145.888429 
L 69.453407 146.31588 
L 70.800398 141.972689 
L 72.066593 146.34012 
L 71.199571 145.896509 
L 71.195531 146.33204 
L 70.324469 146.32396 
" clip-path="url(#p8a0155be61)" style="fill: #808080"/>
    <path d="M 93.68558 146.321972 
L 93.691608 145.894552 
L 92.83074 146.309917 
L 94.173277 142.0538 
L 95.39526 146.346083 
L 94.546448 145.906608 
L 94.54042 146.334028 
L 93.68558 146.321972 
" clip-path="url(#p8a0155be61)" style="fill: #808080"/>
    <path d="M 117.05302 146.318191 
L 117.062829 145.905211 
L 116.22706 146.298574 
L 117.564087 142.198199 
L 118.70494 146.357426 
L 117.888789 145.924829 
L 117.87898 146.337809 
L 117.05302 146.318191 
" clip-path="url(#p8a0155be61)" style="fill: #808080"/>
    <path d="M 140.437674 146.310376 
L 140.455299 145.92905 
L 139.675023 146.275127 
L 140.995243 142.514743 
L 141.962977 146.380873 
L 141.21795 145.964299 
L 141.200326 146.345624 
L 140.437674 146.310376 
" clip-path="url(#p8a0155be61)" style="fill: #808080"/>
    <path d="M 163.894177 146.309478 
L 163.912699 146.031655 
L 163.338531 146.272435 
L 164.357215 143.54977 
L 165.005469 146.383565 
L 164.468345 146.068699 
L 164.449823 146.346522 
L 163.894177 146.309478 
" clip-path="url(#p8a0155be61)" style="fill: #808080"/>
    <path d="M 210.414962 146.235392 
L 210.507569 145.772354 
L 209.488885 146.050177 
L 211.804077 141.697617 
L 212.267115 146.605823 
L 211.433646 145.957569 
L 211.341038 146.420608 
L 210.414962 146.235392 
" clip-path="url(#p8a0155be61)" style="fill: #808080"/>
    <path d="M 233.740724 146.297558 
L 233.771166 145.807282 
L 232.760172 146.236674 
L 234.53542 141.425241 
L 235.701828 146.419326 
L 234.751718 145.868166 
L 234.721276 146.358442 
L 233.740724 146.297558 
" clip-path="url(#p8a0155be61)" style="fill: #808080"/>
    <path d="M 257.095933 146.314133 
L 257.1098 145.826065 
L 256.119798 146.286398 
L 257.722675 141.447326 
L 259.048202 146.369602 
L 258.085935 145.8538 
L 258.072067 146.341867 
L 257.095933 146.314133 
" clip-path="url(#p8a0155be61)" style="fill: #808080"/>
    <path d="M 280.452591 146.320219 
L 280.460372 145.835809 
L 279.483772 146.304656 
L 281.014812 141.483907 
L 282.390228 146.351344 
L 281.429191 145.851372 
L 281.421409 146.335781 
L 280.452591 146.320219 
" clip-path="url(#p8a0155be61)" style="fill: #808080"/>
    <path d="M 303.808624 146.323052 
L 303.813571 145.841676 
L 302.845871 146.313157 
L 304.339477 141.514235 
L 305.734129 146.342843 
L 304.776324 145.851571 
L 304.771376 146.332948 
L 303.808624 146.323052 
" clip-path="url(#p8a0155be61)" style="fill: #808080"/>
    <path d="M 70.720387 125.306811 
L 71.317669 125.007711 
L 71.357281 124.3409 
L 70.799613 123.973189 
L 70.202331 124.272289 
L 70.162719 124.9391 
L 70.720387 125.306811 
L 71.317669 125.007711 
" clip-path="url(#p8a0155be61)" style="fill: #808080"/>
    <path d="M 94.051601 125.305159 
L 94.658345 125.025753 
L 94.719744 124.360594 
L 94.174399 123.974841 
L 93.567655 124.254247 
L 93.506256 124.919406 
L 94.051601 125.305159 
L 94.658345 125.025753 
" clip-path="url(#p8a0155be61)" style="fill: #808080"/>
    <path d="M 117.359075 125.299373 
L 117.983571 125.062287 
L 118.090496 124.402914 
L 117.572925 123.980627 
L 116.948429 124.217713 
L 116.841504 124.877086 
L 117.359075 125.299373 
L 117.983571 125.062287 
" clip-path="url(#p8a0155be61)" style="fill: #808080"/>
    <path d="M 140.596681 125.269905 
L 141.253354 125.147486 
L 141.475673 124.517582 
L 141.041319 124.010095 
L 140.384646 124.132514 
L 140.162327 124.762418 
L 140.596681 125.269905 
L 141.253354 125.147486 
" clip-path="url(#p8a0155be61)" style="fill: #808080"/>
    <path d="M 164.264608 124.751129 
L 164.153478 124.843737 
L 164.449823 124.973388 
L 163.060708 125.566077 
L 163.894177 124.306612 
L 163.968263 124.621478 
L 164.079392 124.528871 
L 164.264608 124.751129 
" clip-path="url(#p8a0155be61)" style="fill: #808080"/>
    <path d="M 210.785392 124.528871 
L 210.896522 124.436263 
L 210.600177 124.306612 
L 211.989292 123.713923 
L 211.155823 124.973388 
L 211.081737 124.658522 
L 210.970608 124.751129 
L 210.785392 124.528871 
" clip-path="url(#p8a0155be61)" style="fill: #808080"/>
    <path d="M 234.453319 124.010095 
L 233.796646 124.132514 
L 233.574327 124.762418 
L 234.008681 125.269905 
L 234.665354 125.147486 
L 234.887673 124.517582 
L 234.453319 124.010095 
L 233.796646 124.132514 
" clip-path="url(#p8a0155be61)" style="fill: #808080"/>
    <path d="M 257.690925 123.980627 
L 257.066429 124.217713 
L 256.959504 124.877086 
L 257.477075 125.299373 
L 258.101571 125.062287 
L 258.208496 124.402914 
L 257.690925 123.980627 
L 257.066429 124.217713 
" clip-path="url(#p8a0155be61)" style="fill: #808080"/>
    <path d="M 280.998399 123.974841 
L 280.391655 124.254247 
L 280.330256 124.919406 
L 280.875601 125.305159 
L 281.482345 125.025753 
L 281.543744 124.360594 
L 280.998399 123.974841 
L 280.391655 124.254247 
" clip-path="url(#p8a0155be61)" style="fill: #808080"/>
    <path d="M 304.329613 123.973189 
L 303.732331 124.272289 
L 303.692719 124.9391 
L 304.250387 125.306811 
L 304.847669 125.007711 
L 304.887281 124.3409 
L 304.329613 123.973189 
L 303.732331 124.272289 
" clip-path="url(#p8a0155be61)" style="fill: #808080"/>
    <path d="M 71.241376 102.956948 
L 71.236429 103.438324 
L 72.204129 102.966843 
L 70.710523 107.765765 
L 69.315871 102.937157 
L 70.273676 103.428429 
L 70.278624 102.947052 
L 71.241376 102.956948 
" clip-path="url(#p8a0155be61)" style="fill: #808080"/>
    <path d="M 94.597409 102.959781 
L 94.589628 103.444191 
L 95.566228 102.975344 
L 94.035188 107.796093 
L 92.659772 102.928656 
L 93.620809 103.428628 
L 93.628591 102.944219 
L 94.597409 102.959781 
" clip-path="url(#p8a0155be61)" style="fill: #808080"/>
    <path d="M 117.954067 102.965867 
L 117.9402 103.453935 
L 118.930202 102.993602 
L 117.327325 107.832674 
L 116.001798 102.910398 
L 116.964065 103.4262 
L 116.977933 102.938133 
L 117.954067 102.965867 
" clip-path="url(#p8a0155be61)" style="fill: #808080"/>
    <path d="M 141.309276 102.982442 
L 141.278834 103.472718 
L 142.289828 103.043326 
L 140.51458 107.854759 
L 139.348172 102.860674 
L 140.298282 103.411834 
L 140.328724 102.921558 
L 141.309276 102.982442 
" clip-path="url(#p8a0155be61)" style="fill: #808080"/>
    <path d="M 164.635038 103.044608 
L 164.542431 103.507646 
L 165.561115 103.229823 
L 163.245923 107.582383 
L 162.782885 102.674177 
L 163.616354 103.322431 
L 163.708962 102.859392 
L 164.635038 103.044608 
" clip-path="url(#p8a0155be61)" style="fill: #808080"/>
    <path d="M 211.155823 102.970522 
L 211.137301 103.248345 
L 211.711469 103.007565 
L 210.692785 105.73023 
L 210.044531 102.896435 
L 210.581655 103.211301 
L 210.600177 102.933478 
L 211.155823 102.970522 
" clip-path="url(#p8a0155be61)" style="fill: #808080"/>
    <path d="M 234.612326 102.969624 
L 234.594701 103.35095 
L 235.374977 103.004873 
L 234.054757 106.765257 
L 233.087023 102.899127 
L 233.83205 103.315701 
L 233.849674 102.934376 
L 234.612326 102.969624 
" clip-path="url(#p8a0155be61)" style="fill: #808080"/>
    <path d="M 257.99698 102.961809 
L 257.987171 103.374789 
L 258.82294 102.981426 
L 257.485913 107.081801 
L 256.34506 102.922574 
L 257.161211 103.355171 
L 257.17102 102.942191 
L 257.99698 102.961809 
" clip-path="url(#p8a0155be61)" style="fill: #808080"/>
    <path d="M 281.36442 102.958028 
L 281.358392 103.385448 
L 282.21926 102.970083 
L 280.876723 107.2262 
L 279.65474 102.933917 
L 280.503552 103.373392 
L 280.50958 102.945972 
L 281.36442 102.958028 
" clip-path="url(#p8a0155be61)" style="fill: #808080"/>
    <path d="M 304.725531 102.95604 
L 304.721491 103.391571 
L 305.596593 102.96412 
L 304.249602 107.307311 
L 302.983407 102.93988 
L 303.850429 103.383491 
L 303.854469 102.94796 
L 304.725531 102.95604 
" clip-path="url(#p8a0155be61)" style="fill: #808080"/>
    <path d="M 71.427969 81.268775 
L 71.403762 84.655353 
L 72.744475 83.996933 
L 70.692821 90.662302 
L 68.736659 83.968285 
L 70.067823 84.645804 
L 70.092031 81.259225 
L 71.427969 81.268775 
" clip-path="url(#p8a0155be61)" style="fill: #808080"/>
    <path d="M 94.780953 81.270695 
L 94.746957 84.662359 
L 96.089558 84.007797 
L 94.018748 90.667239 
L 92.081841 83.967626 
L 93.411051 84.648969 
L 93.445047 81.257305 
L 94.780953 81.270695 
" clip-path="url(#p8a0155be61)" style="fill: #808080"/>
    <path d="M 118.133917 81.273628 
L 118.085273 84.648287 
L 119.430735 83.999625 
L 117.330708 90.649912 
L 115.423233 83.941859 
L 116.749439 84.629031 
L 116.798083 81.254372 
L 118.133917 81.273628 
" clip-path="url(#p8a0155be61)" style="fill: #808080"/>
    <path d="M 141.486886 81.275555 
L 141.430662 84.525344 
L 142.77799 83.880567 
L 140.658779 90.524766 
L 138.770671 83.811237 
L 140.094889 84.502233 
L 140.151114 81.252445 
L 141.486886 81.275555 
" clip-path="url(#p8a0155be61)" style="fill: #808080"/>
    <path d="M 164.837363 81.204857 
L 165.045934 83.55128 
L 166.317516 82.76763 
L 164.912861 89.59869 
L 162.325339 83.12249 
L 163.715208 83.669567 
L 163.506637 81.323143 
L 164.837363 81.204857 
" clip-path="url(#p8a0155be61)" style="fill: #808080"/>
    <path d="M 211.485517 81.541722 
L 211.021568 82.556609 
L 212.514323 82.504536 
L 207.914555 87.746536 
L 208.869224 80.838205 
L 209.806535 82.001166 
L 210.270483 80.986278 
L 211.485517 81.541722 
" clip-path="url(#p8a0155be61)" style="fill: #808080"/>
    <path d="M 234.895799 81.329176 
L 234.681282 83.517249 
L 236.076057 82.982803 
L 233.429896 89.435264 
L 232.087262 82.591744 
L 233.351684 83.386896 
L 233.566201 81.198824 
L 234.895799 81.329176 
" clip-path="url(#p8a0155be61)" style="fill: #808080"/>
    <path d="M 258.251475 81.290145 
L 258.148546 83.917913 
L 259.50964 83.302728 
L 257.245769 89.899039 
L 255.504793 83.145859 
L 256.813597 83.865623 
L 256.916525 81.237855 
L 258.251475 81.290145 
" clip-path="url(#p8a0155be61)" style="fill: #808080"/>
    <path d="M 281.604845 81.277755 
L 281.546709 84.100498 
L 282.896153 83.460163 
L 280.755073 90.097346 
L 278.889085 83.377635 
L 280.211019 84.072989 
L 280.269155 81.250245 
L 281.604845 81.277755 
" clip-path="url(#p8a0155be61)" style="fill: #808080"/>
    <path d="M 304.957933 81.272411 
L 304.921058 84.200859 
L 306.265336 83.549746 
L 304.177429 90.203849 
L 302.257735 83.499283 
L 303.585191 84.184037 
L 303.622067 81.255589 
L 304.957933 81.272411 
" clip-path="url(#p8a0155be61)" style="fill: #808080"/>
    <path d="M 71.427979 59.579188 
L 71.389941 67.550219 
L 72.729086 66.888615 
L 70.693275 73.55884 
L 68.721214 66.86949 
L 70.053984 67.543844 
L 70.092021 59.572812 
L 71.427979 59.579188 
" clip-path="url(#p8a0155be61)" style="fill: #808080"/>
    <path d="M 94.780977 59.579618 
L 94.737916 67.530215 
L 96.077487 66.869474 
L 94.03738 73.538386 
L 92.069628 66.847767 
L 93.401963 67.522979 
L 93.445023 59.572382 
L 94.780977 59.579618 
" clip-path="url(#p8a0155be61)" style="fill: #808080"/>
    <path d="M 118.133982 59.57844 
L 118.105204 67.457752 
L 119.443608 66.794649 
L 117.415265 73.467149 
L 115.435716 66.780011 
L 116.76924 67.452872 
L 116.798018 59.57356 
L 118.133982 59.57844 
" clip-path="url(#p8a0155be61)" style="fill: #808080"/>
    <path d="M 141.486882 59.564214 
L 141.621138 67.172046 
L 142.945117 66.480592 
L 141.059331 73.194774 
L 138.937823 66.551309 
L 140.285373 67.195619 
L 140.151118 59.587786 
L 141.486882 59.564214 
" clip-path="url(#p8a0155be61)" style="fill: #808080"/>
    <path d="M 164.807636 59.370641 
L 166.848924 65.688911 
L 167.914837 64.642557 
L 168.061522 71.614996 
L 164.10102 65.874713 
L 165.577651 66.09963 
L 163.536364 59.781359 
L 164.807636 59.370641 
" clip-path="url(#p8a0155be61)" style="fill: #808080"/>
    <path d="M 211.422898 59.962383 
L 207.676944 65.245139 
L 209.153123 65.473006 
L 203.654602 69.762843 
L 205.883732 63.154711 
L 206.587147 64.472374 
L 210.333102 59.189617 
L 211.422898 59.962383 
" clip-path="url(#p8a0155be61)" style="fill: #808080"/>
    <path d="M 234.893045 59.664894 
L 234.010768 66.235759 
L 235.423751 65.751501 
L 232.548681 72.105272 
L 231.451481 65.21814 
L 232.686678 66.057972 
L 233.568955 59.487106 
L 234.893045 59.664894 
" clip-path="url(#p8a0155be61)" style="fill: #808080"/>
    <path d="M 258.251146 59.609486 
L 257.892971 66.745444 
L 259.26075 66.14527 
L 256.924449 72.716276 
L 255.257871 65.944353 
L 256.558678 66.678472 
L 256.916854 59.542514 
L 258.251146 59.609486 
" clip-path="url(#p8a0155be61)" style="fill: #808080"/>
    <path d="M 281.604773 59.592886 
L 281.418095 66.975422 
L 282.770526 66.34142 
L 280.598352 72.968493 
L 278.763889 66.240107 
L 280.082549 66.941651 
L 280.269227 59.559114 
L 281.604773 59.592886 
" clip-path="url(#p8a0155be61)" style="fill: #808080"/>
    <path d="M 304.957911 59.58602 
L 304.845195 67.099206 
L 306.191037 66.451335 
L 304.0871 73.100386 
L 302.18357 66.391213 
L 303.509372 67.079165 
L 303.622089 59.56598 
L 304.957911 59.58602 
" clip-path="url(#p8a0155be61)" style="fill: #808080"/>
    <path d="M 71.427984 37.889731 
L 71.395448 50.445252 
L 72.733147 49.78073 
L 70.711885 56.455378 
L 68.725243 49.770344 
L 70.05948 50.44179 
L 70.092016 37.886269 
L 71.427984 37.889731 
" clip-path="url(#p8a0155be61)" style="fill: #808080"/>
    <path d="M 94.780986 37.888791 
L 94.766182 50.39845 
L 96.102944 49.732045 
L 94.091081 56.409532 
L 92.095029 49.727302 
L 93.43021 50.396869 
L 93.445014 37.887209 
L 94.780986 37.888791 
" clip-path="url(#p8a0155be61)" style="fill: #808080"/>
    <path d="M 118.133973 37.883824 
L 118.211391 50.268451 
L 119.543162 49.592127 
L 117.580999 56.284387 
L 115.535323 49.617181 
L 116.875445 50.276803 
L 116.798027 37.892176 
L 118.133973 37.883824 
" clip-path="url(#p8a0155be61)" style="fill: #808080"/>
    <path d="M 141.486156 37.854702 
L 142.083708 49.82708 
L 143.384721 49.093327 
L 141.716237 55.864781 
L 139.381786 49.293117 
L 140.749396 49.893677 
L 140.151844 37.921298 
L 141.486156 37.854702 
" clip-path="url(#p8a0155be61)" style="fill: #808080"/>
    <path d="M 164.759476 37.570072 
L 170.418029 48.026094 
L 171.275052 46.802763 
L 172.691905 53.631302 
L 167.750198 48.71033 
L 169.243078 48.66195 
L 163.584524 38.205928 
L 164.759476 37.570072 
" clip-path="url(#p8a0155be61)" style="fill: #808080"/>
    <path d="M 211.366335 38.343779 
L 202.503276 47.839914 
L 203.935725 48.263138 
L 197.912927 51.779149 
L 201.005715 45.528462 
L 201.526606 46.928355 
L 210.389665 37.432221 
L 211.366335 38.343779 
" clip-path="url(#p8a0155be61)" style="fill: #808080"/>
    <path d="M 234.889864 37.998019 
L 233.060148 48.955524 
L 234.487894 48.516698 
L 231.411113 54.775279 
L 230.534711 47.856584 
L 231.74242 48.735486 
L 233.572136 37.777981 
L 234.889864 37.998019 
" clip-path="url(#p8a0155be61)" style="fill: #808080"/>
    <path d="M 258.25078 37.928132 
L 257.549923 49.572628 
L 258.923614 48.986113 
L 256.521955 55.533514 
L 254.922936 48.745321 
L 256.216363 49.492364 
L 256.91722 37.847868 
L 258.25078 37.928132 
" clip-path="url(#p8a0155be61)" style="fill: #808080"/>
    <path d="M 281.604695 37.907729 
L 281.251819 49.850114 
L 282.606938 49.221877 
L 280.406561 55.839639 
L 278.600768 49.103502 
L 279.916429 49.810655 
L 280.269305 37.868271 
L 281.604695 37.907729 
" clip-path="url(#p8a0155be61)" style="fill: #808080"/>
    <path d="M 304.957888 37.899484 
L 304.749862 49.99742 
L 306.097122 49.352501 
L 303.978615 55.996924 
L 302.089796 49.283594 
L 303.414087 49.974451 
L 303.622112 37.876516 
L 304.957888 37.899484 
" clip-path="url(#p8a0155be61)" style="fill: #808080"/>
    <path d="M 71.427986 16.200327 
L 71.419585 33.340366 
L 72.755885 32.673035 
L 70.748652 39.351915 
L 68.747967 32.67107 
L 70.083613 33.339711 
L 70.092014 16.199673 
L 71.427986 16.200327 
" clip-path="url(#p8a0155be61)" style="fill: #808080"/>
    <path d="M 94.780984 16.198065 
L 94.830423 33.266892 
L 96.164455 32.595039 
L 94.179853 39.280679 
L 92.156554 32.606648 
L 93.494456 33.270762 
L 93.445016 16.201935 
L 94.780984 16.198065 
" clip-path="url(#p8a0155be61)" style="fill: #808080"/>
    <path d="M 118.133903 16.189445 
L 118.400818 33.079943 
L 119.726069 32.390931 
L 117.827907 39.101624 
L 115.718652 32.454259 
L 117.065012 33.101052 
L 116.798097 16.210555 
L 118.133903 16.189445 
" clip-path="url(#p8a0155be61)" style="fill: #808080"/>
    <path d="M 141.484802 16.146029 
L 142.809559 32.488596 
L 144.087192 31.714851 
L 142.629496 38.534789 
L 140.092378 32.038678 
L 141.477954 32.596538 
L 140.153198 16.253971 
L 141.484802 16.146029 
" clip-path="url(#p8a0155be61)" style="fill: #808080"/>
    <path d="M 164.705778 15.798395 
L 175.723346 30.441998 
L 176.389299 29.10501 
L 178.804011 35.647609 
L 173.186628 31.514639 
L 174.65579 31.245208 
L 163.638222 16.601605 
L 164.705778 15.798395 
" clip-path="url(#p8a0155be61)" style="fill: #808080"/>
    <path d="M 211.31689 16.703569 
L 195.660537 30.349014 
L 197.041886 30.917261 
L 190.68953 33.795456 
L 194.408545 27.89585 
L 194.782757 29.341877 
L 210.43911 15.696431 
L 211.31689 16.703569 
" clip-path="url(#p8a0155be61)" style="fill: #808080"/>
    <path d="M 234.886223 16.329957 
L 231.842031 31.67824 
L 233.282434 31.282932 
L 230.017191 37.445287 
L 229.351097 30.503187 
L 230.531585 31.418325 
L 233.575777 16.070043 
L 234.886223 16.329957 
" clip-path="url(#p8a0155be61)" style="fill: #808080"/>
    <path d="M 258.250366 16.2465 
L 257.123151 32.399958 
L 258.502383 31.826593 
L 256.038284 38.350751 
L 254.504187 31.547592 
L 255.790419 32.306958 
L 256.917634 16.1535 
L 258.250366 16.2465 
" clip-path="url(#p8a0155be61)" style="fill: #808080"/>
    <path d="M 281.604609 16.222459 
L 281.049443 32.724767 
L 282.40712 32.102077 
L 280.179699 38.710785 
L 278.401468 31.96732 
L 279.714226 32.679848 
L 280.269391 16.177541 
L 281.604609 16.222459 
" clip-path="url(#p8a0155be61)" style="fill: #808080"/>
    <path d="M 304.957862 16.212891 
L 304.635854 32.895595 
L 305.984469 32.253515 
L 303.851972 38.893462 
L 301.977297 32.176169 
L 303.30013 32.869813 
L 303.622138 16.187109 
L 304.957862 16.212891 
" clip-path="url(#p8a0155be61)" style="fill: #808080"/>
   </g>
   <g id="PathCollection_1">
    <defs>
     <path id="C0_0_4818597a79" d="M 0 3 
C 0.795609 3 1.55874 2.683901 2.12132 2.12132 
C 2.683901 1.55874 3 0.795609 3 -0 
C 3 -0.795609 2.683901 -1.55874 2.12132 -2.12132 
C 1.55874 -2.683901 0.795609 -3 0 -3 
C -0.795609 -3 -1.55874 -2.683901 -2.12132 -2.12132 
C -2.683901 -1.55874 -3 -0.795609 -3 0 
C -3 0.795609 -2.683901 1.55874 -2.12132 2.12132 
C -1.55874 2.683901 -0.795609 3 0 3 
z
"/>
    </defs>
    <g clip-path="url(#p8a0155be61)">
     <use xlink:href="#C0_0_4818597a79" x="210.878" y="119.218" style="fill: none; stroke: #000000; stroke-width: 2"/>
    </g>
    <g clip-path="url(#p8a0155be61)">
     <use xlink:href="#C0_0_4818597a79" x="164.172" y="130.062" style="fill: none; stroke: #000000; stroke-width: 2"/>
    </g>
   </g>
   <g id="matplotlib.axis_1">
    <g id="xtick_1">
     <g id="line2d_1">
      <defs>
       <path id="m55d4bb0642" d="M 0 0 
L 0 3.5 
" style="stroke: #000000; stroke-width: 0.8"/>
      </defs>
      <g>
       <use xlink:href="#m55d4bb0642" x="70.76" y="233.08" style="stroke: #000000; stroke-width: 0.8"/>
      </g>
     </g>
     <g id="text_1">
      <!-- −10 -->
      <g transform="translate(55.986719 250.717812) scale(0.14 -0.14)">
       <defs>
        <path id="DejaVuSans-2212" d="M 678 2272 
L 4684 2272 
L 4684 1741 
L 678 1741 
L 678 2272 
z
" transform="scale(0.015625)"/>
        <path id="DejaVuSans-31" d="M 794 531 
L 1825 531 
L 1825 4091 
L 703 3866 
L 703 4441 
L 1819 4666 
L 2450 4666 
L 2450 531 
L 3481 531 
L 3481 0 
L 794 0 
L 794 531 
z
" transform="scale(0.015625)"/>
        <path id="DejaVuSans-30" d="M 2034 4250 
Q 1547 4250 1301 3770 
Q 1056 3291 1056 2328 
Q 1056 1369 1301 889 
Q 1547 409 2034 409 
Q 2525 409 2770 889 
Q 3016 1369 3016 2328 
Q 3016 3291 2770 3770 
Q 2525 4250 2034 4250 
z
M 2034 4750 
Q 2819 4750 3233 4129 
Q 3647 3509 3647 2328 
Q 3647 1150 3233 529 
Q 2819 -91 2034 -91 
Q 1250 -91 836 529 
Q 422 1150 422 2328 
Q 422 3509 836 4129 
Q 1250 4750 2034 4750 
z
" transform="scale(0.015625)"/>
       </defs>
       <use xlink:href="#DejaVuSans-2212"/>
       <use xlink:href="#DejaVuSans-31" x="83.789062"/>
       <use xlink:href="#DejaVuSans-30" x="147.412109"/>
      </g>
     </g>
    </g>
    <g id="xtick_2">
     <g id="line2d_2">
      <g>
       <use xlink:href="#m55d4bb0642" x="129.1425" y="233.08" style="stroke: #000000; stroke-width: 0.8"/>
      </g>
     </g>
     <g id="text_2">
      <!-- −5 -->
      <g transform="translate(118.822969 250.717812) scale(0.14 -0.14)">
       <defs>
        <path id="DejaVuSans-35" d="M 691 4666 
L 3169 4666 
L 3169 4134 
L 1269 4134 
L 1269 2991 
Q 1406 3038 1543 3061 
Q 1681 3084 1819 3084 
Q 2600 3084 3056 2656 
Q 3513 2228 3513 1497 
Q 3513 744 3044 326 
Q 2575 -91 1722 -91 
Q 1428 -91 1123 -41 
Q 819 9 494 109 
L 494 744 
Q 775 591 1075 516 
Q 1375 441 1709 441 
Q 2250 441 2565 725 
Q 2881 1009 2881 1497 
Q 2881 1984 2565 2268 
Q 2250 2553 1709 2553 
Q 1456 2553 1204 2497 
Q 953 2441 691 2322 
L 691 4666 
z
" transform="scale(0.015625)"/>
       </defs>
       <use xlink:href="#DejaVuSans-2212"/>
       <use xlink:href="#DejaVuSans-35" x="83.789062"/>
      </g>
     </g>
    </g>
    <g id="xtick_3">
     <g id="line2d_3">
      <g>
       <use xlink:href="#m55d4bb0642" x="187.525" y="233.08" style="stroke: #000000; stroke-width: 0.8"/>
      </g>
     </g>
     <g id="text_3">
      <!-- 0 -->
      <g transform="translate(183.07125 250.717812) scale(0.14 -0.14)">
       <use xlink:href="#DejaVuSans-30"/>
      </g>
     </g>
    </g>
    <g id="xtick_4">
     <g id="line2d_4">
      <g>
       <use xlink:href="#m55d4bb0642" x="245.9075" y="233.08" style="stroke: #000000; stroke-width: 0.8"/>
      </g>
     </g>
     <g id="text_4">
      <!-- 5 -->
      <g transform="translate(241.45375 250.717812) scale(0.14 -0.14)">
       <use xlink:href="#DejaVuSans-35"/>
      </g>
     </g>
    </g>
    <g id="xtick_5">
     <g id="line2d_5">
      <g>
       <use xlink:href="#m55d4bb0642" x="304.29" y="233.08" style="stroke: #000000; stroke-width: 0.8"/>
      </g>
     </g>
     <g id="text_5">
      <!-- 10 -->
      <g transform="translate(295.3825 250.717812) scale(0.14 -0.14)">
       <use xlink:href="#DejaVuSans-31"/>
       <use xlink:href="#DejaVuSans-30" x="63.623047"/>
      </g>
     </g>
    </g>
    <g id="text_6">
     <!-- weight $W_0$ -->
     <g transform="translate(146.245 269.789375) scale(0.16 -0.16)">
      <defs>
       <path id="DejaVuSans-77" d="M 269 3500 
L 844 3500 
L 1563 769 
L 2278 3500 
L 2956 3500 
L 3675 769 
L 4391 3500 
L 4966 3500 
L 4050 0 
L 3372 0 
L 2619 2869 
L 1863 0 
L 1184 0 
L 269 3500 
z
" transform="scale(0.015625)"/>
       <path id="DejaVuSans-65" d="M 3597 1894 
L 3597 1613 
L 953 1613 
Q 991 1019 1311 708 
Q 1631 397 2203 397 
Q 2534 397 2845 478 
Q 3156 559 3463 722 
L 3463 178 
Q 3153 47 2828 -22 
Q 2503 -91 2169 -91 
Q 1331 -91 842 396 
Q 353 884 353 1716 
Q 353 2575 817 3079 
Q 1281 3584 2069 3584 
Q 2775 3584 3186 3129 
Q 3597 2675 3597 1894 
z
M 3022 2063 
Q 3016 2534 2758 2815 
Q 2500 3097 2075 3097 
Q 1594 3097 1305 2825 
Q 1016 2553 972 2059 
L 3022 2063 
z
" transform="scale(0.015625)"/>
       <path id="DejaVuSans-69" d="M 603 3500 
L 1178 3500 
L 1178 0 
L 603 0 
L 603 3500 
z
M 603 4863 
L 1178 4863 
L 1178 4134 
L 603 4134 
L 603 4863 
z
" transform="scale(0.015625)"/>
       <path id="DejaVuSans-67" d="M 2906 1791 
Q 2906 2416 2648 2759 
Q 2391 3103 1925 3103 
Q 1463 3103 1205 2759 
Q 947 2416 947 1791 
Q 947 1169 1205 825 
Q 1463 481 1925 481 
Q 2391 481 2648 825 
Q 2906 1169 2906 1791 
z
M 3481 434 
Q 3481 -459 3084 -895 
Q 2688 -1331 1869 -1331 
Q 1566 -1331 1297 -1286 
Q 1028 -1241 775 -1147 
L 775 -588 
Q 1028 -725 1275 -790 
Q 1522 -856 1778 -856 
Q 2344 -856 2625 -561 
Q 2906 -266 2906 331 
L 2906 616 
Q 2728 306 2450 153 
Q 2172 0 1784 0 
Q 1141 0 747 490 
Q 353 981 353 1791 
Q 353 2603 747 3093 
Q 1141 3584 1784 3584 
Q 2172 3584 2450 3431 
Q 2728 3278 2906 2969 
L 2906 3500 
L 3481 3500 
L 3481 434 
z
" transform="scale(0.015625)"/>
       <path id="DejaVuSans-68" d="M 3513 2113 
L 3513 0 
L 2938 0 
L 2938 2094 
Q 2938 2591 2744 2837 
Q 2550 3084 2163 3084 
Q 1697 3084 1428 2787 
Q 1159 2491 1159 1978 
L 1159 0 
L 581 0 
L 581 4863 
L 1159 4863 
L 1159 2956 
Q 1366 3272 1645 3428 
Q 1925 3584 2291 3584 
Q 2894 3584 3203 3211 
Q 3513 2838 3513 2113 
z
" transform="scale(0.015625)"/>
       <path id="DejaVuSans-74" d="M 1172 4494 
L 1172 3500 
L 2356 3500 
L 2356 3053 
L 1172 3053 
L 1172 1153 
Q 1172 725 1289 603 
Q 1406 481 1766 481 
L 2356 481 
L 2356 0 
L 1766 0 
Q 1100 0 847 248 
Q 594 497 594 1153 
L 594 3053 
L 172 3053 
L 172 3500 
L 594 3500 
L 594 4494 
L 1172 4494 
z
" transform="scale(0.015625)"/>
       <path id="DejaVuSans-20" transform="scale(0.015625)"/>
       <path id="DejaVuSans-Oblique-57" d="M 616 4666 
L 1228 4666 
L 1453 697 
L 3213 4666 
L 3916 4666 
L 4147 697 
L 5888 4666 
L 6528 4666 
L 4453 0 
L 3659 0 
L 3444 3891 
L 1697 0 
L 903 0 
L 616 4666 
z
" transform="scale(0.015625)"/>
      </defs>
      <use xlink:href="#DejaVuSans-77" transform="translate(0 0.015625)"/>
      <use xlink:href="#DejaVuSans-65" transform="translate(81.787109 0.015625)"/>
      <use xlink:href="#DejaVuSans-69" transform="translate(143.310547 0.015625)"/>
      <use xlink:href="#DejaVuSans-67" transform="translate(171.09375 0.015625)"/>
      <use xlink:href="#DejaVuSans-68" transform="translate(234.570312 0.015625)"/>
      <use xlink:href="#DejaVuSans-74" transform="translate(297.949219 0.015625)"/>
      <use xlink:href="#DejaVuSans-20" transform="translate(337.158203 0.015625)"/>
      <use xlink:href="#DejaVuSans-Oblique-57" transform="translate(368.945312 0.015625)"/>
      <use xlink:href="#DejaVuSans-30" transform="translate(467.822266 -16.390625) scale(0.7)"/>
     </g>
    </g>
   </g>
   <g id="matplotlib.axis_2">
    <g id="ytick_1">
     <g id="line2d_6">
      <defs>
       <path id="m02a68a5584" d="M 0 0 
L -3.5 0 
" style="stroke: #000000; stroke-width: 0.8"/>
      </defs>
      <g>
       <use xlink:href="#m02a68a5584" x="70.76" y="233.08" style="stroke: #000000; stroke-width: 0.8"/>
      </g>
     </g>
     <g id="text_7">
      <!-- −10 -->
      <g transform="translate(34.213437 238.398906) scale(0.14 -0.14)">
       <use xlink:href="#DejaVuSans-2212"/>
       <use xlink:href="#DejaVuSans-31" x="83.789062"/>
       <use xlink:href="#DejaVuSans-30" x="147.412109"/>
      </g>
     </g>
    </g>
    <g id="ytick_2">
     <g id="line2d_7">
      <g>
       <use xlink:href="#m02a68a5584" x="70.76" y="178.86" style="stroke: #000000; stroke-width: 0.8"/>
      </g>
     </g>
     <g id="text_8">
      <!-- −5 -->
      <g transform="translate(43.120938 184.178906) scale(0.14 -0.14)">
       <use xlink:href="#DejaVuSans-2212"/>
       <use xlink:href="#DejaVuSans-35" x="83.789062"/>
      </g>
     </g>
    </g>
    <g id="ytick_3">
     <g id="line2d_8">
      <g>
       <use xlink:href="#m02a68a5584" x="70.76" y="124.64" style="stroke: #000000; stroke-width: 0.8"/>
      </g>
     </g>
     <g id="text_9">
      <!-- 0 -->
      <g transform="translate(54.8525 129.958906) scale(0.14 -0.14)">
       <use xlink:href="#DejaVuSans-30"/>
      </g>
     </g>
    </g>
    <g id="ytick_4">
     <g id="line2d_9">
      <g>
       <use xlink:href="#m02a68a5584" x="70.76" y="70.42" style="stroke: #000000; stroke-width: 0.8"/>
      </g>
     </g>
     <g id="text_10">
      <!-- 5 -->
      <g transform="translate(54.8525 75.738906) scale(0.14 -0.14)">
       <use xlink:href="#DejaVuSans-35"/>
      </g>
     </g>
    </g>
    <g id="ytick_5">
     <g id="line2d_10">
      <g>
       <use xlink:href="#m02a68a5584" x="70.76" y="16.2" style="stroke: #000000; stroke-width: 0.8"/>
      </g>
     </g>
     <g id="text_11">
      <!-- 10 -->
      <g transform="translate(45.945 21.518906) scale(0.14 -0.14)">
       <use xlink:href="#DejaVuSans-31"/>
       <use xlink:href="#DejaVuSans-30" x="63.623047"/>
      </g>
     </g>
    </g>
    <g id="text_12">
     <!-- prior mean $\mu$ -->
     <g transform="translate(26.853437 176.32) rotate(-90) scale(0.16 -0.16)">
      <defs>
       <path id="DejaVuSans-70" d="M 1159 525 
L 1159 -1331 
L 581 -1331 
L 581 3500 
L 1159 3500 
L 1159 2969 
Q 1341 3281 1617 3432 
Q 1894 3584 2278 3584 
Q 2916 3584 3314 3078 
Q 3713 2572 3713 1747 
Q 3713 922 3314 415 
Q 2916 -91 2278 -91 
Q 1894 -91 1617 61 
Q 1341 213 1159 525 
z
M 3116 1747 
Q 3116 2381 2855 2742 
Q 2594 3103 2138 3103 
Q 1681 3103 1420 2742 
Q 1159 2381 1159 1747 
Q 1159 1113 1420 752 
Q 1681 391 2138 391 
Q 2594 391 2855 752 
Q 3116 1113 3116 1747 
z
" transform="scale(0.015625)"/>
       <path id="DejaVuSans-72" d="M 2631 2963 
Q 2534 3019 2420 3045 
Q 2306 3072 2169 3072 
Q 1681 3072 1420 2755 
Q 1159 2438 1159 1844 
L 1159 0 
L 581 0 
L 581 3500 
L 1159 3500 
L 1159 2956 
Q 1341 3275 1631 3429 
Q 1922 3584 2338 3584 
Q 2397 3584 2469 3576 
Q 2541 3569 2628 3553 
L 2631 2963 
z
" transform="scale(0.015625)"/>
       <path id="DejaVuSans-6f" d="M 1959 3097 
Q 1497 3097 1228 2736 
Q 959 2375 959 1747 
Q 959 1119 1226 758 
Q 1494 397 1959 397 
Q 2419 397 2687 759 
Q 2956 1122 2956 1747 
Q 2956 2369 2687 2733 
Q 2419 3097 1959 3097 
z
M 1959 3584 
Q 2709 3584 3137 3096 
Q 3566 2609 3566 1747 
Q 3566 888 3137 398 
Q 2709 -91 1959 -91 
Q 1206 -91 779 398 
Q 353 888 353 1747 
Q 353 2609 779 3096 
Q 1206 3584 1959 3584 
z
" transform="scale(0.015625)"/>
       <path id="DejaVuSans-6d" d="M 3328 2828 
Q 3544 3216 3844 3400 
Q 4144 3584 4550 3584 
Q 5097 3584 5394 3201 
Q 5691 2819 5691 2113 
L 5691 0 
L 5113 0 
L 5113 2094 
Q 5113 2597 4934 2840 
Q 4756 3084 4391 3084 
Q 3944 3084 3684 2787 
Q 3425 2491 3425 1978 
L 3425 0 
L 2847 0 
L 2847 2094 
Q 2847 2600 2669 2842 
Q 2491 3084 2119 3084 
Q 1678 3084 1418 2786 
Q 1159 2488 1159 1978 
L 1159 0 
L 581 0 
L 581 3500 
L 1159 3500 
L 1159 2956 
Q 1356 3278 1631 3431 
Q 1906 3584 2284 3584 
Q 2666 3584 2933 3390 
Q 3200 3197 3328 2828 
z
" transform="scale(0.015625)"/>
       <path id="DejaVuSans-61" d="M 2194 1759 
Q 1497 1759 1228 1600 
Q 959 1441 959 1056 
Q 959 750 1161 570 
Q 1363 391 1709 391 
Q 2188 391 2477 730 
Q 2766 1069 2766 1631 
L 2766 1759 
L 2194 1759 
z
M 3341 1997 
L 3341 0 
L 2766 0 
L 2766 531 
Q 2569 213 2275 61 
Q 1981 -91 1556 -91 
Q 1019 -91 701 211 
Q 384 513 384 1019 
Q 384 1609 779 1909 
Q 1175 2209 1959 2209 
L 2766 2209 
L 2766 2266 
Q 2766 2663 2505 2880 
Q 2244 3097 1772 3097 
Q 1472 3097 1187 3025 
Q 903 2953 641 2809 
L 641 3341 
Q 956 3463 1253 3523 
Q 1550 3584 1831 3584 
Q 2591 3584 2966 3190 
Q 3341 2797 3341 1997 
z
" transform="scale(0.015625)"/>
       <path id="DejaVuSans-6e" d="M 3513 2113 
L 3513 0 
L 2938 0 
L 2938 2094 
Q 2938 2591 2744 2837 
Q 2550 3084 2163 3084 
Q 1697 3084 1428 2787 
Q 1159 2491 1159 1978 
L 1159 0 
L 581 0 
L 581 3500 
L 1159 3500 
L 1159 2956 
Q 1366 3272 1645 3428 
Q 1925 3584 2291 3584 
Q 2894 3584 3203 3211 
Q 3513 2838 3513 2113 
z
" transform="scale(0.015625)"/>
       <path id="DejaVuSans-Oblique-3bc" d="M -84 -1331 
L 856 3500 
L 1434 3500 
L 1009 1322 
Q 997 1256 987 1175 
Q 978 1094 978 1013 
Q 978 722 1161 565 
Q 1344 409 1684 409 
Q 2147 409 2431 671 
Q 2716 934 2816 1459 
L 3213 3500 
L 3788 3500 
L 3266 809 
Q 3253 750 3248 706 
Q 3244 663 3244 628 
Q 3244 531 3283 486 
Q 3322 441 3406 441 
Q 3438 441 3492 456 
Q 3547 472 3647 513 
L 3559 50 
Q 3422 -19 3297 -55 
Q 3172 -91 3053 -91 
Q 2847 -91 2730 40 
Q 2613 172 2613 403 
Q 2438 153 2195 31 
Q 1953 -91 1625 -91 
Q 1334 -91 1117 43 
Q 900 178 831 397 
L 494 -1331 
L -84 -1331 
z
" transform="scale(0.015625)"/>
      </defs>
      <use xlink:href="#DejaVuSans-70" transform="translate(0 0.015625)"/>
      <use xlink:href="#DejaVuSans-72" transform="translate(63.476562 0.015625)"/>
      <use xlink:href="#DejaVuSans-69" transform="translate(104.589844 0.015625)"/>
      <use xlink:href="#DejaVuSans-6f" transform="translate(132.373047 0.015625)"/>
      <use xlink:href="#DejaVuSans-72" transform="translate(193.554688 0.015625)"/>
      <use xlink:href="#DejaVuSans-20" transform="translate(234.667969 0.015625)"/>
      <use xlink:href="#DejaVuSans-6d" transform="translate(266.455078 0.015625)"/>
      <use xlink:href="#DejaVuSans-65" transform="translate(363.867188 0.015625)"/>
      <use xlink:href="#DejaVuSans-61" transform="translate(425.390625 0.015625)"/>
      <use xlink:href="#DejaVuSans-6e" transform="translate(486.669922 0.015625)"/>
      <use xlink:href="#DejaVuSans-20" transform="translate(550.048828 0.015625)"/>
      <use xlink:href="#DejaVuSans-Oblique-3bc" transform="translate(581.835938 0.015625)"/>
     </g>
    </g>
   </g>
   <g id="line2d_11">
    <path d="M 188.53595 -1 
L 188.809415 26.058182 
L 189.276475 52.346667 
L 189.743535 67.566316 
L 190.32736 79.456667 
L 190.911185 87.246897 
L 191.611775 93.657143 
L 192.312365 98.19122 
L 193.12972 102.048333 
L 193.947075 104.923636 
L 194.881195 107.427302 
L 195.93208 109.578889 
L 196.982965 111.252346 
L 198.150615 112.723516 
L 199.43503 114.008627 
L 200.952975 115.210435 
L 202.70445 116.298462 
L 204.689455 117.263129 
L 207.024755 118.146587 
L 209.827115 118.962513 
L 213.2133 119.710909 
L 217.41684 120.404062 
L 222.671265 121.037342 
L 229.443635 121.619387 
L 238.317775 122.147126 
L 250.227805 122.620633 
L 266.808435 123.042946 
L 290.74526 123.413303 
L 304.29 123.5556 
L 304.29 123.5556 
" clip-path="url(#p8a0155be61)" style="fill: none; stroke: #008000; stroke-opacity: 0.5; stroke-width: 1.6; stroke-linecap: square"/>
   </g>
   <g id="line2d_12">
    <path d="M 70.76 125.7244 
L 102.636845 126.131609 
L 122.83719 126.597401 
L 136.498695 127.121465 
L 146.19019 127.703277 
L 153.312855 128.341024 
L 158.80081 129.04813 
L 163.00435 129.80381 
L 166.390535 130.63116 
L 169.07613 131.503291 
L 171.294665 132.441439 
L 173.162905 133.45626 
L 174.797615 134.588624 
L 176.198795 135.819381 
L 177.48321 137.249302 
L 178.65086 138.908421 
L 179.701745 140.825075 
L 180.635865 143.019661 
L 181.45322 145.493846 
L 182.270575 148.737778 
L 182.971165 152.445128 
L 183.671755 157.500606 
L 184.25558 163.368571 
L 184.839405 171.787826 
L 185.306465 181.713684 
L 185.773525 196.933333 
L 186.12382 215.006667 
L 186.474115 245.128889 
L 186.750363 289 
L 186.750363 289 
" clip-path="url(#p8a0155be61)" style="fill: none; stroke: #008000; stroke-opacity: 0.5; stroke-width: 1.6; stroke-linecap: square"/>
   </g>
   <g id="line2d_13">
    <path d="M 70.76 11.071798 
L 91.894465 29.718655 
L 108.82539 44.370525 
L 122.83719 56.210909 
L 134.74722 65.993592 
L 145.4896 74.532903 
L 155.881685 82.507973 
L 172.695845 95.332513 
L 175.8485 98.077733 
L 178.067035 100.280176 
L 179.81851 102.312723 
L 181.21969 104.254737 
L 182.38734 106.216883 
L 183.438225 108.395105 
L 184.372345 110.82042 
L 185.306465 113.908324 
L 186.240585 117.866415 
L 187.408235 123.989685 
L 189.042945 132.491914 
L 189.977065 136.218054 
L 190.911185 139.119487 
L 191.96207 141.665323 
L 193.12972 143.895376 
L 194.414135 145.878624 
L 195.93208 147.821997 
L 197.80032 149.848608 
L 200.252385 152.154409 
L 203.521805 154.8985 
L 208.5427 158.793237 
L 232.946585 177.406698 
L 243.5722 185.941589 
L 255.365465 195.705433 
L 269.02697 207.311923 
L 285.37407 221.502746 
L 304.29 238.208202 
L 304.29 238.208202 
" clip-path="url(#p8a0155be61)" style="fill: none; stroke: #cc99ff; stroke-opacity: 0.5; stroke-width: 1.6; stroke-linecap: square"/>
   </g>
   <g id="line2d_14">
    <path d="M 188.571966 -1 
L 188.809415 20.477436 
L 189.276475 45.102552 
L 189.743535 58.895 
L 190.32736 69.307954 
L 190.911185 75.912169 
L 191.611775 81.207648 
L 192.312365 84.888253 
L 193.12972 87.998077 
L 194.06384 90.613144 
L 195.114725 92.82721 
L 196.282375 94.72726 
L 197.56679 96.385315 
L 199.084735 97.968522 
L 200.83621 99.46448 
L 202.93798 100.952725 
L 205.390045 102.407906 
L 208.30917 103.873917 
L 211.695355 105.323139 
L 215.665365 106.776809 
L 220.2192 108.20372 
L 225.35686 109.57954 
L 231.19511 110.909859 
L 237.73395 112.169499 
L 245.20691 113.376039 
L 253.61399 114.502527 
L 263.18872 115.557015 
L 274.281395 116.549009 
L 287.24231 117.47708 
L 302.538525 118.341054 
L 304.29 118.427398 
L 304.29 118.427398 
" clip-path="url(#p8a0155be61)" style="fill: none; stroke: #cc99ff; stroke-opacity: 0.5; stroke-width: 1.6; stroke-linecap: square"/>
   </g>
   <g id="line2d_15">
    <path d="M 70.76 130.852602 
L 87.1071 131.758472 
L 100.768605 132.730991 
L 112.32834 133.769697 
L 122.253365 134.87789 
L 130.893975 136.060747 
L 138.4837 137.320031 
L 145.139305 138.644419 
L 150.977555 140.024418 
L 156.23198 141.492006 
L 160.785815 142.990782 
L 164.755825 144.529291 
L 168.14201 146.079918 
L 170.94437 147.603355 
L 173.27967 149.120228 
L 175.264675 150.678249 
L 176.899385 152.246228 
L 178.300565 153.907173 
L 179.468215 155.636188 
L 180.5191 157.608067 
L 181.45322 159.877681 
L 182.270575 162.495877 
L 182.971165 165.488448 
L 183.671755 169.61113 
L 184.25558 174.486723 
L 184.839405 181.666167 
L 185.306465 190.385 
L 185.773525 204.177448 
L 186.12382 221.025512 
L 186.474115 249.79057 
L 186.734195 289 
L 186.734195 289 
" clip-path="url(#p8a0155be61)" style="fill: none; stroke: #cc99ff; stroke-opacity: 0.5; stroke-width: 1.6; stroke-linecap: square"/>
   </g>
   <g id="line2d_16">
    <path d="M 140.819 211.392 
L 150.822491 157.584533 
L 152.719765 144.799811 
L 153.228241 137.249357 
L 152.995886 133.188278 
L 152.38756 131.25 
L 151.724203 130.039299 
L 151.080847 129.340177 
L 150.393437 128.82136 
L 149.787236 128.670227 
L 148.622955 128.030992 
L 148.032477 127.882815 
L 147.48824 128.137619 
L 146.919816 127.769783 
L 146.455387 127.651952 
L 145.997283 127.798888 
L 145.474156 127.82109 
L 144.973409 128.079378 
L 143.720547 127.653558 
L 143.328174 127.889614 
L 142.932469 127.549076 
L 142.533461 127.645025 
L 142.156714 127.863658 
L 140.420703 127.147044 
L 140.053652 127.028596 
L 139.654408 127.336232 
L 139.307234 127.296354 
L 139.007999 127.582582 
L 137.77328 127.233881 
L 137.450866 127.184818 
L 137.135234 126.970296 
L 136.869389 127.113947 
L 136.330761 127.084184 
L 136.043279 127.32087 
L 135.772473 127.279539 
L 135.231495 126.900158 
L 134.981891 127.001441 
L 134.747643 126.916253 
L 134.476982 127.121695 
L 134.008102 127.029132 
L 133.767456 127.021624 
L 133.470309 127.292266 
L 133.198373 127.389 
L 132.747805 127.329805 
L 132.46088 127.391372 
L 132.027511 126.82575 
L 131.603786 126.853022 
L 131.378563 126.903099 
L 131.144415 127.073383 
L 130.900641 126.946793 
L 130.690796 126.990439 
L 130.462773 126.72375 
L 130.257583 126.854298 
L 129.890566 126.687823 
L 129.499523 126.865547 
L 129.132088 126.820476 
L 128.372402 126.732996 
L 127.977746 126.703892 
L 127.623563 126.647015 
L 127.285158 126.933135 
L 127.128085 126.739802 
L 126.788027 127.007576 
L 126.465641 126.671353 
L 126.291976 126.735563 
L 126.12257 126.61075 
L 125.971705 126.747516 
L 125.644086 126.522512 
L 125.476985 126.755939 
L 124.970801 126.830546 
L 124.648604 126.692156 
L 124.176878 126.834242 
L 124.048686 126.534664 
L 123.898946 126.52727 
L 123.728883 126.784957 
L 123.593218 126.769867 
L 123.464352 126.635764 
L 123.173251 126.722428 
L 122.893241 126.546973 
L 122.757983 126.539557 
L 122.592475 126.664312 
L 122.296308 126.45693 
L 122.155409 126.573027 
L 121.757986 126.531143 
L 121.628802 126.623856 
L 121.366147 126.443425 
L 120.421572 126.556091 
L 120.165431 126.386416 
L 119.908127 126.52724 
L 119.146659 126.239882 
L 118.558723 126.797124 
L 118.456576 126.544164 
L 118.341206 126.734165 
L 118.121735 126.490601 
L 117.90129 126.438188 
L 117.672882 126.683013 
L 117.309183 126.324061 
L 117.192605 126.056835 
L 116.959832 126.192739 
L 116.628059 126.375411 
L 116.495824 126.461737 
L 116.266442 126.325979 
L 116.041565 126.499453 
L 115.743181 126.50836 
L 115.638808 126.52671 
L 115.421458 126.495976 
L 115.31945 126.457201 
L 115.209859 126.604013 
L 114.72427 126.198338 
L 114.521981 126.425404 
L 114.421271 126.297625 
L 114.213749 126.602569 
L 114.018408 126.255669 
L 113.911963 126.436859 
L 113.824588 126.261356 
L 113.653612 126.357784 
L 113.452454 126.25496 
L 113.356214 126.34815 
L 113.168057 126.222373 
L 113.088359 126.243686 
L 112.893269 126.152729 
L 112.481815 126.430074 
L 112.300244 126.270301 
L 112.208526 126.444842 
L 111.956372 126.120348 
L 111.679575 126.341007 
L 111.501757 126.494158 
L 111.321739 126.286897 
L 111.154182 126.236275 
L 111.065554 126.201752 
L 110.985355 126.007161 
L 110.89077 126.219161 
L 110.807141 126.135696 
L 110.624206 126.243559 
L 110.543095 126.356032 
L 110.472428 126.300432 
L 110.398182 126.24596 
L 110.218721 126.351711 
L 110.048959 126.204034 
L 109.867967 126.36539 
L 109.6377 126.064416 
L 109.355608 126.332005 
L 109.104712 126.34589 
L 108.937305 126.4829 
L 108.763885 126.303045 
L 108.6062 126.241731 
L 108.469032 126.199517 
L 107.95949 126.464128 
L 107.889152 126.588329 
L 107.812796 126.502914 
L 107.65834 126.308135 
L 107.491306 126.326625 
L 107.402327 126.042699 
L 107.331772 126.110525 
L 107.252737 126.305024 
L 107.178313 126.246964 
L 106.730111 126.344862 
L 106.571451 126.157675 
L 106.488909 126.308845 
L 106.409462 126.2112 
L 106.336608 126.304445 
L 106.260841 126.244063 
L 106.11153 126.163012 
L 106.040167 125.999595 
L 105.88604 126.176647 
L 105.660054 126.049687 
L 105.434041 126.286059 
L 105.362373 126.290744 
L 105.287736 126.120116 
L 105.217426 126.197216 
L 105.147222 126.251262 
L 105.084312 126.113792 
L 105.022515 126.150076 
L 104.939265 126.421585 
L 104.871166 126.299067 
L 104.514755 126.346533 
L 104.385988 126.068311 
L 104.161556 126.249051 
L 103.826197 126.085786 
L 103.76077 126.252081 
L 103.630317 126.059325 
L 103.428045 126.345194 
L 103.241541 126.167338 
L 103.180089 126.313252 
L 103.116972 126.139106 
L 103.051172 126.208458 
L 102.988301 126.344548 
L 102.931248 126.26781 
L 102.614836 125.947123 
L 102.413772 126.302247 
L 102.023965 125.989287 
L 101.780619 126.237703 
L 101.657477 126.088271 
L 101.474636 126.020778 
L 101.356282 126.166396 
L 101.230104 126.10987 
L 101.022777 126.331115 
L 100.888971 126.374566 
L 100.770639 126.018692 
L 100.708647 126.075106 
L 100.588996 126.090116 
L 100.522522 126.207827 
L 100.452067 126.127561 
L 100.391334 126.162032 
L 100.325077 125.988831 
L 100.264783 126.082505 
L 100.155805 125.979982 
L 100.093991 126.068207 
L 99.925415 126.08449 
L 99.446469 125.996415 
L 99.334985 126.201319 
L 99.282854 126.068848 
L 99.22369 126.166613 
L 99.169215 126.262351 
L 99.112886 126.147191 
L 98.943141 125.997462 
L 98.891009 126.097957 
L 98.830265 126.005904 
L 98.777126 125.944617 
L 98.606011 126.19333 
L 98.146228 125.976039 
L 98.032456 126.156944 
L 97.928405 126.072681 
L 97.873574 126.129917 
L 97.713661 126.004289 
L 97.650105 126.098257 
L 97.534997 125.950594 
L 97.419777 126.020625 
L 97.371638 125.940227 
L 97.321249 126.014409 
L 97.270064 126.085023 
L 97.21731 125.995797 
L 97.050694 125.947865 
L 96.883738 126.082184 
L 96.671549 125.929534 
L 96.501982 125.998153 
L 96.239316 125.834597 
L 95.982502 126.262371 
L 95.937748 126.070519 
L 95.841375 126.098824 
L 95.692003 125.999091 
L 95.589516 126.190148 
L 95.535175 126.127538 
L 95.476774 126.125447 
L 95.372629 125.714442 
L 95.322508 125.81511 
L 95.169321 125.790605 
L 95.053639 126.037595 
L 94.947561 125.934112 
L 94.748585 126.094683 
L 94.500557 126.047392 
L 94.447992 126.163764 
L 94.402998 126.090049 
L 94.214178 125.85194 
L 94.166033 125.985894 
L 93.966099 126.176686 
L 93.774378 125.911095 
L 93.689447 125.990206 
L 93.639471 125.946454 
L 93.308967 125.835701 
L 93.099506 126.061374 
L 93.007226 125.934877 
L 92.959354 126.076076 
L 92.91891 125.998909 
L 92.828934 125.818272 
L 92.592671 126.123813 
L 92.410749 125.918984 
L 92.364057 125.89221 
L 92.321553 125.735678 
L 92.272189 125.909092 
L 92.179385 125.871221 
L 91.960326 126.012334 
L 91.913623 126.02227 
L 91.821855 125.903608 
L 91.724552 126.037079 
L 91.682248 125.955269 
L 91.5996 125.794072 
L 91.546851 125.893344 
L 91.309774 126.028783 
L 91.21795 126.142704 
L 91.173831 126.014655 
L 90.911031 125.935797 
L 90.764888 126.034025 
L 90.633767 126.240596 
L 90.591117 126.170226 
L 90.503458 126.01067 
L 90.454484 126.064003 
L 90.40895 126.028031 
L 90.358183 125.793398 
L 90.318084 125.851127 
L 90.273063 126.013487 
L 90.190738 125.974325 
L 90.021577 126.028248 
L 89.974707 126.050626 
L 89.883095 125.896219 
L 89.74694 126.020527 
L 89.574929 125.768467 
L 89.530698 125.886153 
L 89.389989 125.879081 
L 89.352886 125.813763 
L 89.309679 125.9348 
L 88.976648 125.902853 
L 88.928097 126.132342 
L 88.849368 126.047871 
L 88.674595 126.071446 
L 88.597036 125.838185 
L 88.548295 125.95011 
L 88.339258 125.955645 
L 88.259349 125.857408 
L 88.219584 125.999037 
L 88.177058 125.863616 
L 88.140811 125.836551 
L 88.10393 125.922704 
L 87.867065 126.055656 
L 87.828347 125.907808 
L 87.788415 125.967546 
L 87.749919 126.083964 
L 87.680633 125.966336 
L 87.518711 125.748175 
L 87.394516 126.052848 
L 87.356555 126.003877 
L 87.23776 125.906698 
L 87.040238 125.870831 
L 86.999292 126.002432 
L 86.960139 125.985351 
L 86.806936 125.818628 
L 86.732339 125.944251 
L 86.691115 125.894952 
L 86.652764 125.896413 
L 86.485285 126.085713 
L 86.436422 126.125622 
L 86.36148 125.820346 
L 86.286626 125.850157 
L 86.122009 125.947112 
L 85.971289 125.791972 
L 85.859833 125.920671 
L 85.823553 125.883434 
L 85.513416 125.81025 
L 85.332441 126.042304 
L 85.184182 125.813714 
L 85.149672 125.901392 
L 85.109829 125.821822 
L 85.075142 125.768927 
L 84.962572 125.986401 
L 84.918242 125.969019 
L 84.842486 125.889104 
L 84.800962 125.921655 
L 84.728558 125.987239 
L 84.660509 125.800067 
L 84.618427 125.965934 
L 83.85789 125.894374 
L 83.714074 125.806225 
L 83.675912 125.767271 
L 83.639488 125.81708 
L 83.603052 125.864595 
L 83.528789 125.792083 
L 83.383659 125.686475 
L 83.35092 125.750823 
L 83.209142 126.063668 
L 83.143709 126.024952 
L 83.01035 125.833375 
L 82.940162 126.002418 
L 82.862492 125.945577 
L 82.791469 125.583821 
L 82.718854 125.681925 
L 82.155137 125.985683 
L 82.123646 125.920483 
L 81.8902 125.783862 
L 81.818887 125.999915 
L 81.784401 125.847453 
L 81.714658 125.887633 
L 81.684002 125.764862 
L 81.624238 125.835863 
L 81.589005 125.797126 
L 81.356338 125.700517 
L 81.209404 125.90227 
L 81.177556 125.838439 
L 81.110798 125.91593 
L 81.018551 125.686844 
L 80.851517 125.96037 
L 80.658382 125.615218 
L 80.490836 125.873259 
L 80.301865 125.76738 
L 80.232112 125.887138 
L 80.201489 125.813892 
L 80.142849 125.670031 
L 80.104354 125.75929 
L 79.867121 125.983884 
L 79.708818 125.770205 
L 79.50693 125.929906 
L 79.447154 126.074845 
L 79.415685 126.011581 
L 79.247037 125.673943 
L 79.217728 125.726252 
L 79.18519 125.872789 
L 79.097642 125.827652 
L 78.967122 125.907446 
L 78.900375 125.768702 
L 78.831813 125.810385 
L 78.800834 125.881478 
L 78.735568 125.825522 
L 78.673911 125.654808 
L 78.577632 125.757608 
L 78.445787 125.796928 
L 78.382069 125.881546 
L 78.349442 125.752362 
L 78.198266 125.985947 
L 78.168222 125.892535 
L 78.108735 125.905957 
L 78.108735 125.905957 
" clip-path="url(#p8a0155be61)" style="fill: none; stroke: #ff0000; stroke-width: 2; stroke-linecap: square"/>
   </g>
   <g id="line2d_17">
    <path d="M 269.2605 113.796 
L 269.279503 121.325319 
L 269.391827 122.76848 
L 269.967409 123.169951 
L 270.036132 123.002348 
L 270.173395 123.198727 
L 270.384598 122.909181 
L 270.578552 123.090042 
L 270.642208 122.941862 
L 270.707763 123.11862 
L 270.775111 123.048279 
L 270.840316 122.91025 
L 270.89959 122.988209 
L 271.230345 123.313791 
L 271.440434 122.953965 
L 271.846131 123.271406 
L 272.099922 123.020286 
L 272.229089 123.171813 
L 272.297829 123.265964 
L 272.359737 123.19267 
L 272.418945 123.240099 
L 272.541075 123.092647 
L 272.672469 123.150304 
L 272.888622 122.926294 
L 273.028746 122.882229 
L 273.151338 123.242743 
L 273.215328 123.185807 
L 273.338889 123.170689 
L 273.407601 123.051538 
L 273.480071 123.132604 
L 273.542781 123.097838 
L 273.611421 123.273467 
L 273.674137 123.178724 
L 273.787202 123.282682 
L 273.85186 123.193536 
L 274.02645 123.177203 
L 274.521905 123.266359 
L 274.637136 123.059047 
L 274.691578 123.193297 
L 274.752684 123.094302 
L 274.809437 122.997553 
L 274.868026 123.114056 
L 275.044575 123.265992 
L 275.098165 123.164625 
L 275.161388 123.257568 
L 275.216776 123.319555 
L 275.393993 123.067974 
L 275.868335 123.288001 
L 275.98654 123.105262 
L 276.093836 123.190519 
L 276.150166 123.132446 
L 276.315629 123.259956 
L 276.381624 123.165127 
L 276.500886 123.314544 
L 276.61997 123.243495 
L 276.669607 123.3249 
L 276.721705 123.24977 
L 276.775306 123.178505 
L 276.829581 123.268793 
L 277.003157 123.317754 
L 277.175569 123.181705 
L 277.395257 123.336385 
L 277.570208 123.266863 
L 277.841298 123.432402 
L 278.104827 122.999929 
L 278.150839 123.193875 
L 278.249629 123.165445 
L 278.403862 123.266452 
L 278.509522 123.073794 
L 278.565133 123.136825 
L 278.625571 123.138835 
L 278.732378 123.554005 
L 278.784058 123.452505 
L 278.941198 123.477449 
L 279.061 123.228057 
L 279.170313 123.332535 
L 279.278873 123.193723 
L 279.329056 123.22195 
L 279.474771 123.167905 
L 279.631598 123.218407 
L 279.685567 123.100874 
L 279.732047 123.17539 
L 279.926914 123.41623 
L 279.976122 123.281013 
L 280.181574 123.088223 
L 280.280597 123.363518 
L 280.334298 123.216795 
L 280.378902 123.356407 
L 280.466399 123.276704 
L 280.715302 123.379824 
L 281.118799 123.277664 
L 281.168052 123.333027 
L 281.216937 123.190546 
L 281.258451 123.268567 
L 281.350609 123.450822 
L 281.592997 123.142702 
L 281.690288 123.310144 
L 281.734942 123.293309 
L 281.871743 123.534202 
L 281.968366 123.42709 
L 282.290507 123.245333 
L 282.384146 123.364896 
L 282.484934 123.230512 
L 282.528397 123.313108 
L 282.613328 123.475883 
L 282.668026 123.375857 
L 282.86605 123.217625 
L 282.956626 123.209105 
L 283.00618 123.124199 
L 283.051412 123.253408 
L 283.320181 123.332965 
L 283.469754 123.2339 
L 283.604383 123.025822 
L 283.648168 123.096817 
L 283.737308 123.257559 
L 283.787441 123.20391 
L 283.834199 123.240289 
L 283.88618 123.476799 
L 283.927571 123.418757 
L 283.973483 123.254962 
L 284.058492 123.294768 
L 284.231917 123.240066 
L 284.280424 123.217598 
L 284.373272 123.373336 
L 284.513191 123.248113 
L 284.689512 123.502202 
L 284.735112 123.383781 
L 284.880019 123.390857 
L 284.917958 123.456687 
L 284.961877 123.334464 
L 285.053823 123.255316 
L 285.097141 123.250799 
L 285.142496 123.395201 
L 285.184822 123.328967 
L 285.227249 123.282573 
L 285.265433 123.398712 
L 285.303327 123.367126 
L 285.352969 123.135815 
L 285.434114 123.221072 
L 285.614132 123.197371 
L 285.692905 123.432299 
L 285.742436 123.319582 
L 285.955337 123.314018 
L 286.036493 123.412889 
L 286.077205 123.270327 
L 286.121068 123.406801 
L 286.158517 123.434034 
L 286.1963 123.347199 
L 286.438655 123.213825 
L 286.478208 123.362771 
L 286.518987 123.302599 
L 286.558541 123.185368 
L 286.629274 123.30368 
L 286.794882 123.523406 
L 286.922284 123.216746 
L 286.961114 123.266171 
L 287.082692 123.363739 
L 287.283856 123.400221 
L 287.325214 123.267801 
L 287.36479 123.284979 
L 287.520911 123.452848 
L 287.597111 123.326338 
L 287.639415 123.37613 
L 287.678869 123.37453 
L 287.850702 123.183962 
L 287.9005 123.143879 
L 287.977046 123.45119 
L 288.053503 123.42143 
L 288.223365 123.323891 
L 288.377114 123.480271 
L 288.491443 123.350423 
L 288.52819 123.387902 
L 288.843494 123.461579 
L 289.026285 123.228093 
L 289.176771 123.458146 
L 289.21118 123.369838 
L 289.251736 123.449975 
L 289.287269 123.503328 
L 289.401777 123.284462 
L 289.446709 123.301775 
L 289.524491 123.38249 
L 289.566761 123.349673 
L 289.640724 123.283636 
L 289.710009 123.472397 
L 289.75297 123.305592 
L 290.527082 123.37751 
L 290.673938 123.466098 
L 290.713347 123.505563 
L 290.750351 123.455537 
L 290.787532 123.407522 
L 290.863332 123.480665 
L 291.010834 123.586746 
L 291.044052 123.522169 
L 291.187222 123.207125 
L 291.253701 123.246182 
L 291.388497 123.439026 
L 291.460177 123.269196 
L 291.539128 123.3262 
L 291.611153 123.690129 
L 291.685171 123.591833 
L 292.261527 123.286234 
L 292.293452 123.35176 
L 292.531475 123.489451 
L 292.603355 123.271919 
L 292.638733 123.425292 
L 292.70921 123.384894 
L 292.739967 123.508236 
L 292.79982 123.436878 
L 292.835577 123.475927 
L 293.072019 123.572934 
L 293.221336 123.370291 
L 293.253517 123.434353 
L 293.322046 123.356685 
L 293.415083 123.587096 
L 293.585358 123.311882 
L 293.781767 123.659139 
L 293.953099 123.399792 
L 294.144998 123.506251 
L 294.216299 123.385954 
L 294.247212 123.459393 
L 294.307422 123.604112 
L 294.346107 123.514397 
L 294.587771 123.28852 
L 294.748825 123.503463 
L 294.955023 123.343108 
L 295.015511 123.197308 
L 295.047559 123.260931 
L 295.219248 123.600536 
L 295.24889 123.547898 
L 295.281752 123.400487 
L 295.370948 123.445857 
L 295.503171 123.365772 
L 295.571054 123.505446 
L 295.641052 123.463361 
L 295.672711 123.392011 
L 295.738088 123.448158 
L 295.800759 123.619847 
L 295.898106 123.516548 
L 296.032679 123.476985 
L 296.096965 123.391766 
L 296.129748 123.521691 
L 296.284588 123.287249 
L 296.315311 123.381182 
L 296.475508 123.341489 
L 296.533257 123.553023 
L 296.570127 123.451122 
L 296.697429 123.390573 
L 296.727383 123.445487 
L 296.817793 123.405208 
L 296.877602 123.552891 
L 296.97015 123.329899 
L 297.028857 123.433643 
L 297.112574 123.487251 
L 297.083377 123.352424 
L 297.142696 123.432575 
L 297.171571 123.32623 
L 297.223774 123.433262 
L 297.347791 123.631467 
L 297.442878 123.353033 
L 297.471429 123.397829 
L 297.626882 123.594452 
L 297.743561 123.397718 
L 297.773393 123.41321 
L 297.834683 123.586165 
L 297.891051 123.564777 
L 298.078753 123.298726 
L 298.202636 123.41272 
L 298.23141 123.562063 
L 298.320339 123.503261 
L 298.352799 123.409798 
L 298.417207 123.445123 
L 298.533184 123.586433 
L 298.61914 123.468317 
L 298.673103 123.514427 
L 298.733347 123.580322 
L 298.76476 123.534441 
L 299.024508 123.354804 
L 299.195183 123.556636 
L 299.222065 123.605162 
L 299.251942 123.469152 
L 299.490978 123.403198 
L 299.544128 123.575311 
L 299.603013 123.429487 
L 299.715894 123.557799 
L 299.741317 123.547427 
L 300.595549 123.536741 
L 300.679311 123.327311 
L 300.730858 123.363104 
L 300.835153 123.539452 
L 300.862035 123.462846 
L 300.889941 123.383081 
L 300.950952 123.435442 
L 301.007053 123.769575 
L 301.09057 123.661615 
L 301.117685 123.705352 
L 301.147596 123.558459 
L 301.295521 123.474226 
L 301.483155 123.492179 
L 301.512163 123.396342 
L 301.564178 123.484878 
L 301.641481 123.650351 
L 301.723205 123.582404 
L 301.779506 123.381873 
L 301.806955 123.523216 
L 301.886074 123.598923 
L 301.862355 123.485272 
L 301.909536 123.541652 
L 302.01528 123.535407 
L 302.118974 123.672921 
L 302.146691 123.658036 
L 302.264171 123.470514 
L 302.289382 123.529736 
L 302.343423 123.457613 
L 302.417085 123.670091 
L 302.5506 123.415464 
L 302.70318 123.735717 
L 302.837676 123.495412 
L 302.98795 123.593269 
L 303.044196 123.48182 
L 303.090832 123.609963 
L 303.116043 123.683363 
L 303.17466 123.546184 
L 303.337429 123.390645 
L 303.46482 123.589123 
L 303.487871 123.578849 
L 303.654069 123.39134 
L 303.677398 123.304991 
L 303.728166 123.455419 
L 303.838463 123.677874 
L 303.862249 123.628877 
L 303.987936 123.494239 
L 304.488069 123.561026 
L 304.566006 123.602699 
L 304.615281 123.507692 
L 304.638187 123.604678 
L 304.689745 123.383911 
L 304.713742 123.471209 
L 304.762093 123.458644 
L 304.762093 123.458644 
" clip-path="url(#p8a0155be61)" style="fill: none; stroke: #ff0000; stroke-width: 2; stroke-linecap: square"/>
   </g>
   <g id="line2d_18">
    <path d="M 245.9075 211.392 
L 245.378983 177.095653 
L 245.656331 152.563818 
L 246.497162 131.092007 
L 246.808919 127.116738 
L 247.357029 123.65053 
L 247.758734 122.785255 
L 247.933201 122.546048 
L 248.441824 122.666607 
L 248.606876 122.435183 
L 248.931789 122.693721 
L 249.427072 122.318044 
L 249.874978 122.565457 
L 250.021289 122.375288 
L 250.171229 122.609706 
L 250.607232 122.449209 
L 251.345036 122.89175 
L 251.517677 122.644547 
L 251.670841 122.665546 
L 251.80459 122.435504 
L 252.372071 122.671572 
L 252.524322 122.700779 
L 252.675454 122.860367 
L 252.803491 122.737197 
L 253.067259 122.746019 
L 253.21019 122.551064 
L 253.345782 122.578751 
L 253.619656 122.869644 
L 253.747727 122.780295 
L 253.868987 122.842845 
L 254.119621 122.660712 
L 254.386502 122.737496 
L 254.693471 122.427412 
L 254.940419 122.466318 
L 255.099062 122.410303 
L 255.340543 122.866827 
L 255.842607 122.639683 
L 256.239412 122.921216 
L 256.360406 122.806514 
L 256.577767 122.939196 
L 256.92189 122.759567 
L 257.373398 122.945843 
L 257.632696 122.834497 
L 257.960923 122.939569 
L 258.174213 122.688859 
L 258.27366 122.853466 
L 258.489473 122.617644 
L 258.69523 122.903811 
L 258.807349 122.845513 
L 258.916383 122.95089 
L 259.014382 122.829528 
L 259.227567 123.020956 
L 259.437539 122.794524 
L 259.669833 122.745316 
L 259.883848 122.862209 
L 260.200076 122.731274 
L 260.387248 122.996998 
L 260.593323 122.779669 
L 260.780724 122.884301 
L 260.879062 122.816165 
L 261.072359 122.968062 
L 261.16562 122.972914 
L 261.279982 122.860778 
L 261.485751 123.04188 
L 261.688674 122.959597 
L 261.773739 123.057854 
L 261.952125 122.885684 
L 262.137032 123.044358 
L 262.806135 122.934721 
L 262.989338 123.08442 
L 263.280171 123.005358 
L 263.727471 123.206771 
L 264.158284 122.700367 
L 264.232876 122.92846 
L 264.318313 122.755219 
L 264.554543 123.002502 
L 264.644959 123.019302 
L 264.815144 122.794983 
L 265.08801 123.118923 
L 265.175018 123.3603 
L 265.348237 123.233982 
L 265.598387 123.064898 
L 265.698245 122.985774 
L 265.871916 123.108551 
L 266.042836 122.948676 
L 266.270853 122.938635 
L 266.518425 122.947959 
L 266.596786 122.982567 
L 266.680988 122.847146 
L 266.753609 122.933799 
L 267.055589 123.215809 
L 267.132263 123.060651 
L 267.211704 123.005528 
L 267.28962 123.122481 
L 267.451854 122.840698 
L 267.604745 123.159108 
L 267.688374 122.991233 
L 267.756679 123.152475 
L 267.82376 123.073277 
L 267.968907 123.113562 
L 268.04763 123.155615 
L 268.123145 123.068962 
L 268.197191 123.227037 
L 268.271182 123.184042 
L 268.333964 123.163634 
L 268.487485 123.246899 
L 268.813022 122.988184 
L 268.956426 123.135198 
L 269.029916 122.97297 
L 269.092163 123.062466 
L 269.229894 123.272161 
L 269.450735 123.06587 
L 269.666692 123.095771 
L 269.942487 123.1925 
L 270.006751 123.373042 
L 270.083241 123.175051 
L 270.150639 123.252278 
L 270.625688 123.048575 
L 270.763597 123.185443 
L 270.910319 123.033913 
L 271.097954 123.313861 
L 271.327458 123.062384 
L 271.53257 123.048301 
L 271.670078 122.919373 
L 271.734942 123.065632 
L 272.123563 123.159162 
L 272.202375 123.035272 
L 272.268275 123.110683 
L 272.532756 122.815345 
L 272.595951 122.895483 
L 272.724467 123.077597 
L 272.86321 123.059113 
L 272.937084 123.325249 
L 272.995468 123.26097 
L 273.06124 123.077873 
L 273.123109 123.132437 
L 273.565904 123.167876 
L 273.62784 123.214077 
L 273.696731 123.071134 
L 273.763533 123.162934 
L 273.824667 123.074606 
L 273.888057 123.131072 
L 274.013371 123.207139 
L 274.073147 123.361055 
L 274.136603 123.229059 
L 274.339203 123.238398 
L 274.392209 123.312388 
L 274.583535 123.088532 
L 274.643327 123.08363 
L 274.705959 123.244918 
L 274.765178 123.171596 
L 274.824514 123.120137 
L 274.87772 123.249872 
L 274.930469 123.215208 
L 275.000757 122.95795 
L 275.0584 123.073939 
L 275.360336 123.027908 
L 275.469437 123.290617 
L 275.659254 123.118618 
L 275.944124 123.271919 
L 275.999702 123.113908 
L 276.060402 123.26573 
L 276.111403 123.296323 
L 276.163395 123.20063 
L 276.393829 123.151978 
L 276.442402 123.192957 
L 276.494611 123.053977 
L 276.548374 123.21925 
L 276.657569 123.023496 
L 276.70695 123.096561 
L 276.979299 123.399962 
L 277.152551 123.061691 
L 277.487766 123.358602 
L 277.697477 123.120979 
L 277.80386 123.263186 
L 277.961963 123.326531 
L 278.064338 123.187567 
L 278.173617 123.24134 
L 278.300078 123.006136 
L 278.353112 123.030089 
L 278.520702 123.145725 
L 278.571491 123.326917 
L 278.673928 123.295209 
L 278.900409 123.188967 
L 278.95833 123.354236 
L 279.059285 123.310615 
L 279.105871 123.36191 
L 279.159528 123.277468 
L 279.307186 123.261699 
L 279.724876 123.344482 
L 279.821867 123.148031 
L 279.867478 123.274788 
L 279.966551 123.089271 
L 280.015932 123.199468 
L 280.166051 123.342492 
L 280.211985 123.24615 
L 280.26582 123.334189 
L 280.312678 123.39277 
L 280.463114 123.153905 
L 280.8661 123.360925 
L 280.965685 123.187281 
L 281.057197 123.267896 
L 281.10557 123.212733 
L 281.246792 123.33297 
L 281.303238 123.24278 
L 281.354094 123.351909 
L 281.405229 123.38431 
L 281.45427 123.299223 
L 281.832312 123.385374 
L 281.978856 123.25601 
L 282.167626 123.402719 
L 282.317099 123.335993 
L 282.549966 123.492643 
L 282.86135 123.123333 
L 283.034687 123.333642 
L 283.124918 123.149262 
L 283.173069 123.209401 
L 283.225294 123.211432 
L 283.318677 123.606953 
L 283.363899 123.509788 
L 283.499842 123.532825 
L 283.603314 123.294939 
L 283.650674 123.377214 
L 283.698 123.39434 
L 283.876971 123.239431 
L 284.09819 123.284553 
L 284.144481 123.172041 
L 284.185159 123.243179 
L 284.354821 123.472587 
L 284.397659 123.343121 
L 284.576931 123.158707 
L 284.748597 123.414337 
L 284.825232 123.338048 
L 284.870654 123.380375 
L 285.168063 123.486519 
L 285.356399 123.268137 
L 285.440306 123.390463 
L 285.483133 123.253788 
L 285.519513 123.328301 
L 285.600335 123.50245 
L 285.646325 123.384563 
L 285.685945 123.425645 
L 285.730209 123.327591 
L 285.813348 123.206736 
L 285.856843 123.351695 
L 286.020024 123.430599 
L 286.057996 123.581668 
L 286.142905 123.478376 
L 286.427408 123.303692 
L 286.509689 123.418392 
L 286.59825 123.289311 
L 286.636879 123.368391 
L 286.712122 123.524453 
L 286.760017 123.428125 
L 286.975568 123.29663 
L 287.059241 123.18604 
L 287.099318 123.310117 
L 287.336071 123.385793 
L 287.512459 123.246365 
L 287.587134 123.090114 
L 287.626454 123.158398 
L 287.838353 123.522994 
L 288.068436 123.312666 
L 288.836969 123.394064 
L 288.915987 123.303352 
L 289.066718 123.4451 
L 289.100492 123.414737 
L 289.144834 123.191816 
L 289.216748 123.273881 
L 289.377089 123.250831 
L 289.447599 123.477124 
L 289.492543 123.368485 
L 289.684565 123.362718 
L 289.757848 123.458043 
L 289.794038 123.320204 
L 289.865952 123.478037 
L 289.978321 123.240418 
L 290.015737 123.2872 
L 290.151379 123.408665 
L 290.223226 123.237152 
L 290.286242 123.351312 
L 290.435247 123.563332 
L 290.549276 123.266782 
L 290.584386 123.314663 
L 290.733135 123.42482 
L 290.772622 123.524525 
L 290.841306 123.461514 
L 290.949833 123.331918 
L 290.984977 123.439532 
L 291.091055 123.494035 
L 291.276574 123.267555 
L 291.433385 123.194999 
L 291.502414 123.491767 
L 291.571644 123.462684 
L 291.725337 123.368061 
L 291.864922 123.519047 
L 291.968371 123.393638 
L 292.002179 123.429844 
L 292.288475 123.500455 
L 292.45484 123.274216 
L 292.591518 123.496804 
L 292.692462 123.540362 
L 292.728297 123.39622 
L 293.015071 123.327081 
L 293.078767 123.509648 
L 293.117274 123.347724 
L 294.024534 123.491958 
L 294.058419 123.445512 
L 294.12727 123.516238 
L 294.262056 123.618999 
L 294.292411 123.556191 
L 294.42478 123.250698 
L 294.484578 123.28825 
L 294.609207 123.475319 
L 294.674172 123.310099 
L 294.746676 123.365537 
L 294.812743 123.718748 
L 294.879668 123.622802 
L 295.406971 123.325546 
L 295.436347 123.389331 
L 295.654359 123.523019 
L 295.721017 123.311497 
L 295.75282 123.46052 
L 295.84519 123.540663 
L 295.816972 123.420938 
L 295.873017 123.480356 
L 295.996789 123.473837 
L 296.116931 123.619215 
L 296.252618 123.498369 
L 296.379686 123.392756 
L 296.465274 123.616535 
L 296.52809 123.546655 
L 296.621584 123.348842 
L 296.653677 123.479687 
L 296.773719 123.549955 
L 296.801591 123.686375 
L 296.834497 123.534294 
L 296.863761 123.592782 
L 297.073989 123.43386 
L 297.104779 123.525815 
L 297.134934 123.537273 
L 297.167417 123.440971 
L 297.200768 123.419972 
L 297.229353 123.491697 
L 297.284942 123.632439 
L 297.320509 123.54522 
L 297.542619 123.324786 
L 297.691335 123.534013 
L 297.882599 123.377604 
L 297.938567 123.235383 
L 297.99773 123.393625 
L 298.126279 123.627769 
L 298.153617 123.57642 
L 298.184251 123.43292 
L 298.26671 123.477332 
L 298.389224 123.399201 
L 298.452195 123.535216 
L 298.516648 123.494019 
L 298.545779 123.424357 
L 298.6061 123.479123 
L 298.664328 123.646377 
L 298.754382 123.545516 
L 298.878733 123.506791 
L 298.938553 123.423816 
L 298.969165 123.550379 
L 298.998184 123.491896 
L 299.112201 123.321185 
L 299.052604 123.5528 
L 299.196575 123.399503 
" clip-path="url(#p8a0155be61)" style="fill: none; stroke: #ff0000; stroke-width: 2; stroke-linecap: square"/>
   </g>
   <g id="line2d_19">
    <path d="M 105.7895 48.732 
L 105.656981 79.165794 
L 105.086394 112.93011 
L 104.811306 122.50677 
L 104.514783 125.774365 
L 104.299793 126.144975 
L 104.165237 126.074823 
L 104.098457 126.249884 
L 103.965654 126.062703 
L 103.760982 126.351741 
L 103.57313 126.173456 
L 103.510687 126.319751 
L 103.446981 126.145009 
L 103.38152 126.214715 
L 103.318331 126.351365 
L 103.260649 126.274132 
L 102.939983 125.952125 
L 102.736264 126.308566 
L 102.340973 125.994278 
L 102.094103 126.243658 
L 101.9689 126.093555 
L 101.783715 126.025964 
L 101.664058 126.171935 
L 101.536366 126.115115 
L 101.32552 126.337 
L 101.189521 126.380556 
L 101.070776 126.023891 
L 101.008796 126.080456 
L 100.888309 126.095275 
L 100.821401 126.21335 
L 100.751313 126.133008 
L 100.690324 126.167475 
L 100.623043 125.993595 
L 100.562465 126.087709 
L 100.452306 125.984888 
L 100.390008 126.073324 
L 100.220235 126.089546 
L 99.738076 126.00098 
L 99.625412 126.206353 
L 99.572752 126.073427 
L 99.513048 126.171497 
L 99.457688 126.267466 
L 99.400718 126.15203 
L 99.228434 126.001948 
L 99.176297 126.102713 
L 99.115052 126.010355 
L 99.060404 125.948664 
L 98.886995 126.198449 
L 98.424657 125.98048 
L 98.309181 126.161656 
L 98.203744 126.076957 
L 98.148294 126.134524 
L 97.986923 126.008459 
L 97.922615 126.102716 
L 97.805563 125.95453 
L 97.689998 126.02513 
L 97.641497 125.94427 
L 97.591109 126.018836 
L 97.539345 126.089599 
L 97.486579 126.00009 
L 97.319312 125.951621 
L 97.151031 126.08648 
L 96.937211 125.933448 
L 96.766625 126.002301 
L 96.501465 125.838191 
L 96.244004 126.267382 
L 96.198922 126.07494 
L 96.102237 126.103213 
L 95.951406 126.002961 
L 95.848112 126.194449 
L 95.793971 126.131911 
L 95.734752 126.12968 
L 95.629861 125.717537 
L 95.579144 125.818343 
L 95.424476 125.793899 
L 95.307107 126.041477 
L 95.200166 125.937879 
L 94.998601 126.098711 
L 94.749081 126.051144 
L 94.696399 126.167914 
L 94.650821 126.093853 
L 94.460692 125.854928 
L 94.412302 125.989239 
L 94.209562 126.180596 
L 94.113095 125.907351 
L 94.060451 126.052996 
L 94.016733 125.914311 
L 93.930878 125.993554 
L 93.686931 125.891553 
L 93.292074 125.993233 
L 93.243723 125.938107 
L 93.195785 126.079657 
L 93.155685 126.002399 
L 93.065008 125.821159 
L 92.827286 126.127656 
L 92.7324 125.961111 
L 92.688058 125.977697 
L 92.553908 125.73853 
L 92.45871 125.845087 
L 92.142303 126.025602 
L 92.049778 125.906704 
L 91.951206 126.040142 
L 91.908801 125.958286 
L 91.825797 125.796597 
L 91.772658 125.895976 
L 91.533577 126.031915 
L 91.440795 126.146072 
L 91.396665 126.017686 
L 91.13332 125.938949 
L 90.986943 126.037398 
L 90.854173 126.244231 
L 90.811023 126.173769 
L 90.722818 126.013652 
L 90.673008 126.066969 
L 90.627486 126.031041 
L 90.576708 125.796052 
L 90.536219 125.853746 
L 90.491031 126.016496 
L 90.407892 125.977295 
L 90.236995 126.031516 
L 90.189836 126.053927 
L 90.097722 125.899087 
L 89.960587 126.02372 
L 89.787529 125.770966 
L 89.742542 125.888754 
L 89.600385 125.881737 
L 89.562802 125.816116 
L 89.519697 125.937651 
L 89.183914 125.905565 
L 89.134717 126.135464 
L 89.055387 126.050702 
L 88.878978 126.074625 
L 88.801541 125.840763 
L 88.752088 125.952676 
L 88.541581 125.958338 
L 88.461805 125.860175 
L 88.422541 126.00219 
L 88.37948 125.866331 
L 88.343056 125.839162 
L 88.30574 125.925308 
L 88.066259 126.058175 
L 88.027106 125.910095 
L 87.986561 125.969869 
L 87.947776 126.086538 
L 87.877945 125.968941 
L 87.714964 125.750414 
L 87.590034 126.055659 
L 87.551739 126.006306 
L 87.432221 125.909056 
L 87.233473 125.873118 
L 87.192639 126.005027 
L 87.153286 125.987698 
L 86.999582 125.820991 
L 86.924661 125.946878 
L 86.883449 125.897338 
L 86.844597 125.898747 
L 86.676806 126.088698 
L 86.627809 126.128478 
L 86.552711 125.822715 
L 86.477869 125.852675 
L 86.311458 125.949753 
L 86.159269 125.793886 
L 86.047311 125.923136 
L 86.010397 125.885836 
L 85.699158 125.812332 
L 85.518204 126.044922 
L 85.369366 125.815928 
L 85.33508 125.903803 
L 85.295103 125.823963 
L 85.259892 125.770986 
L 85.14622 125.988687 
L 85.101712 125.971481 
L 85.024943 125.89133 
L 84.983229 125.924022 
L 84.910057 125.989537 
L 84.841607 125.801944 
L 84.799525 125.968233 
L 84.03607 125.896734 
L 83.891063 125.808251 
L 83.8525 125.769102 
L 83.816376 125.818989 
L 83.779351 125.866697 
L 83.704308 125.794075 
L 83.558543 125.68839 
L 83.525649 125.752858 
L 83.383904 126.066235 
L 83.318349 126.027151 
L 83.184443 125.835402 
L 83.114178 126.004685 
L 83.037008 125.947924 
L 82.965652 125.585629 
L 82.892268 125.683545 
L 82.323351 125.987875 
L 82.291804 125.922551 
L 82.057211 125.785487 
L 81.986433 126.001999 
L 81.951646 125.849293 
L 81.881904 125.88958 
L 81.851537 125.76693 
L 81.792095 125.837883 
L 81.756751 125.799069 
L 81.52434 125.702216 
L 81.376193 125.904308 
L 81.344512 125.840428 
L 81.277776 125.918192 
L 81.185362 125.688528 
L 81.017426 125.962637 
L 80.823768 125.616644 
L 80.656444 125.875271 
L 80.466806 125.769057 
L 80.396629 125.888976 
L 80.366051 125.815864 
L 80.306442 125.671693 
L 80.268615 125.761038 
L 80.029957 125.986096 
L 79.871108 125.772062 
L 79.667137 125.931679 
L 79.607005 126.076877 
L 79.575547 126.013598 
L 79.405396 125.675543 
L 79.375987 125.727938 
L 79.343526 125.874608 
L 79.256079 125.829532 
L 79.126071 125.909099 
L 79.058834 125.770139 
L 78.989805 125.812058 
L 78.958948 125.883319 
L 78.894551 125.827221 
L 78.832581 125.656163 
L 78.735902 125.759206 
L 78.602788 125.798629 
L 78.539114 125.88342 
L 78.506766 125.753921 
L 78.353896 125.987817 
L 78.323608 125.894328 
L 78.166084 125.933671 
L 78.109192 125.722864 
L 78.073703 125.824634 
L 77.948595 125.88506 
L 77.918918 125.830187 
L 77.830302 125.870276 
L 77.771094 125.722996 
L 77.678813 125.945315 
L 77.620207 125.842045 
L 77.536623 125.788525 
L 77.565954 125.922738 
L 77.506702 125.843174 
L 77.477905 125.949053 
L 77.426069 125.84245 
L 77.304847 125.644796 
L 77.211208 125.922415 
L 77.182612 125.87771 
L 77.029019 125.681855 
L 76.913576 125.878094 
L 76.883733 125.862369 
L 76.823434 125.69001 
L 76.767644 125.711583 
L 76.582003 125.976721 
L 76.459044 125.86279 
L 76.430515 125.714061 
L 76.34319 125.772865 
L 76.311297 125.866188 
L 76.248103 125.830911 
L 76.133707 125.689721 
L 76.048531 125.807822 
L 75.99498 125.76179 
L 75.935416 125.696163 
L 75.869872 125.770448 
L 75.785498 125.708213 
L 75.648463 125.92091 
L 75.477443 125.719773 
L 75.450551 125.671414 
L 75.42083 125.807032 
L 75.185602 125.872435 
L 75.133799 125.701088 
L 75.076373 125.846605 
L 74.965886 125.71874 
L 74.940519 125.728977 
L 74.095195 125.739914 
L 74.012658 125.948512 
L 73.962013 125.912991 
L 73.85833 125.736988 
L 73.83166 125.813377 
L 73.8042 125.893005 
L 73.744123 125.840921 
L 73.688624 125.507847 
L 73.605385 125.615363 
L 73.579194 125.571698 
L 73.550097 125.718347 
L 73.403263 125.802087 
L 73.217444 125.784292 
L 73.188948 125.880094 
L 73.112491 125.748393 
L 73.06178 125.626565 
L 72.981247 125.69451 
L 72.926037 125.894453 
L 72.844257 125.790989 
L 72.718615 125.678895 
L 72.69229 125.741206 
L 72.665966 125.629649 
L 72.617515 125.676759 
L 72.5908 125.604187 
L 72.505546 125.659065 
L 72.368467 125.818986 
L 72.346219 125.755564 
L 72.295652 125.607261 
L 72.243047 125.673721 
L 72.164241 125.861161 
L 72.111135 125.724129 
L 72.035391 125.671011 
L 72.011405 125.541832 
L 71.983199 125.685817 
L 71.930795 125.655135 
L 71.780286 125.781481 
L 71.728216 125.683449 
L 71.648151 125.726838 
L 71.600881 125.593381 
L 71.543009 125.730571 
L 71.380931 125.885636 
L 71.253985 125.688009 
L 71.23089 125.698148 
L 71.066429 125.884886 
L 71.0433 125.971274 
L 70.992255 125.821149 
L 70.881968 125.599221 
L 70.85806 125.648103 
L 70.733742 125.782409 
L 70.238209 125.716107 
L 70.160282 125.674353 
L 70.110395 125.769181 
L 70.088113 125.672516 
L 70.036755 125.892542 
L 70.012524 125.805531 
L 69.964563 125.818325 
L 69.964563 125.818325 
" clip-path="url(#p8a0155be61)" style="fill: none; stroke: #ff0000; stroke-width: 2; stroke-linecap: square"/>
   </g>
   <g id="patch_3">
    <path d="M 70.76 233.08 
L 70.76 16.2 
" style="fill: none; stroke: #000000; stroke-width: 0.8; stroke-linejoin: miter; stroke-linecap: square"/>
   </g>
   <g id="patch_4">
    <path d="M 304.29 233.08 
L 304.29 16.2 
" style="fill: none; stroke: #000000; stroke-width: 0.8; stroke-linejoin: miter; stroke-linecap: square"/>
   </g>
   <g id="patch_5">
    <path d="M 70.76 233.08 
L 304.29 233.08 
" style="fill: none; stroke: #000000; stroke-width: 0.8; stroke-linejoin: miter; stroke-linecap: square"/>
   </g>
   <g id="patch_6">
    <path d="M 70.76 16.2 
L 304.29 16.2 
" style="fill: none; stroke: #000000; stroke-width: 0.8; stroke-linejoin: miter; stroke-linecap: square"/>
   </g>
   <g id="legend_1">
    <g id="patch_7">
     <path d="M 193.55 130.175313 
L 294.49 130.175313 
Q 297.29 130.175313 297.29 127.375313 
L 297.29 26 
Q 297.29 23.2 294.49 23.2 
L 193.55 23.2 
Q 190.75 23.2 190.75 26 
L 190.75 127.375313 
Q 190.75 130.175313 193.55 130.175313 
z
" style="fill: #ffffff; opacity: 0.8; stroke: #cccccc; stroke-linejoin: miter"/>
    </g>
    <g id="patch_8">
     <path d="M 196.35 39.437813 
L 224.35 39.437813 
L 224.35 29.637813 
L 196.35 29.637813 
z
" style="fill: #808080"/>
    </g>
    <g id="text_13">
     <!-- $\Delta \theta$ -->
     <g transform="translate(235.55 39.437813) scale(0.14 -0.14)">
      <defs>
       <path id="DejaVuSans-394" d="M 2188 4044 
L 906 525 
L 3472 525 
L 2188 4044 
z
M 50 0 
L 1831 4666 
L 2547 4666 
L 4325 0 
L 50 0 
z
" transform="scale(0.015625)"/>
       <path id="DejaVuSans-Oblique-3b8" d="M 2913 2219 
L 925 2219 
Q 791 1284 928 888 
Q 1100 400 1566 400 
Q 2034 400 2391 891 
Q 2703 1322 2913 2219 
z
M 3009 2750 
Q 3094 3638 2984 3950 
Q 2813 4444 2353 4444 
Q 1875 4444 1525 3956 
Q 1250 3563 1034 2750 
L 3009 2750 
z
M 2444 4913 
Q 3194 4913 3494 4250 
Q 3794 3591 3566 2422 
Q 3341 1256 2781 594 
Q 2225 -72 1475 -72 
Q 722 -72 425 594 
Q 128 1256 353 2422 
Q 581 3591 1134 4250 
Q 1691 4913 2444 4913 
z
" transform="scale(0.015625)"/>
      </defs>
      <use xlink:href="#DejaVuSans-394" transform="translate(0 0.234375)"/>
      <use xlink:href="#DejaVuSans-Oblique-3b8" transform="translate(68.408203 0.234375)"/>
     </g>
    </g>
    <g id="line2d_20">
     <path d="M 196.35 55.087188 
L 210.35 55.087188 
L 224.35 55.087188 
" style="fill: none; stroke: #008000; stroke-opacity: 0.5; stroke-width: 1.6; stroke-linecap: square"/>
    </g>
    <g id="text_14">
     <!-- $\Delta \mu=0$ -->
     <g transform="translate(235.55 59.987188) scale(0.14 -0.14)">
      <defs>
       <path id="DejaVuSans-3d" d="M 678 2906 
L 4684 2906 
L 4684 2381 
L 678 2381 
L 678 2906 
z
M 678 1631 
L 4684 1631 
L 4684 1100 
L 678 1100 
L 678 1631 
z
" transform="scale(0.015625)"/>
      </defs>
      <use xlink:href="#DejaVuSans-394" transform="translate(0 0.78125)"/>
      <use xlink:href="#DejaVuSans-Oblique-3bc" transform="translate(68.408203 0.78125)"/>
      <use xlink:href="#DejaVuSans-3d" transform="translate(151.513672 0.78125)"/>
      <use xlink:href="#DejaVuSans-30" transform="translate(254.785156 0.78125)"/>
     </g>
    </g>
    <g id="line2d_21">
     <path d="M 196.35 75.665 
L 210.35 75.665 
L 224.35 75.665 
" style="fill: none; stroke: #cc99ff; stroke-opacity: 0.5; stroke-width: 1.6; stroke-linecap: square"/>
    </g>
    <g id="text_15">
     <!-- $\Delta W_0 =0$ -->
     <g transform="translate(235.55 80.565) scale(0.14 -0.14)">
      <use xlink:href="#DejaVuSans-394" transform="translate(0 0.78125)"/>
      <use xlink:href="#DejaVuSans-Oblique-57" transform="translate(68.408203 0.78125)"/>
      <use xlink:href="#DejaVuSans-30" transform="translate(167.285156 -15.625) scale(0.7)"/>
      <use xlink:href="#DejaVuSans-3d" transform="translate(234.038086 0.78125)"/>
      <use xlink:href="#DejaVuSans-30" transform="translate(337.30957 0.78125)"/>
     </g>
    </g>
    <g id="PathCollection_2">
     <path d="M 210.35 100.439375 
C 211.145609 100.439375 211.90874 100.123276 212.47132 99.560695 
C 213.033901 98.998115 213.35 98.234984 213.35 97.439375 
C 213.35 96.643766 213.033901 95.880635 212.47132 95.318055 
C 211.90874 94.755474 211.145609 94.439375 210.35 94.439375 
C 209.554391 94.439375 208.79126 94.755474 208.22868 95.318055 
C 207.666099 95.880635 207.35 96.643766 207.35 97.439375 
C 207.35 98.234984 207.666099 98.998115 208.22868 99.560695 
C 208.79126 100.123276 209.554391 100.439375 210.35 100.439375 
L 210.35 100.439375 
z
" style="fill: none; stroke: #000000; stroke-width: 2"/>
    </g>
    <g id="text_16">
     <!-- data -->
     <g transform="translate(235.55 101.114375) scale(0.14 -0.14)">
      <defs>
       <path id="DejaVuSans-64" d="M 2906 2969 
L 2906 4863 
L 3481 4863 
L 3481 0 
L 2906 0 
L 2906 525 
Q 2725 213 2448 61 
Q 2172 -91 1784 -91 
Q 1150 -91 751 415 
Q 353 922 353 1747 
Q 353 2572 751 3078 
Q 1150 3584 1784 3584 
Q 2172 3584 2448 3432 
Q 2725 3281 2906 2969 
z
M 947 1747 
Q 947 1113 1208 752 
Q 1469 391 1925 391 
Q 2381 391 2643 752 
Q 2906 1113 2906 1747 
Q 2906 2381 2643 2742 
Q 2381 3103 1925 3103 
Q 1469 3103 1208 2742 
Q 947 2381 947 1747 
z
" transform="scale(0.015625)"/>
      </defs>
      <use xlink:href="#DejaVuSans-64"/>
      <use xlink:href="#DejaVuSans-61" x="63.476562"/>
      <use xlink:href="#DejaVuSans-74" x="124.755859"/>
      <use xlink:href="#DejaVuSans-61" x="163.964844"/>
     </g>
    </g>
    <g id="line2d_22">
     <path d="M 196.35 116.76375 
L 210.35 116.76375 
L 224.35 116.76375 
" style="fill: none; stroke: #ff0000; stroke-width: 2; stroke-linecap: square"/>
    </g>
    <g id="text_17">
     <!-- PC -->
     <g transform="translate(235.55 121.66375) scale(0.14 -0.14)">
      <defs>
       <path id="DejaVuSans-50" d="M 1259 4147 
L 1259 2394 
L 2053 2394 
Q 2494 2394 2734 2622 
Q 2975 2850 2975 3272 
Q 2975 3691 2734 3919 
Q 2494 4147 2053 4147 
L 1259 4147 
z
M 628 4666 
L 2053 4666 
Q 2838 4666 3239 4311 
Q 3641 3956 3641 3272 
Q 3641 2581 3239 2228 
Q 2838 1875 2053 1875 
L 1259 1875 
L 1259 0 
L 628 0 
L 628 4666 
z
" transform="scale(0.015625)"/>
       <path id="DejaVuSans-43" d="M 4122 4306 
L 4122 3641 
Q 3803 3938 3442 4084 
Q 3081 4231 2675 4231 
Q 1875 4231 1450 3742 
Q 1025 3253 1025 2328 
Q 1025 1406 1450 917 
Q 1875 428 2675 428 
Q 3081 428 3442 575 
Q 3803 722 4122 1019 
L 4122 359 
Q 3791 134 3420 21 
Q 3050 -91 2638 -91 
Q 1578 -91 968 557 
Q 359 1206 359 2328 
Q 359 3453 968 4101 
Q 1578 4750 2638 4750 
Q 3056 4750 3426 4639 
Q 3797 4528 4122 4306 
z
" transform="scale(0.015625)"/>
      </defs>
      <use xlink:href="#DejaVuSans-50"/>
      <use xlink:href="#DejaVuSans-43" x="60.302734"/>
     </g>
    </g>
   </g>
  </g>
 </g>
 <defs>
  <clipPath id="p8a0155be61">
   <rect x="70.76" y="16.2" width="233.53" height="216.88"/>
  </clipPath>
 </defs>
</svg>
