<?xml version="1.0" encoding="utf-8" standalone="no"?>
<!DOCTYPE svg PUBLIC "-//W3C//DTD SVG 1.1//EN"
  "http://www.w3.org/Graphics/SVG/1.1/DTD/svg11.dtd">
<svg xmlns:xlink="http://www.w3.org/1999/xlink" width="288pt" height="288pt" viewBox="0 0 288 288" xmlns="http://www.w3.org/2000/svg" version="1.1">
 <metadata>
  <rdf:RDF xmlns:dc="http://purl.org/dc/elements/1.1/" xmlns:cc="http://creativecommons.org/ns#" xmlns:rdf="http://www.w3.org/1999/02/22-rdf-syntax-ns#">
   <cc:Work>
    <dc:type rdf:resource="http://purl.org/dc/dcmitype/StillImage"/>
    <dc:date>2024-01-25T11:03:41.016850</dc:date>
    <dc:format>image/svg+xml</dc:format>
    <dc:creator>
     <cc:Agent>
      <dc:title>Matplotlib v3.6.2, https://matplotlib.org/</dc:title>
     </cc:Agent>
    </dc:creator>
   </cc:Work>
  </rdf:RDF>
 </metadata>
 <defs>
  <style type="text/css">*{stroke-linejoin: round; stroke-linecap: butt}</style>
 </defs>
 <g id="figure_1">
  <g id="patch_1">
   <path d="M 0 288 
L 288 288 
L 288 0 
L 0 0 
z
" style="fill: #ffffff"/>
  </g>
  <g id="axes_1">
   <g id="patch_2">
    <path d="M 72.47 235.96 
L 277.2 235.96 
L 277.2 32.784 
L 72.47 32.784 
z
" style="fill: #ffffff"/>
   </g>
   <g id="patch_3">
    <path d="M 72.47 235.96 
L 82.7065 235.96 
L 82.7065 235.96 
L 72.47 235.96 
z
" clip-path="url(#p80ab602c5e)" style="fill: #1f77b4"/>
   </g>
   <g id="patch_4">
    <path d="M 82.7065 235.96 
L 92.943 235.96 
L 92.943 235.96 
L 82.7065 235.96 
z
" clip-path="url(#p80ab602c5e)" style="fill: #1f77b4"/>
   </g>
   <g id="patch_5">
    <path d="M 92.943 235.96 
L 103.1795 235.96 
L 103.1795 235.96 
L 92.943 235.96 
z
" clip-path="url(#p80ab602c5e)" style="fill: #1f77b4"/>
   </g>
   <g id="patch_6">
    <path d="M 103.1795 235.96 
L 113.416 235.96 
L 113.416 235.96 
L 103.1795 235.96 
z
" clip-path="url(#p80ab602c5e)" style="fill: #1f77b4"/>
   </g>
   <g id="patch_7">
    <path d="M 113.416 235.96 
L 123.6525 235.96 
L 123.6525 235.116403 
L 113.416 235.116403 
z
" clip-path="url(#p80ab602c5e)" style="fill: #1f77b4"/>
   </g>
   <g id="patch_8">
    <path d="M 123.6525 235.96 
L 133.889 235.96 
L 133.889 231.742014 
L 123.6525 231.742014 
z
" clip-path="url(#p80ab602c5e)" style="fill: #1f77b4"/>
   </g>
   <g id="patch_9">
    <path d="M 133.889 235.96 
L 144.1255 235.96 
L 144.1255 222.462445 
L 133.889 222.462445 
z
" clip-path="url(#p80ab602c5e)" style="fill: #1f77b4"/>
   </g>
   <g id="patch_10">
    <path d="M 144.1255 235.96 
L 154.362 235.96 
L 154.362 192.936543 
L 144.1255 192.936543 
z
" clip-path="url(#p80ab602c5e)" style="fill: #1f77b4"/>
   </g>
   <g id="patch_11">
    <path d="M 154.362 235.96 
L 164.5985 235.96 
L 164.5985 145.273301 
L 154.362 145.273301 
z
" clip-path="url(#p80ab602c5e)" style="fill: #1f77b4"/>
   </g>
   <g id="patch_12">
    <path d="M 164.5985 235.96 
L 174.835 235.96 
L 174.835 86.221496 
L 164.5985 86.221496 
z
" clip-path="url(#p80ab602c5e)" style="fill: #1f77b4"/>
   </g>
   <g id="patch_13">
    <path d="M 174.835 235.96 
L 185.0715 235.96 
L 185.0715 49.103219 
L 174.835 49.103219 
z
" clip-path="url(#p80ab602c5e)" style="fill: #1f77b4"/>
   </g>
   <g id="patch_14">
    <path d="M 185.0715 235.96 
L 195.308 235.96 
L 195.308 73.567538 
L 185.0715 73.567538 
z
" clip-path="url(#p80ab602c5e)" style="fill: #1f77b4"/>
   </g>
   <g id="patch_15">
    <path d="M 195.308 235.96 
L 205.5445 235.96 
L 205.5445 122.074377 
L 195.308 122.074377 
z
" clip-path="url(#p80ab602c5e)" style="fill: #1f77b4"/>
   </g>
   <g id="patch_16">
    <path d="M 205.5445 235.96 
L 215.781 235.96 
L 215.781 179.438987 
L 205.5445 179.438987 
z
" clip-path="url(#p80ab602c5e)" style="fill: #1f77b4"/>
   </g>
   <g id="patch_17">
    <path d="M 215.781 235.96 
L 226.0175 235.96 
L 226.0175 206.012299 
L 215.781 206.012299 
z
" clip-path="url(#p80ab602c5e)" style="fill: #1f77b4"/>
   </g>
   <g id="patch_18">
    <path d="M 226.0175 235.96 
L 236.254 235.96 
L 236.254 226.680431 
L 226.0175 226.680431 
z
" clip-path="url(#p80ab602c5e)" style="fill: #1f77b4"/>
   </g>
   <g id="patch_19">
    <path d="M 236.254 235.96 
L 246.4905 235.96 
L 246.4905 233.429208 
L 236.254 233.429208 
z
" clip-path="url(#p80ab602c5e)" style="fill: #1f77b4"/>
   </g>
   <g id="patch_20">
    <path d="M 246.4905 235.96 
L 256.727 235.96 
L 256.727 235.538201 
L 246.4905 235.538201 
z
" clip-path="url(#p80ab602c5e)" style="fill: #1f77b4"/>
   </g>
   <g id="patch_21">
    <path d="M 256.727 235.96 
L 266.9635 235.96 
L 266.9635 235.96 
L 256.727 235.96 
z
" clip-path="url(#p80ab602c5e)" style="fill: #1f77b4"/>
   </g>
   <g id="patch_22">
    <path d="M 266.9635 235.96 
L 277.2 235.96 
L 277.2 235.96 
L 266.9635 235.96 
z
" clip-path="url(#p80ab602c5e)" style="fill: #1f77b4"/>
   </g>
   <g id="matplotlib.axis_1">
    <g id="xtick_1">
     <g id="line2d_1">
      <defs>
       <path id="mac86535314" d="M 0 0 
L 0 3.5 
" style="stroke: #000000; stroke-width: 0.8"/>
      </defs>
      <g>
       <use xlink:href="#mac86535314" x="89.530833" y="235.96" style="stroke: #000000; stroke-width: 0.8"/>
      </g>
     </g>
     <g id="text_1">
      <!-- −10 -->
      <g transform="translate(74.757552 253.597812) scale(0.14 -0.14)">
       <defs>
        <path id="DejaVuSans-2212" d="M 678 2272 
L 4684 2272 
L 4684 1741 
L 678 1741 
L 678 2272 
z
" transform="scale(0.015625)"/>
        <path id="DejaVuSans-31" d="M 794 531 
L 1825 531 
L 1825 4091 
L 703 3866 
L 703 4441 
L 1819 4666 
L 2450 4666 
L 2450 531 
L 3481 531 
L 3481 0 
L 794 0 
L 794 531 
z
" transform="scale(0.015625)"/>
        <path id="DejaVuSans-30" d="M 2034 4250 
Q 1547 4250 1301 3770 
Q 1056 3291 1056 2328 
Q 1056 1369 1301 889 
Q 1547 409 2034 409 
Q 2525 409 2770 889 
Q 3016 1369 3016 2328 
Q 3016 3291 2770 3770 
Q 2525 4250 2034 4250 
z
M 2034 4750 
Q 2819 4750 3233 4129 
Q 3647 3509 3647 2328 
Q 3647 1150 3233 529 
Q 2819 -91 2034 -91 
Q 1250 -91 836 529 
Q 422 1150 422 2328 
Q 422 3509 836 4129 
Q 1250 4750 2034 4750 
z
" transform="scale(0.015625)"/>
       </defs>
       <use xlink:href="#DejaVuSans-2212"/>
       <use xlink:href="#DejaVuSans-31" x="83.789062"/>
       <use xlink:href="#DejaVuSans-30" x="147.412109"/>
      </g>
     </g>
    </g>
    <g id="xtick_2">
     <g id="line2d_2">
      <g>
       <use xlink:href="#mac86535314" x="174.835" y="235.96" style="stroke: #000000; stroke-width: 0.8"/>
      </g>
     </g>
     <g id="text_2">
      <!-- 0 -->
      <g transform="translate(170.38125 253.597812) scale(0.14 -0.14)">
       <use xlink:href="#DejaVuSans-30"/>
      </g>
     </g>
    </g>
    <g id="xtick_3">
     <g id="line2d_3">
      <g>
       <use xlink:href="#mac86535314" x="260.139167" y="235.96" style="stroke: #000000; stroke-width: 0.8"/>
      </g>
     </g>
     <g id="text_3">
      <!-- 10 -->
      <g transform="translate(251.231667 253.597812) scale(0.14 -0.14)">
       <use xlink:href="#DejaVuSans-31"/>
       <use xlink:href="#DejaVuSans-30" x="63.623047"/>
      </g>
     </g>
    </g>
    <g id="text_4">
     <!-- $x_0$, y -->
     <g transform="translate(156.435 272.634375) scale(0.16 -0.16)">
      <defs>
       <path id="DejaVuSans-Oblique-78" d="M 3841 3500 
L 2234 1784 
L 3219 0 
L 2559 0 
L 1819 1388 
L 531 0 
L -166 0 
L 1556 1844 
L 641 3500 
L 1300 3500 
L 1972 2234 
L 3144 3500 
L 3841 3500 
z
" transform="scale(0.015625)"/>
       <path id="DejaVuSans-2c" d="M 750 794 
L 1409 794 
L 1409 256 
L 897 -744 
L 494 -744 
L 750 256 
L 750 794 
z
" transform="scale(0.015625)"/>
       <path id="DejaVuSans-20" transform="scale(0.015625)"/>
       <path id="DejaVuSans-79" d="M 2059 -325 
Q 1816 -950 1584 -1140 
Q 1353 -1331 966 -1331 
L 506 -1331 
L 506 -850 
L 844 -850 
Q 1081 -850 1212 -737 
Q 1344 -625 1503 -206 
L 1606 56 
L 191 3500 
L 800 3500 
L 1894 763 
L 2988 3500 
L 3597 3500 
L 2059 -325 
z
" transform="scale(0.015625)"/>
      </defs>
      <use xlink:href="#DejaVuSans-Oblique-78" transform="translate(0 0.3125)"/>
      <use xlink:href="#DejaVuSans-30" transform="translate(59.179688 -16.09375) scale(0.7)"/>
      <use xlink:href="#DejaVuSans-2c" transform="translate(106.450195 0.3125)"/>
      <use xlink:href="#DejaVuSans-20" transform="translate(138.237305 0.3125)"/>
      <use xlink:href="#DejaVuSans-79" transform="translate(170.024414 0.3125)"/>
     </g>
    </g>
   </g>
   <g id="matplotlib.axis_2">
    <g id="ytick_1">
     <g id="line2d_4">
      <defs>
       <path id="m96d01f608e" d="M 0 0 
L -3.5 0 
" style="stroke: #000000; stroke-width: 0.8"/>
      </defs>
      <g>
       <use xlink:href="#m96d01f608e" x="72.47" y="235.96" style="stroke: #000000; stroke-width: 0.8"/>
      </g>
     </g>
     <g id="text_5">
      <!-- 0.00 -->
      <g transform="translate(34.298125 241.278906) scale(0.14 -0.14)">
       <defs>
        <path id="DejaVuSans-2e" d="M 684 794 
L 1344 794 
L 1344 0 
L 684 0 
L 684 794 
z
" transform="scale(0.015625)"/>
       </defs>
       <use xlink:href="#DejaVuSans-30"/>
       <use xlink:href="#DejaVuSans-2e" x="63.623047"/>
       <use xlink:href="#DejaVuSans-30" x="95.410156"/>
       <use xlink:href="#DejaVuSans-30" x="159.033203"/>
      </g>
     </g>
    </g>
    <g id="ytick_2">
     <g id="line2d_5">
      <g>
       <use xlink:href="#m96d01f608e" x="72.47" y="184.129388" style="stroke: #000000; stroke-width: 0.8"/>
      </g>
     </g>
     <g id="text_6">
      <!-- 0.05 -->
      <g transform="translate(34.298125 189.448294) scale(0.14 -0.14)">
       <defs>
        <path id="DejaVuSans-35" d="M 691 4666 
L 3169 4666 
L 3169 4134 
L 1269 4134 
L 1269 2991 
Q 1406 3038 1543 3061 
Q 1681 3084 1819 3084 
Q 2600 3084 3056 2656 
Q 3513 2228 3513 1497 
Q 3513 744 3044 326 
Q 2575 -91 1722 -91 
Q 1428 -91 1123 -41 
Q 819 9 494 109 
L 494 744 
Q 775 591 1075 516 
Q 1375 441 1709 441 
Q 2250 441 2565 725 
Q 2881 1009 2881 1497 
Q 2881 1984 2565 2268 
Q 2250 2553 1709 2553 
Q 1456 2553 1204 2497 
Q 953 2441 691 2322 
L 691 4666 
z
" transform="scale(0.015625)"/>
       </defs>
       <use xlink:href="#DejaVuSans-30"/>
       <use xlink:href="#DejaVuSans-2e" x="63.623047"/>
       <use xlink:href="#DejaVuSans-30" x="95.410156"/>
       <use xlink:href="#DejaVuSans-35" x="159.033203"/>
      </g>
     </g>
    </g>
    <g id="ytick_3">
     <g id="line2d_6">
      <g>
       <use xlink:href="#m96d01f608e" x="72.47" y="132.298776" style="stroke: #000000; stroke-width: 0.8"/>
      </g>
     </g>
     <g id="text_7">
      <!-- 0.10 -->
      <g transform="translate(34.298125 137.617682) scale(0.14 -0.14)">
       <use xlink:href="#DejaVuSans-30"/>
       <use xlink:href="#DejaVuSans-2e" x="63.623047"/>
       <use xlink:href="#DejaVuSans-31" x="95.410156"/>
       <use xlink:href="#DejaVuSans-30" x="159.033203"/>
      </g>
     </g>
    </g>
    <g id="ytick_4">
     <g id="line2d_7">
      <g>
       <use xlink:href="#m96d01f608e" x="72.47" y="80.468163" style="stroke: #000000; stroke-width: 0.8"/>
      </g>
     </g>
     <g id="text_8">
      <!-- 0.15 -->
      <g transform="translate(34.298125 85.78707) scale(0.14 -0.14)">
       <use xlink:href="#DejaVuSans-30"/>
       <use xlink:href="#DejaVuSans-2e" x="63.623047"/>
       <use xlink:href="#DejaVuSans-31" x="95.410156"/>
       <use xlink:href="#DejaVuSans-35" x="159.033203"/>
      </g>
     </g>
    </g>
    <g id="text_9">
     <!-- probability $p(x_0;\theta)$ -->
     <g transform="translate(26.938125 208.772) rotate(-90) scale(0.16 -0.16)">
      <defs>
       <path id="DejaVuSans-70" d="M 1159 525 
L 1159 -1331 
L 581 -1331 
L 581 3500 
L 1159 3500 
L 1159 2969 
Q 1341 3281 1617 3432 
Q 1894 3584 2278 3584 
Q 2916 3584 3314 3078 
Q 3713 2572 3713 1747 
Q 3713 922 3314 415 
Q 2916 -91 2278 -91 
Q 1894 -91 1617 61 
Q 1341 213 1159 525 
z
M 3116 1747 
Q 3116 2381 2855 2742 
Q 2594 3103 2138 3103 
Q 1681 3103 1420 2742 
Q 1159 2381 1159 1747 
Q 1159 1113 1420 752 
Q 1681 391 2138 391 
Q 2594 391 2855 752 
Q 3116 1113 3116 1747 
z
" transform="scale(0.015625)"/>
       <path id="DejaVuSans-72" d="M 2631 2963 
Q 2534 3019 2420 3045 
Q 2306 3072 2169 3072 
Q 1681 3072 1420 2755 
Q 1159 2438 1159 1844 
L 1159 0 
L 581 0 
L 581 3500 
L 1159 3500 
L 1159 2956 
Q 1341 3275 1631 3429 
Q 1922 3584 2338 3584 
Q 2397 3584 2469 3576 
Q 2541 3569 2628 3553 
L 2631 2963 
z
" transform="scale(0.015625)"/>
       <path id="DejaVuSans-6f" d="M 1959 3097 
Q 1497 3097 1228 2736 
Q 959 2375 959 1747 
Q 959 1119 1226 758 
Q 1494 397 1959 397 
Q 2419 397 2687 759 
Q 2956 1122 2956 1747 
Q 2956 2369 2687 2733 
Q 2419 3097 1959 3097 
z
M 1959 3584 
Q 2709 3584 3137 3096 
Q 3566 2609 3566 1747 
Q 3566 888 3137 398 
Q 2709 -91 1959 -91 
Q 1206 -91 779 398 
Q 353 888 353 1747 
Q 353 2609 779 3096 
Q 1206 3584 1959 3584 
z
" transform="scale(0.015625)"/>
       <path id="DejaVuSans-62" d="M 3116 1747 
Q 3116 2381 2855 2742 
Q 2594 3103 2138 3103 
Q 1681 3103 1420 2742 
Q 1159 2381 1159 1747 
Q 1159 1113 1420 752 
Q 1681 391 2138 391 
Q 2594 391 2855 752 
Q 3116 1113 3116 1747 
z
M 1159 2969 
Q 1341 3281 1617 3432 
Q 1894 3584 2278 3584 
Q 2916 3584 3314 3078 
Q 3713 2572 3713 1747 
Q 3713 922 3314 415 
Q 2916 -91 2278 -91 
Q 1894 -91 1617 61 
Q 1341 213 1159 525 
L 1159 0 
L 581 0 
L 581 4863 
L 1159 4863 
L 1159 2969 
z
" transform="scale(0.015625)"/>
       <path id="DejaVuSans-61" d="M 2194 1759 
Q 1497 1759 1228 1600 
Q 959 1441 959 1056 
Q 959 750 1161 570 
Q 1363 391 1709 391 
Q 2188 391 2477 730 
Q 2766 1069 2766 1631 
L 2766 1759 
L 2194 1759 
z
M 3341 1997 
L 3341 0 
L 2766 0 
L 2766 531 
Q 2569 213 2275 61 
Q 1981 -91 1556 -91 
Q 1019 -91 701 211 
Q 384 513 384 1019 
Q 384 1609 779 1909 
Q 1175 2209 1959 2209 
L 2766 2209 
L 2766 2266 
Q 2766 2663 2505 2880 
Q 2244 3097 1772 3097 
Q 1472 3097 1187 3025 
Q 903 2953 641 2809 
L 641 3341 
Q 956 3463 1253 3523 
Q 1550 3584 1831 3584 
Q 2591 3584 2966 3190 
Q 3341 2797 3341 1997 
z
" transform="scale(0.015625)"/>
       <path id="DejaVuSans-69" d="M 603 3500 
L 1178 3500 
L 1178 0 
L 603 0 
L 603 3500 
z
M 603 4863 
L 1178 4863 
L 1178 4134 
L 603 4134 
L 603 4863 
z
" transform="scale(0.015625)"/>
       <path id="DejaVuSans-6c" d="M 603 4863 
L 1178 4863 
L 1178 0 
L 603 0 
L 603 4863 
z
" transform="scale(0.015625)"/>
       <path id="DejaVuSans-74" d="M 1172 4494 
L 1172 3500 
L 2356 3500 
L 2356 3053 
L 1172 3053 
L 1172 1153 
Q 1172 725 1289 603 
Q 1406 481 1766 481 
L 2356 481 
L 2356 0 
L 1766 0 
Q 1100 0 847 248 
Q 594 497 594 1153 
L 594 3053 
L 172 3053 
L 172 3500 
L 594 3500 
L 594 4494 
L 1172 4494 
z
" transform="scale(0.015625)"/>
       <path id="DejaVuSans-Oblique-70" d="M 3175 2156 
Q 3175 2616 2975 2859 
Q 2775 3103 2400 3103 
Q 2144 3103 1911 2972 
Q 1678 2841 1497 2591 
Q 1319 2344 1212 1994 
Q 1106 1644 1106 1300 
Q 1106 863 1306 627 
Q 1506 391 1875 391 
Q 2147 391 2380 519 
Q 2613 647 2778 891 
Q 2956 1147 3065 1494 
Q 3175 1841 3175 2156 
z
M 1394 2969 
Q 1625 3272 1939 3428 
Q 2253 3584 2638 3584 
Q 3175 3584 3472 3232 
Q 3769 2881 3769 2247 
Q 3769 1728 3584 1258 
Q 3400 788 3053 416 
Q 2822 169 2531 39 
Q 2241 -91 1919 -91 
Q 1547 -91 1294 64 
Q 1041 219 916 525 
L 556 -1331 
L -19 -1331 
L 922 3500 
L 1497 3500 
L 1394 2969 
z
" transform="scale(0.015625)"/>
       <path id="DejaVuSans-28" d="M 1984 4856 
Q 1566 4138 1362 3434 
Q 1159 2731 1159 2009 
Q 1159 1288 1364 580 
Q 1569 -128 1984 -844 
L 1484 -844 
Q 1016 -109 783 600 
Q 550 1309 550 2009 
Q 550 2706 781 3412 
Q 1013 4119 1484 4856 
L 1984 4856 
z
" transform="scale(0.015625)"/>
       <path id="DejaVuSans-3b" d="M 750 3309 
L 1409 3309 
L 1409 2516 
L 750 2516 
L 750 3309 
z
M 750 794 
L 1409 794 
L 1409 256 
L 897 -744 
L 494 -744 
L 750 256 
L 750 794 
z
" transform="scale(0.015625)"/>
       <path id="DejaVuSans-Oblique-3b8" d="M 2913 2219 
L 925 2219 
Q 791 1284 928 888 
Q 1100 400 1566 400 
Q 2034 400 2391 891 
Q 2703 1322 2913 2219 
z
M 3009 2750 
Q 3094 3638 2984 3950 
Q 2813 4444 2353 4444 
Q 1875 4444 1525 3956 
Q 1250 3563 1034 2750 
L 3009 2750 
z
M 2444 4913 
Q 3194 4913 3494 4250 
Q 3794 3591 3566 2422 
Q 3341 1256 2781 594 
Q 2225 -72 1475 -72 
Q 722 -72 425 594 
Q 128 1256 353 2422 
Q 581 3591 1134 4250 
Q 1691 4913 2444 4913 
z
" transform="scale(0.015625)"/>
       <path id="DejaVuSans-29" d="M 513 4856 
L 1013 4856 
Q 1481 4119 1714 3412 
Q 1947 2706 1947 2009 
Q 1947 1309 1714 600 
Q 1481 -109 1013 -844 
L 513 -844 
Q 928 -128 1133 580 
Q 1338 1288 1338 2009 
Q 1338 2731 1133 3434 
Q 928 4138 513 4856 
z
" transform="scale(0.015625)"/>
      </defs>
      <use xlink:href="#DejaVuSans-70" transform="translate(0 0.234375)"/>
      <use xlink:href="#DejaVuSans-72" transform="translate(63.476562 0.234375)"/>
      <use xlink:href="#DejaVuSans-6f" transform="translate(104.589844 0.234375)"/>
      <use xlink:href="#DejaVuSans-62" transform="translate(165.771484 0.234375)"/>
      <use xlink:href="#DejaVuSans-61" transform="translate(229.248047 0.234375)"/>
      <use xlink:href="#DejaVuSans-62" transform="translate(290.527344 0.234375)"/>
      <use xlink:href="#DejaVuSans-69" transform="translate(354.003906 0.234375)"/>
      <use xlink:href="#DejaVuSans-6c" transform="translate(381.787109 0.234375)"/>
      <use xlink:href="#DejaVuSans-69" transform="translate(409.570312 0.234375)"/>
      <use xlink:href="#DejaVuSans-74" transform="translate(437.353516 0.234375)"/>
      <use xlink:href="#DejaVuSans-79" transform="translate(476.5625 0.234375)"/>
      <use xlink:href="#DejaVuSans-20" transform="translate(535.742188 0.234375)"/>
      <use xlink:href="#DejaVuSans-Oblique-70" transform="translate(567.529297 0.234375)"/>
      <use xlink:href="#DejaVuSans-28" transform="translate(631.005859 0.234375)"/>
      <use xlink:href="#DejaVuSans-Oblique-78" transform="translate(670.019531 0.234375)"/>
      <use xlink:href="#DejaVuSans-30" transform="translate(729.199219 -16.171875) scale(0.7)"/>
      <use xlink:href="#DejaVuSans-3b" transform="translate(776.469727 0.234375)"/>
      <use xlink:href="#DejaVuSans-Oblique-3b8" transform="translate(829.643555 0.234375)"/>
      <use xlink:href="#DejaVuSans-29" transform="translate(890.825195 0.234375)"/>
     </g>
    </g>
   </g>
   <g id="line2d_8">
    <path d="M 89.530833 235.958972 
L 110.044861 235.845557 
L 115.857169 235.607538 
L 119.959975 235.222651 
L 123.037079 234.71575 
L 125.430382 234.124172 
L 127.823686 233.293638 
L 129.875089 232.334156 
L 131.584591 231.316839 
L 133.294093 230.061656 
L 135.003596 228.527103 
L 136.713098 226.668244 
L 138.4226 224.437433 
L 140.132103 221.785349 
L 141.841605 218.662346 
L 143.551107 215.020142 
L 145.26061 210.813822 
L 146.970112 206.00413 
L 148.679614 200.559973 
L 150.389117 194.461065 
L 152.440519 186.269607 
L 154.491922 177.145452 
L 156.885225 165.401318 
L 159.620429 150.740428 
L 163.381334 129.130057 
L 169.193642 95.62163 
L 171.586946 83.11788 
L 173.638348 73.564981 
L 175.347851 66.652205 
L 176.715453 61.920117 
L 178.083054 57.973074 
L 179.108756 55.563748 
L 180.134457 53.649732 
L 181.160159 52.247392 
L 181.84396 51.602904 
L 182.527761 51.193757 
L 183.211561 51.021526 
L 183.895362 51.086874 
L 184.579163 51.389549 
L 185.262964 51.928386 
L 185.946765 52.701314 
L 186.972467 54.292902 
L 187.998168 56.390653 
L 189.023869 58.976678 
L 190.391471 63.145936 
L 191.759073 68.082182 
L 193.468575 75.220861 
L 195.519978 84.996805 
L 197.913282 97.689333 
L 201.332286 117.278593 
L 207.486495 152.822798 
L 210.221698 167.319785 
L 212.615002 178.88597 
L 214.666404 187.842252 
L 216.717807 195.859582 
L 218.76921 202.925376 
L 220.478712 208.099903 
L 222.188215 212.651861 
L 223.897717 216.61609 
L 225.607219 220.034516 
L 227.316722 222.953731 
L 229.026224 225.422817 
L 230.735726 227.491471 
L 232.445229 229.208455 
L 234.154731 230.620383 
L 235.864233 231.770823 
L 237.915636 232.862107 
L 239.967039 233.695454 
L 242.360342 234.411661 
L 245.095546 234.976461 
L 248.17265 235.384019 
L 252.275456 235.688992 
L 258.087764 235.873953 
L 260.139167 235.903862 
L 260.139167 235.903862 
" clip-path="url(#p80ab602c5e)" style="fill: none; stroke: #000000; stroke-width: 3; stroke-linecap: square"/>
   </g>
   <g id="patch_23">
    <path d="M 72.47 235.96 
L 72.47 32.784 
" style="fill: none; stroke: #000000; stroke-width: 0.8; stroke-linejoin: miter; stroke-linecap: square"/>
   </g>
   <g id="patch_24">
    <path d="M 277.2 235.96 
L 277.2 32.784 
" style="fill: none; stroke: #000000; stroke-width: 0.8; stroke-linejoin: miter; stroke-linecap: square"/>
   </g>
   <g id="patch_25">
    <path d="M 72.47 235.96 
L 277.2 235.96 
" style="fill: none; stroke: #000000; stroke-width: 0.8; stroke-linejoin: miter; stroke-linecap: square"/>
   </g>
   <g id="patch_26">
    <path d="M 72.47 32.784 
L 277.2 32.784 
" style="fill: none; stroke: #000000; stroke-width: 0.8; stroke-linejoin: miter; stroke-linecap: square"/>
   </g>
   <g id="text_10">
    <!-- $\sigma^2$ : 1.0 -->
    <g transform="translate(141.355 26.784) scale(0.18 -0.18)">
     <defs>
      <path id="DejaVuSans-Oblique-3c3" d="M 2219 3044 
Q 1744 3044 1422 2700 
Q 1081 2341 969 1747 
Q 844 1119 1044 756 
Q 1241 397 1706 397 
Q 2166 397 2503 759 
Q 2844 1122 2966 1747 
Q 3075 2319 2881 2700 
Q 2700 3044 2219 3044 
z
M 2309 3503 
L 4219 3500 
L 4106 2925 
L 3463 2925 
Q 3706 2438 3575 1747 
Q 3406 888 2884 400 
Q 2359 -91 1609 -91 
Q 856 -91 525 400 
Q 194 888 363 1747 
Q 528 2609 1050 3097 
Q 1484 3503 2309 3503 
z
" transform="scale(0.015625)"/>
      <path id="DejaVuSans-32" d="M 1228 531 
L 3431 531 
L 3431 0 
L 469 0 
L 469 531 
Q 828 903 1448 1529 
Q 2069 2156 2228 2338 
Q 2531 2678 2651 2914 
Q 2772 3150 2772 3378 
Q 2772 3750 2511 3984 
Q 2250 4219 1831 4219 
Q 1534 4219 1204 4116 
Q 875 4013 500 3803 
L 500 4441 
Q 881 4594 1212 4672 
Q 1544 4750 1819 4750 
Q 2544 4750 2975 4387 
Q 3406 4025 3406 3419 
Q 3406 3131 3298 2873 
Q 3191 2616 2906 2266 
Q 2828 2175 2409 1742 
Q 1991 1309 1228 531 
z
" transform="scale(0.015625)"/>
      <path id="DejaVuSans-3a" d="M 750 794 
L 1409 794 
L 1409 0 
L 750 0 
L 750 794 
z
M 750 3309 
L 1409 3309 
L 1409 2516 
L 750 2516 
L 750 3309 
z
" transform="scale(0.015625)"/>
     </defs>
     <use xlink:href="#DejaVuSans-Oblique-3c3" transform="translate(0 0.765625)"/>
     <use xlink:href="#DejaVuSans-32" transform="translate(67.851615 39.046875) scale(0.7)"/>
     <use xlink:href="#DejaVuSans-20" transform="translate(115.122122 0.765625)"/>
     <use xlink:href="#DejaVuSans-3a" transform="translate(146.909232 0.765625)"/>
     <use xlink:href="#DejaVuSans-20" transform="translate(180.600638 0.765625)"/>
     <use xlink:href="#DejaVuSans-31" transform="translate(212.387747 0.765625)"/>
     <use xlink:href="#DejaVuSans-2e" transform="translate(276.010794 0.765625)"/>
     <use xlink:href="#DejaVuSans-30" transform="translate(307.797904 0.765625)"/>
    </g>
   </g>
   <g id="legend_1">
    <g id="patch_27">
     <path d="M 82.27 85.113375 
L 167.142812 85.113375 
Q 169.942813 85.113375 169.942813 82.313375 
L 169.942813 42.584 
Q 169.942813 39.784 167.142812 39.784 
L 82.27 39.784 
Q 79.47 39.784 79.47 42.584 
L 79.47 82.313375 
Q 79.47 85.113375 82.27 85.113375 
z
" style="fill: #ffffff; opacity: 0.8; stroke: #cccccc; stroke-linejoin: miter"/>
    </g>
    <g id="line2d_9">
     <path d="M 85.07 51.124 
L 99.07 51.124 
L 113.07 51.124 
" style="fill: none; stroke: #000000; stroke-width: 3; stroke-linecap: square"/>
    </g>
    <g id="text_11">
     <!-- $p(y)$ -->
     <g transform="translate(124.27 56.024) scale(0.14 -0.14)">
      <defs>
       <path id="DejaVuSans-Oblique-79" d="M 1588 -325 
Q 1188 -997 936 -1164 
Q 684 -1331 294 -1331 
L -159 -1331 
L -63 -850 
L 269 -850 
Q 509 -850 678 -719 
Q 847 -588 1056 -206 
L 1234 128 
L 459 3500 
L 1069 3500 
L 1650 819 
L 3256 3500 
L 3859 3500 
L 1588 -325 
z
" transform="scale(0.015625)"/>
      </defs>
      <use xlink:href="#DejaVuSans-Oblique-70" transform="translate(0 0.125)"/>
      <use xlink:href="#DejaVuSans-28" transform="translate(63.476562 0.125)"/>
      <use xlink:href="#DejaVuSans-Oblique-79" transform="translate(102.490234 0.125)"/>
      <use xlink:href="#DejaVuSans-29" transform="translate(161.669922 0.125)"/>
     </g>
    </g>
    <g id="patch_28">
     <path d="M 85.07 76.601812 
L 113.07 76.601812 
L 113.07 66.801812 
L 85.07 66.801812 
z
" style="fill: #1f77b4"/>
    </g>
    <g id="text_12">
     <!-- MCPC -->
     <g transform="translate(124.27 76.601812) scale(0.14 -0.14)">
      <defs>
       <path id="DejaVuSans-4d" d="M 628 4666 
L 1569 4666 
L 2759 1491 
L 3956 4666 
L 4897 4666 
L 4897 0 
L 4281 0 
L 4281 4097 
L 3078 897 
L 2444 897 
L 1241 4097 
L 1241 0 
L 628 0 
L 628 4666 
z
" transform="scale(0.015625)"/>
       <path id="DejaVuSans-43" d="M 4122 4306 
L 4122 3641 
Q 3803 3938 3442 4084 
Q 3081 4231 2675 4231 
Q 1875 4231 1450 3742 
Q 1025 3253 1025 2328 
Q 1025 1406 1450 917 
Q 1875 428 2675 428 
Q 3081 428 3442 575 
Q 3803 722 4122 1019 
L 4122 359 
Q 3791 134 3420 21 
Q 3050 -91 2638 -91 
Q 1578 -91 968 557 
Q 359 1206 359 2328 
Q 359 3453 968 4101 
Q 1578 4750 2638 4750 
Q 3056 4750 3426 4639 
Q 3797 4528 4122 4306 
z
" transform="scale(0.015625)"/>
       <path id="DejaVuSans-50" d="M 1259 4147 
L 1259 2394 
L 2053 2394 
Q 2494 2394 2734 2622 
Q 2975 2850 2975 3272 
Q 2975 3691 2734 3919 
Q 2494 4147 2053 4147 
L 1259 4147 
z
M 628 4666 
L 2053 4666 
Q 2838 4666 3239 4311 
Q 3641 3956 3641 3272 
Q 3641 2581 3239 2228 
Q 2838 1875 2053 1875 
L 1259 1875 
L 1259 0 
L 628 0 
L 628 4666 
z
" transform="scale(0.015625)"/>
      </defs>
      <use xlink:href="#DejaVuSans-4d"/>
      <use xlink:href="#DejaVuSans-43" x="86.279297"/>
      <use xlink:href="#DejaVuSans-50" x="156.103516"/>
      <use xlink:href="#DejaVuSans-43" x="216.40625"/>
     </g>
    </g>
   </g>
  </g>
 </g>
 <defs>
  <clipPath id="p80ab602c5e">
   <rect x="72.47" y="32.784" width="204.73" height="203.176"/>
  </clipPath>
 </defs>
</svg>
